<svg width="67" height="67" viewBox="0 0 67 67" fill="none" xmlns="http://www.w3.org/2000/svg">
<path d="M65.1352 64.7667L44.4132 39.492C44.201 39.2341 43.885 39.0833 43.55 39.0833H43.3367L42.6689 35.9667C43.3758 36.0639 44.0793 36.1297 44.7761 36.1297C46.8699 36.1297 48.9111 35.5647 50.872 33.6742C51.5587 33.0131 52.212 32.1042 52.9043 31.1405C53.9707 29.6587 55.179 27.9781 56.3202 27.5872C56.3213 27.5861 56.3224 27.5861 56.3247 27.585C56.9087 27.3862 57.2202 26.7531 57.0226 26.168C56.8238 25.5851 56.1884 25.2679 55.6055 25.4712C55.6055 25.4712 55.6044 25.4712 55.6033 25.4712C54.0958 25.9882 52.4387 25.0837 51.4795 24.1568C50.4231 23.1373 49.6783 21.813 48.8899 20.4115L48.4488 19.6343C47.7978 18.5021 47.0184 17.2927 46.01 16.2843C47.9016 14.8584 49.1333 12.5982 49.1333 10.05V1.11667C49.1333 0.49915 48.6331 0 48.0167 0H43.55C42.9336 0 42.4333 0.49915 42.4333 1.11667V10.05C42.4333 10.6664 41.9319 11.1667 41.3167 11.1667H38.4803C39.5456 9.97965 40.2 8.41743 40.2 6.7C40.2 3.00495 37.195 0 33.5 0C29.805 0 26.8 3.00495 26.8 6.7C26.8 8.41743 27.4544 9.97965 28.5197 11.1667H25.6833C25.0681 11.1667 24.5667 10.6664 24.5667 10.05V1.11667C24.5667 0.49915 24.0664 0 23.45 0H18.9833C18.3669 0 17.8667 0.49915 17.8667 1.11667V10.05C17.8667 14.3592 21.373 17.8667 25.6833 17.8667H26.8V24.4494L23.6633 39.0833H23.45C23.115 39.0833 22.799 39.2341 22.5868 39.492L1.86483 64.7667H0V67H2.39302H64.607H67V64.7667H65.1352ZM46.5114 20.7488L46.9424 21.5092C47.7743 22.9888 48.6353 24.5187 49.9262 25.766C50.6844 26.4974 51.6994 27.1774 52.8396 27.5537C52.2276 28.2572 51.6548 29.0534 51.0908 29.8373C50.4588 30.7162 49.8625 31.5458 49.322 32.0673C47.3288 33.988 45.2887 34.1432 42.1665 33.6262L40.2 24.4494V17.8667H41.3167C42.2335 17.8667 43.11 17.7003 43.9286 17.4088C44.9905 18.2731 45.7979 19.5082 46.5114 20.7488ZM33.5 2.23333C35.9634 2.23333 37.9667 4.23663 37.9667 6.7C37.9667 9.16337 35.9634 11.1667 33.5 11.1667C31.0366 11.1667 29.0333 9.16337 29.0333 6.7C29.0333 4.23663 31.0366 2.23333 33.5 2.23333ZM29.0088 24.8012C29.0255 24.7241 29.0333 24.6448 29.0333 24.5667V16.75C29.0333 16.1325 28.5331 15.6333 27.9167 15.6333H25.6833C22.6047 15.6333 20.1 13.1286 20.1 10.05V2.23333H22.3333V10.05C22.3333 11.897 23.8364 13.4 25.6833 13.4H41.3167C43.1636 13.4 44.6667 11.897 44.6667 10.05V2.23333H46.9V10.05C46.9 13.1286 44.3953 15.6333 41.3167 15.6333H39.0833C38.4669 15.6333 37.9667 16.1325 37.9667 16.75V24.5667C37.9667 24.6448 37.9745 24.7241 37.9912 24.8012L41.052 39.0833H37.7221L34.5832 26.5298C34.4592 26.0317 34.0126 25.6833 33.5 25.6833C32.9874 25.6833 32.5408 26.0317 32.4168 26.5298L29.2779 39.0833H25.948L29.0088 24.8012ZM35.4196 39.0833H31.5805L33.5 31.404L35.4196 39.0833ZM23.9782 41.3167H24.5667H30.15H36.85H42.4333H43.0218L48.585 48.1026L44.6667 52.021L39.8728 47.2272C39.4362 46.7906 38.7305 46.7906 38.2938 47.2272L33.5 52.021L28.7062 47.2272C28.2695 46.7906 27.5638 46.7906 27.1272 47.2272L22.3333 52.021L18.4149 48.1026L23.9782 41.3167ZM4.75253 64.7667L16.9923 49.838L21.5438 54.3895C21.9805 54.8261 22.6862 54.8261 23.1228 54.3895L27.9167 49.5956L32.7105 54.3895C33.1471 54.8261 33.8529 54.8261 34.2895 54.3895L39.0833 49.5956L43.8772 54.3895C44.0949 54.6072 44.3808 54.7167 44.6667 54.7167C44.9525 54.7167 45.2384 54.6072 45.4562 54.3895L50.0077 49.838L62.2475 64.7667H4.75253Z" fill="#202020"/>
<path d="M34.6166 60.2999H32.3833V62.5333H34.6166V60.2999Z" fill="#202020"/>
<path d="M39.0834 60.2999H36.85V62.5333H39.0834V60.2999Z" fill="#202020"/>
<path d="M30.15 60.2999H27.9167V62.5333H30.15V60.2999Z" fill="#202020"/>
<path d="M14.5167 6.7C11.438 6.7 8.93333 4.19532 8.93333 1.11667C8.93333 0.49915 8.43307 0 7.81667 0C7.20027 0 6.7 0.49915 6.7 1.11667C6.7 4.19532 4.19532 6.7 1.11667 6.7C0.500267 6.7 0 7.19915 0 7.81667C0 8.43418 0.500267 8.93333 1.11667 8.93333C4.19532 8.93333 6.7 11.438 6.7 14.5167C6.7 15.1342 7.20027 15.6333 7.81667 15.6333C8.43307 15.6333 8.93333 15.1342 8.93333 14.5167C8.93333 11.438 11.438 8.93333 14.5167 8.93333C15.1331 8.93333 15.6333 8.43418 15.6333 7.81667C15.6333 7.19915 15.1331 6.7 14.5167 6.7ZM7.81667 10.4933C7.15672 9.39898 6.23435 8.47662 5.14002 7.81667C6.23435 7.15672 7.15672 6.23435 7.81667 5.14002C8.47662 6.23435 9.39898 7.15672 10.4933 7.81667C9.39898 8.47662 8.47662 9.39898 7.81667 10.4933Z" fill="#202020"/>
<path d="M65.8834 40.2C62.8047 40.2 60.3 37.6953 60.3 34.6167C60.3 33.9992 59.7998 33.5 59.1834 33.5C58.567 33.5 58.0667 33.9992 58.0667 34.6167C58.0667 37.6953 55.562 40.2 52.4834 40.2C51.867 40.2 51.3667 40.6992 51.3667 41.3167C51.3667 41.9342 51.867 42.4333 52.4834 42.4333C55.562 42.4333 58.0667 44.938 58.0667 48.0167C58.0667 48.6342 58.567 49.1333 59.1834 49.1333C59.7998 49.1333 60.3 48.6342 60.3 48.0167C60.3 44.938 62.8047 42.4333 65.8834 42.4333C66.4998 42.4333 67 41.9342 67 41.3167C67 40.6992 66.4998 40.2 65.8834 40.2ZM59.1834 43.9933C58.5234 42.899 57.601 41.9755 56.5067 41.3167C57.6022 40.6567 58.5234 39.7344 59.1834 38.64C59.8433 39.7344 60.7657 40.6578 61.86 41.3167C60.7657 41.9766 59.8433 42.899 59.1834 43.9933Z" fill="#202020"/>
<path d="M13.4 26.7999C11.1622 26.7999 9.04723 27.7614 7.57212 29.4118C6.93338 29.1628 6.25892 29.0333 5.58333 29.0333C2.50468 29.0333 0 31.5379 0 34.6166C0 35.0554 0.06365 35.5122 0.1943 36.0147C0.3216 36.506 0.766033 36.8499 1.27523 36.8499H19.9995C20.5444 36.8499 21.0101 36.4557 21.1005 35.9175C21.1787 35.4541 21.2167 35.0275 21.2167 34.6166C21.2167 30.3074 17.7103 26.7999 13.4 26.7999ZM2.23333 34.6166C2.23333 32.7696 3.73637 31.2666 5.58333 31.2666C6.18522 31.2666 6.767 31.4341 7.31082 31.7635C7.81667 32.0717 8.47215 31.9299 8.80827 31.4453C9.85347 29.9355 11.5698 29.0333 13.4 29.0333C16.4786 29.0333 18.9833 31.5379 18.9833 34.6166H2.23333Z" fill="#202020"/>
</svg>
