<svg width="60" height="61" viewBox="0 0 60 61" fill="none" xmlns="http://www.w3.org/2000/svg">
<path d="M58.7645 20.3334H39.6V1.24288C39.6 0.58248 39.0272 0 38.3645 0H21.5646C20.9019 0 20.4 0.58248 20.4 1.24288V20.3333H1.16459C0.501911 20.3333 0 20.9158 0 21.5762V38.3213C0 38.9818 0.501911 39.4705 1.16459 39.4705H20.4V59.8508C20.4 60.5113 20.9019 61 21.5646 61H38.3645C39.0272 61 39.6 60.5113 39.6 59.8508V39.4705H58.7645C59.4272 39.4705 60 38.9818 60 38.3213V21.5763C59.9999 20.9158 59.4272 20.3334 58.7645 20.3334ZM57.5999 37.0785H38.3645C37.7019 37.0785 37.1999 37.661 37.1999 38.3214V58.6079H22.8001V38.3214C22.8001 37.6609 22.2273 37.0785 21.5646 37.0785H2.40006V22.7255H21.5646C22.2273 22.7255 22.8001 22.2368 22.8001 21.5763V2.39211H37.2001V21.5763C37.2001 22.2368 37.702 22.7255 38.3647 22.7255H57.6001V37.0785H57.5999Z" fill="#202020"/>
</svg>
