<svg width="68" height="61" viewBox="0 0 68 61" fill="none" xmlns="http://www.w3.org/2000/svg">
<path d="M60.3511 0H7.13832C3.20219 0 0 3.20232 0 7.13832V36.3404V40.883C0 44.819 3.20219 48.0213 7.13832 48.0213H24.3743L22.2977 58.4043H15.5745C14.8577 58.4043 14.2766 58.9853 14.2766 59.7021C14.2766 60.419 14.8577 61 15.5745 61H51.9149C52.6317 61 53.2127 60.419 53.2127 59.7021C53.2127 58.9853 52.6317 58.4043 51.9149 58.4043H45.1917L43.115 48.0213H60.3511C64.2871 48.0213 67.4894 44.8192 67.4894 40.883V36.3404V7.13832C67.4894 3.20232 64.2872 0 60.3511 0ZM24.9448 58.4043L27.0215 48.0213H40.4679L42.5446 58.4043H24.9448ZM64.8937 40.883C64.8937 43.3878 62.856 45.4256 60.3511 45.4256H7.13832C4.63357 45.4256 2.59571 43.3879 2.59571 40.883V37.6384H64.8936V40.883H64.8937ZM64.8937 35.0427H2.59571V32.447H10.383C11.0998 32.447 11.6808 31.8659 11.6808 31.1491C11.6808 30.4323 11.0998 29.8513 10.383 29.8513H2.59571V7.13832C2.59571 4.63357 4.63344 2.59571 7.13832 2.59571H60.3511C62.8558 2.59571 64.8937 4.63344 64.8937 7.13832V35.0427Z" fill="#202020"/>
<path d="M33.7447 38.9363C32.3134 38.9363 31.149 40.1007 31.149 41.532C31.149 42.9632 32.3134 44.1277 33.7447 44.1277C35.1759 44.1277 36.3404 42.9632 36.3404 41.532C36.3404 40.1007 35.1759 38.9363 33.7447 38.9363Z" fill="#202020"/>
<path d="M44.3706 24.8564L41.6174 22.1032L43.9117 19.8089C44.2454 19.4753 44.3716 18.9869 44.2415 18.5333C44.1114 18.0799 43.7455 17.7327 43.2858 17.6265L31.3552 14.8732C30.9192 14.7729 30.4621 14.9037 30.1455 15.2202C29.8291 15.5367 29.698 15.9937 29.7985 16.4298L32.552 28.3603C32.6581 28.8199 33.0054 29.186 33.4589 29.3161C33.9126 29.4461 34.4007 29.3198 34.7345 28.9863L37.0287 26.6919L39.782 29.4451C40.0355 29.6986 40.3676 29.8253 40.6997 29.8253C41.0317 29.8253 41.364 29.6986 41.6174 29.4451L44.3706 26.6919C44.8773 26.1851 44.8773 25.3633 44.3706 24.8564ZM40.6997 26.6919L37.9464 23.9387C37.693 23.6852 37.3608 23.5585 37.0287 23.5585C36.6967 23.5585 36.3644 23.6852 36.111 23.9387L34.5548 25.495L32.7951 17.8696L40.4205 19.6293L38.8641 21.1855C38.3573 21.6923 38.3573 22.5142 38.8641 23.021L41.6174 25.7742L40.6997 26.6919Z" fill="#202020"/>
<path d="M28.4024 11.6415L27.1045 10.3436C26.5977 9.83679 25.7758 9.83679 25.269 10.3436C24.7621 10.8505 24.7621 11.6722 25.269 12.1792L26.567 13.477C26.8204 13.7305 27.1526 13.8572 27.4847 13.8572C27.8167 13.8572 28.149 13.7305 28.4024 13.477C28.9092 12.9703 28.9092 12.1484 28.4024 11.6415Z" fill="#202020"/>
<path d="M25.8719 15.1552H24.0365C23.3197 15.1552 22.7386 15.7362 22.7386 16.453C22.7386 17.1698 23.3197 17.7509 24.0365 17.7509H25.8719C26.5887 17.7509 27.1697 17.1698 27.1697 16.453C27.1697 15.7362 26.5887 15.1552 25.8719 15.1552Z" fill="#202020"/>
<path d="M28.4024 19.4286C27.8957 18.9218 27.0739 18.9218 26.567 19.4286L25.2691 20.7264C24.7623 21.2333 24.7623 22.0551 25.2691 22.562C25.5226 22.8154 25.8548 22.9421 26.1868 22.9421C26.5189 22.9421 26.8512 22.8154 27.1045 22.562L28.4024 21.2641C28.9092 20.7574 28.9092 19.9355 28.4024 19.4286Z" fill="#202020"/>
<path d="M37.4876 10.3436C36.9808 9.83679 36.159 9.83679 35.6521 10.3436L34.3542 11.6415C33.8474 12.1483 33.8474 12.9702 34.3542 13.477C34.6077 13.7305 34.9399 13.8572 35.272 13.8572C35.6042 13.8572 35.9364 13.7305 36.1897 13.477L37.4876 12.1792C37.9944 11.6725 37.9944 10.8506 37.4876 10.3436Z" fill="#202020"/>
<path d="M31.3785 7.81299C30.6617 7.81299 30.0806 8.39403 30.0806 9.11084V10.9462C30.0806 11.663 30.6617 12.2441 31.3785 12.2441C32.0953 12.2441 32.6763 11.663 32.6763 10.9462V9.11084C32.6763 8.39403 32.0953 7.81299 31.3785 7.81299Z" fill="#202020"/>
<path d="M15.5485 30.896C15.533 30.813 15.507 30.7313 15.4746 30.6521C15.4422 30.5742 15.4019 30.4989 15.3552 30.4288C15.3085 30.3573 15.2539 30.2911 15.1942 30.2314C15.1345 30.1717 15.0683 30.1173 14.9969 30.0705C14.9268 30.0238 14.8515 29.9835 14.7724 29.9511C14.6945 29.9186 14.6128 29.8927 14.5297 29.8771C14.3623 29.8434 14.191 29.8434 14.0236 29.8771C13.9405 29.8927 13.8588 29.9186 13.7809 29.9511C13.7017 29.9835 13.6264 30.0237 13.5564 30.0705C13.485 30.1172 13.4188 30.1717 13.3591 30.2314C13.2994 30.2911 13.2449 30.3573 13.1981 30.4288C13.1515 30.4989 13.1111 30.5742 13.0787 30.6521C13.0463 30.7313 13.0203 30.813 13.0048 30.896C12.9879 30.9791 12.9788 31.0648 12.9788 31.1491C12.9788 31.2335 12.9879 31.3192 13.0048 31.4022C13.0203 31.4853 13.0463 31.567 13.0787 31.6449C13.1111 31.7241 13.1513 31.7994 13.1981 31.8694C13.2448 31.9408 13.2994 32.007 13.3591 32.0667C13.4188 32.1264 13.485 32.1809 13.5564 32.2276C13.6265 32.2743 13.7018 32.3146 13.7809 32.3471C13.8588 32.3795 13.9405 32.4055 14.0236 32.4223C14.1066 32.4392 14.1923 32.447 14.2766 32.447C14.361 32.447 14.4467 32.4392 14.5297 32.4223C14.6128 32.4055 14.6945 32.3795 14.7724 32.3471C14.8516 32.3146 14.9269 32.2744 14.9969 32.2276C15.0683 32.181 15.1345 32.1264 15.1942 32.0667C15.2539 32.007 15.3084 31.9408 15.3552 31.8694C15.4018 31.7992 15.4422 31.724 15.4746 31.6449C15.507 31.567 15.533 31.4853 15.5485 31.4022C15.5654 31.3192 15.5745 31.2335 15.5745 31.1491C15.5745 31.0648 15.5654 30.9791 15.5485 30.896Z" fill="#202020"/>
</svg>
