<svg width="77" height="61" viewBox="0 0 77 61" fill="none" xmlns="http://www.w3.org/2000/svg">
<path d="M53.7511 0C50.9278 0 48.632 2.29597 48.632 5.1191V6.04444L18.7208 18.008C18.2358 18.2038 17.9171 18.6734 17.9171 19.1968V37.1139C17.9171 37.6373 18.2358 38.107 18.7208 38.3015L48.632 50.265V51.1916C48.632 54.0149 50.9279 56.3107 53.7511 56.3107C56.5742 56.3107 58.8702 54.0147 58.8702 51.1916V5.1191C58.8702 2.29582 56.5743 0 53.7511 0ZM56.3107 51.1914C56.3107 52.603 55.1628 53.7511 53.7511 53.7511C52.3393 53.7511 51.1914 52.6031 51.1914 51.1914V49.3997C51.1914 48.8749 50.8727 48.4053 50.3865 48.2108L20.4765 36.2473V20.0632L50.3865 8.0997C50.8729 7.90383 51.1914 7.43426 51.1914 6.91085V5.1191C51.1914 3.70753 52.3393 2.55947 53.7511 2.55947C55.1628 2.55947 56.3107 3.70738 56.3107 5.1191V51.1914Z" fill="#202020"/>
<path d="M19.1968 17.9169H10.2383C4.59314 17.9169 0 22.51 0 28.1552C0 33.8004 4.59314 38.3936 10.2383 38.3936H19.1968C19.9032 38.3936 20.4765 37.8216 20.4765 37.1138V19.1968C20.4765 18.4902 19.9032 17.9169 19.1968 17.9169ZM17.9171 35.8339H10.2383C6.0035 35.8339 2.55962 32.3901 2.55962 28.1552C2.55962 23.9204 6.0035 20.4765 10.2383 20.4765H17.9171V35.8339Z" fill="#202020"/>
<path d="M65.6736 23.1013L57.9949 20.5417C57.6033 20.4124 57.1771 20.4777 56.8417 20.7184C56.5077 20.959 56.3107 21.3454 56.3107 21.7564V34.5542C56.3107 34.965 56.5077 35.3515 56.8417 35.5934C57.0631 35.752 57.3256 35.8339 57.5904 35.8339C57.7261 35.8339 57.8631 35.8122 57.9949 35.7673L65.6736 33.2077C66.197 33.0349 66.549 32.546 66.549 31.9944V24.3157C66.5489 23.7642 66.197 23.2767 65.6736 23.1013ZM63.9894 31.0718L58.8703 32.7777V23.5313L63.9894 25.2373V31.0718Z" fill="#202020"/>
<path d="M25.4767 53.102L24.1918 51.8158L20.4383 36.8039C20.2962 36.2344 19.7842 35.8339 19.1969 35.8339H8.95842C8.56684 35.8339 8.1982 36.0131 7.95509 36.3177C7.71198 36.6248 7.6223 37.0254 7.71198 37.4068L12.8311 59.1632C12.9706 59.7507 13.494 60.1499 14.0763 60.1499C14.157 60.1499 14.2375 60.1423 14.3194 60.1256L23.9306 58.27C23.9433 58.2674 23.9562 58.2649 23.969 58.2623C24.5321 58.1356 25.0465 57.8541 25.4561 57.451C26.0397 56.8737 26.3635 56.1058 26.3686 55.2843C26.3738 54.4638 26.059 53.6908 25.4767 53.102ZM23.6581 55.6283C23.5928 55.6936 23.511 55.7384 23.4213 55.7613L15.0425 57.3803L10.5747 38.3933H18.1972L21.796 52.7807C21.8522 53.006 21.9688 53.2121 22.1325 53.3758L23.6632 54.9065C23.7925 55.0358 23.8103 55.188 23.8103 55.2687C23.8091 55.3468 23.7887 55.499 23.6581 55.6283Z" fill="#202020"/>
<path d="M76.7872 26.8755H69.1085V29.4351H76.7872V26.8755Z" fill="#202020"/>
<path d="M74.8457 11.7034L68.4475 15.5435L69.7646 17.7379L76.1628 13.8978L74.8457 11.7034Z" fill="#202020"/>
<path d="M69.7759 38.5754L68.459 40.7703L74.858 44.6097L76.175 42.4148L69.7759 38.5754Z" fill="#202020"/>
<path d="M51.1916 6.39868H48.6319V49.9114H51.1916V6.39868Z" fill="#202020"/>
<path d="M15.3574 23.036H12.7978V28.1551H15.3574V23.036Z" fill="#202020"/>
<path d="M10.2384 23.036H7.67874V28.1551H10.2384V23.036Z" fill="#202020"/>
</svg>
