<svg width="69" height="69" viewBox="0 0 69 69" fill="none" xmlns="http://www.w3.org/2000/svg">
<path d="M41.1076 39.2968C46.3059 35.6476 47.5616 28.4752 43.9122 23.277C40.2628 18.0789 33.0905 16.8231 27.8924 20.4725C22.6942 24.1219 21.4384 31.2941 25.0878 36.4923C25.8532 37.5825 26.8022 38.5315 27.8924 39.2968C21.7518 40.3524 17.2606 45.6721 17.25 51.9028V67.85C17.2499 68.485 17.7645 68.9999 18.3994 69C18.3996 69 18.3999 69 18.4 69H50.6C51.2349 69.0002 51.7499 68.4855 51.75 67.8506C51.75 67.8505 51.75 67.8502 51.75 67.85V51.9027C51.7392 45.6721 47.2482 40.3524 41.1076 39.2968ZM25.3 29.9C25.3 24.819 29.419 20.7 34.5 20.7C39.581 20.7 43.7 24.819 43.7 29.9C43.7 34.981 39.581 39.1 34.5 39.1C29.4215 39.0943 25.3057 34.9786 25.3 29.9ZM49.45 66.7H19.55V51.9027C19.5565 46.105 24.2549 41.4065 30.0528 41.4H38.9473C44.7451 41.4065 49.4435 46.105 49.45 51.9027V66.7Z" fill="#202020"/>
<path d="M35.65 6.90002H33.35V11.5H35.65V6.90002Z" fill="#202020"/>
<path d="M47.9633 9.73245L44.7106 12.9851L46.337 14.6114L49.5896 11.3588L47.9633 9.73245Z" fill="#202020"/>
<path d="M63.25 66.7H58.65V69H63.25V66.7Z" fill="#202020"/>
<path d="M63.25 55.2H58.65V57.5H63.25V55.2Z" fill="#202020"/>
<path d="M63.25 43.7H58.65V46H63.25V43.7Z" fill="#202020"/>
<path d="M61.6208 31.5293L57.2572 32.9847L57.9849 35.1665L62.3485 33.7111L61.6208 31.5293Z" fill="#202020"/>
<path d="M58.0478 19.6033L53.6843 21.0587L54.412 23.2405L58.7755 21.7851L58.0478 19.6033Z" fill="#202020"/>
<path d="M21.0379 9.73523L19.4114 11.3613L22.6636 14.6144L24.2901 12.9883L21.0379 9.73523Z" fill="#202020"/>
<path d="M10.35 66.7H5.75V69H10.35V66.7Z" fill="#202020"/>
<path d="M10.35 55.2H5.75V57.5H10.35V55.2Z" fill="#202020"/>
<path d="M10.35 43.7H5.75V46H10.35V43.7Z" fill="#202020"/>
<path d="M7.38127 31.5298L6.65424 33.7118L11.0183 35.1659L11.7453 32.9838L7.38127 31.5298Z" fill="#202020"/>
<path d="M10.9489 19.6114L10.2214 21.7935L14.5855 23.2484L15.3129 21.0664L10.9489 19.6114Z" fill="#202020"/>
<path d="M67.85 4.6C65.9455 4.59799 64.402 3.05454 64.4 1.15C64.4 0.514912 63.8851 0 63.25 0C62.6149 0 62.1 0.514912 62.1 1.15C62.098 3.05454 60.5545 4.59799 58.65 4.6C58.0149 4.6 57.5 5.11491 57.5 5.75C57.5 6.38509 58.0149 6.9 58.65 6.9C60.5545 6.90201 62.098 8.44546 62.1 10.35C62.1 10.9851 62.6149 11.5 63.25 11.5C63.8851 11.5 64.4 10.9851 64.4 10.35C64.402 8.44546 65.9455 6.90201 67.85 6.9C68.4851 6.9 69 6.38509 69 5.75C69 5.11491 68.4851 4.6 67.85 4.6ZM63.25 6.90331C62.9218 6.46645 62.5335 6.07818 62.0967 5.75C62.5335 5.42182 62.9218 5.03355 63.25 4.59669C63.5782 5.03355 63.9665 5.42182 64.4033 5.75C63.9665 6.07818 63.5782 6.46645 63.25 6.90331Z" fill="#202020"/>
<path d="M10.35 4.6C8.44546 4.59799 6.90201 3.05454 6.9 1.15C6.9 0.514912 6.38509 0 5.75 0C5.11491 0 4.6 0.514912 4.6 1.15C4.59799 3.05454 3.05454 4.59799 1.15 4.6C0.514912 4.6 0 5.11491 0 5.75C0 6.38509 0.514912 6.9 1.15 6.9C3.05454 6.90201 4.59799 8.44546 4.6 10.35C4.6 10.9851 5.11491 11.5 5.75 11.5C6.38509 11.5 6.9 10.9851 6.9 10.35C6.90201 8.44546 8.44546 6.90201 10.35 6.9C10.9851 6.9 11.5 6.38509 11.5 5.75C11.5 5.11491 10.9851 4.6 10.35 4.6ZM5.75 6.90331C5.42182 6.46645 5.03355 6.07818 4.59669 5.75C5.03355 5.42182 5.42182 5.03355 5.75 4.59669C6.07818 5.03355 6.46645 5.42182 6.90331 5.75C6.46645 6.07818 6.07818 6.46645 5.75 6.90331Z" fill="#202020"/>
</svg>
