<svg width="52" height="60" viewBox="0 0 52 60" fill="none" xmlns="http://www.w3.org/2000/svg">
<path d="M31 53C31.5523 53 32 52.5523 32 52C32 51.4477 31.5523 51 31 51C30.4477 51 30 51.4477 30 52C30 52.5523 30.4477 53 31 53Z" fill="#202020"/>
<path d="M35 53C35.5523 53 36 52.5523 36 52C36 51.4477 35.5523 51 35 51C34.4477 51 34 51.4477 34 52C34 52.5523 34.4477 53 35 53Z" fill="#202020"/>
<path d="M39 53C39.5523 53 40 52.5523 40 52C40 51.4477 39.5523 51 39 51C38.4477 51 38 51.4477 38 52C38 52.5523 38.4477 53 39 53Z" fill="#202020"/>
<path d="M29 34C29.5523 34 30 33.5523 30 33C30 32.4477 29.5523 32 29 32C28.4477 32 28 32.4477 28 33C28 33.5523 28.4477 34 29 34Z" fill="#202020"/>
<path d="M31 23C31.5523 23 32 22.5523 32 22C32 21.4477 31.5523 21 31 21C30.4477 21 30 21.4477 30 22C30 22.5523 30.4477 23 31 23Z" fill="#202020"/>
<path d="M35 23C35.5523 23 36 22.5523 36 22C36 21.4477 35.5523 21 35 21C34.4477 21 34 21.4477 34 22C34 22.5523 34.4477 23 35 23Z" fill="#202020"/>
<path d="M33 21C33.5523 21 34 20.5523 34 20C34 19.4477 33.5523 19 33 19C32.4477 19 32 19.4477 32 20C32 20.5523 32.4477 21 33 21Z" fill="#202020"/>
<path d="M35 19C35.5523 19 36 18.5523 36 18C36 17.4477 35.5523 17 35 17C34.4477 17 34 17.4477 34 18C34 18.5523 34.4477 19 35 19Z" fill="#202020"/>
<path d="M31 27C31.5523 27 32 26.5523 32 26C32 25.4477 31.5523 25 31 25C30.4477 25 30 25.4477 30 26C30 26.5523 30.4477 27 31 27Z" fill="#202020"/>
<path d="M29 25C29.5523 25 30 24.5523 30 24C30 23.4477 29.5523 23 29 23C28.4477 23 28 23.4477 28 24C28 24.5523 28.4477 25 29 25Z" fill="#202020"/>
<path d="M33 25C33.5523 25 34 24.5523 34 24C34 23.4477 33.5523 23 33 23C32.4477 23 32 23.4477 32 24C32 24.5523 32.4477 25 33 25Z" fill="#202020"/>
<path d="M29 37C29.5523 37 30 36.5523 30 36C30 35.4477 29.5523 35 29 35C28.4477 35 28 35.4477 28 36C28 36.5523 28.4477 37 29 37Z" fill="#202020"/>
<path d="M29 40C29.5523 40 30 39.5523 30 39C30 38.4477 29.5523 38 29 38C28.4477 38 28 38.4477 28 39C28 39.5523 28.4477 40 29 40Z" fill="#202020"/>
<path d="M29 43C29.5523 43 30 42.5523 30 42C30 41.4477 29.5523 41 29 41C28.4477 41 28 41.4477 28 42C28 42.5523 28.4477 43 29 43Z" fill="#202020"/>
<path d="M29 46C29.5523 46 30 45.5523 30 45C30 44.4477 29.5523 44 29 44C28.4477 44 28 44.4477 28 45C28 45.5523 28.4477 46 29 46Z" fill="#202020"/>
<path d="M29 49C29.5523 49 30 48.5523 30 48C30 47.4477 29.5523 47 29 47C28.4477 47 28 47.4477 28 48C28 48.5523 28.4477 49 29 49Z" fill="#202020"/>
<path d="M33 51C33.5523 51 34 50.5523 34 50C34 49.4477 33.5523 49 33 49C32.4477 49 32 49.4477 32 50C32 50.5523 32.4477 51 33 51Z" fill="#202020"/>
<path d="M37 51C37.5523 51 38 50.5523 38 50C38 49.4477 37.5523 49 37 49C36.4477 49 36 49.4477 36 50C36 50.5523 36.4477 51 37 51Z" fill="#202020"/>
<path d="M20 11H15C14.448 11 14 11.447 14 12C14 12.553 14.448 13 15 13H20C20.552 13 21 12.553 21 12C21 11.447 20.552 11 20 11Z" fill="#202020"/>
<path d="M20 18H10C9.448 18 9 18.447 9 19C9 19.553 9.448 20 10 20H20C20.552 20 21 19.553 21 19C21 18.447 20.552 18 20 18Z" fill="#202020"/>
<path d="M20 25H5C4.448 25 4 25.447 4 26C4 26.553 4.448 27 5 27H20C20.552 27 21 26.553 21 26C21 25.447 20.552 25 20 25Z" fill="#202020"/>
<path d="M20 32H1C0.448 32 0 32.447 0 33C0 33.553 0.448 34 1 34H20C20.552 34 21 33.553 21 33C21 32.447 20.552 32 20 32Z" fill="#202020"/>
<path d="M20 39H7C6.448 39 6 39.447 6 40C6 40.553 6.448 41 7 41H20C20.552 41 21 40.553 21 40C21 39.447 20.552 39 20 39Z" fill="#202020"/>
<path d="M20 46H13C12.448 46 12 46.447 12 47C12 47.553 12.448 48 13 48H20C20.552 48 21 47.553 21 47C21 46.447 20.552 46 20 46Z" fill="#202020"/>
<path d="M49 54H44V48C44 40.409 39.853 33.56 33.286 30C39.853 26.44 44 19.591 44 12V6H49C50.654 6 52 4.654 52 3C52 1.346 50.654 0 49 0H26C25.448 0 25 0.447 25 1C25 1.553 25.448 2 26 2H49C49.551 2 50 2.448 50 3C50 3.552 49.551 4 49 4H44H26C25.448 4 25 4.447 25 5C25 5.553 25.448 6 26 6H42V12C42 19.491 37.533 26.193 30.619 29.075C30.618 29.075 30.618 29.075 30.617 29.076C30.617 29.076 30.616 29.077 30.615 29.077C30.604 29.082 30.597 29.091 30.586 29.097C30.479 29.146 30.378 29.21 30.293 29.295C30.223 29.365 30.176 29.45 30.131 29.536C30.115 29.565 30.09 29.585 30.077 29.616C30.077 29.617 30.077 29.618 30.077 29.618C30.027 29.739 30.001 29.869 30.001 30.001C30.001 30.133 30.027 30.263 30.076 30.383C30.076 30.383 30.076 30.385 30.077 30.386C30.123 30.497 30.191 30.591 30.269 30.675C30.291 30.698 30.316 30.716 30.34 30.738C30.409 30.8 30.483 30.85 30.565 30.89C30.584 30.899 30.596 30.916 30.616 30.924C37.531 33.805 42 40.508 42 48V54C42 53.448 41.552 53 41 53C40.448 53 40 53.448 40 54H38C38 53.448 37.552 53 37 53C36.448 53 36 53.448 36 54H34C34 53.448 33.552 53 33 53C32.448 53 32 53.448 32 54H30C30 53.448 29.552 53 29 53C28.448 53 28 53.448 28 54H26C25.448 54 25 54.447 25 55C25 55.553 25.448 56 26 56H44H49C49.551 56 50 56.448 50 57C50 57.552 49.551 58 49 58H26C25.448 58 25 58.447 25 59C25 59.553 25.448 60 26 60H49C50.654 60 52 58.654 52 57C52 55.346 50.654 54 49 54Z" fill="#202020"/>
</svg>
