<svg width="65" height="65" viewBox="0 0 65 65" fill="none" xmlns="http://www.w3.org/2000/svg">
<path d="M60.0723 24.6785C54.1387 7.01546 31.5692 -0.864025 14.6496 0.0748209C14.4084 0.0881777 14.2408 0.202414 14.1325 0.354963C13.6218 0.36832 13.1019 0.399955 12.568 0.460763C12.0176 0.523681 11.7149 0.938095 11.6489 1.37008C0.502913 7.71002 -0.322751 27.4788 0.0747913 38.4603C0.446323 48.7282 3.91594 67.2035 17.98 64.7838C18.5723 64.6815 19.1371 64.5388 19.6893 64.3782C20.0218 64.5603 20.4475 64.665 20.8071 64.6952C24.9315 65.0365 30.5846 61.5297 34.2704 59.9831C42.8722 56.3739 54.5437 50.0203 57.0797 40.1418C57.0938 40.1373 57.1064 40.1401 57.1208 40.1341C60.5623 38.6961 63.4667 36.0191 64.382 32.3126C65.2755 28.6947 63.0312 26.1034 60.0723 24.6785ZM17.3129 62.3627C4.6699 65.3339 2.70363 44.1341 2.4973 36.3165C2.22841 26.1449 3.44423 9.48859 12.2394 2.38309C12.3399 2.41086 12.4422 2.43687 12.5684 2.4309C27.4528 1.73002 31.6402 18.3382 32.1316 30.2803C32.5843 41.2993 30.269 59.3177 17.3129 62.3627ZM57.3795 38.725C57.4432 38.3309 57.4962 37.9327 57.5303 37.5278C57.5753 36.9903 56.7247 36.7513 56.4976 37.2476C52.2695 46.4969 45.1155 52.8716 35.7196 56.8615C34.9847 57.1736 30.3562 58.8467 26.2619 60.4024C33.3745 53.1714 34.7087 39.1074 34.3738 30.2799C34.004 20.5442 30.3604 6.28646 20.961 1.77641C27.6029 2.4548 34.0848 4.15569 40.1513 7.07732C48.3187 11.0106 53.2227 17.0412 57.6189 24.3955C57.2765 24.8862 57.356 25.7266 58.1019 25.9878C58.3215 26.0648 58.4998 26.1597 58.7005 26.2447C58.8143 26.4437 58.9286 26.6391 59.0425 26.8398C59.3124 27.3168 59.8565 27.3186 60.2189 27.0658C64.5314 30.1341 61.7079 35.9597 57.3795 38.725Z" fill="#202020"/>
<path d="M15.6411 21.965C15.4429 21.7495 14.9856 21.8356 14.9378 22.1505C14.8197 22.9309 15.1374 23.6732 14.9961 24.4782C14.8165 25.5021 14.0766 26.281 13.1364 26.6641C12.588 26.8877 12.7989 27.7738 13.3873 27.5745C14.452 27.2138 15.3909 26.5421 15.8207 25.468C16.2211 24.468 16.4295 22.8212 15.6411 21.965Z" fill="#202020"/>
<path d="M26.4788 17.6741C26.1344 17.1327 25.3681 17.1282 25.0247 17.6741C24.038 19.2414 23.2166 20.9145 22.7477 22.6769C22.5983 22.4337 22.2858 22.2966 21.992 22.4758C22.0039 22.4449 22.0236 22.4171 22.0342 22.3852C22.1442 22.0453 21.7937 21.7268 21.4661 21.8171C20.625 22.0484 20.1336 22.8853 19.2102 22.9268C18.3343 22.9662 17.5983 21.9349 17.1484 21.325C16.7877 20.8365 15.9737 21.2769 16.3153 21.8119C16.941 22.7925 17.7579 23.9173 19.0025 24.0811C19.6254 24.163 20.3417 23.9915 20.9333 23.6439C19.7884 25.233 18.9877 27.4731 19.8327 29.0882C18.1002 29.5873 16.5585 30.7694 15.9353 32.3132C15.6573 31.7065 15.3483 31.1142 14.9983 30.5377C14.4482 29.6323 13.8436 28.1676 12.7406 27.8836C12.2489 27.7571 11.8358 28.1985 11.9452 28.679C12.1364 29.5198 12.9772 30.0523 13.5329 30.6798C14.4088 31.6685 15.0429 32.981 15.5034 34.2053C15.5469 34.3213 15.6201 34.3993 15.7023 34.4608C15.7747 34.8931 15.9111 35.3381 16.1382 35.793C16.4763 36.4703 17.3501 36.0566 17.4197 35.446C17.5694 34.1314 17.5153 32.7796 18.4127 31.7121C19.0106 31.001 19.8257 30.4889 20.6689 30.0594C20.8479 30.1979 21.0415 30.3293 21.2679 30.4443C21.7101 30.6689 22.4299 30.2892 22.2025 29.7254C22.1269 29.5381 22.0394 29.3599 21.9519 29.182C21.9385 29.084 21.9013 28.9908 21.8278 28.9219C21.5213 28.3138 21.2166 27.7212 21.1744 26.9999C21.0981 25.6917 21.7575 24.5142 22.5558 23.5286C22.3726 24.4709 22.2855 25.4351 22.3505 26.4256C22.3941 27.0871 23.4788 27.3289 23.5804 26.5919C23.9252 24.0892 24.5544 21.9078 25.7284 19.7778C27.5755 23.2952 28.2398 27.1219 28.378 31.097C26.0771 30.8214 24.7421 29.6506 23.4644 27.5282C23.0809 26.891 22.199 27.447 22.4897 28.098C23.864 31.1761 25.8145 32.6552 29.2219 32.7891C29.6641 32.8063 30.0356 32.406 30.0346 31.9764C30.0215 26.8861 29.2525 22.0305 26.4788 17.6741Z" fill="#202020"/>
<path d="M8.97504 12.6718C8.49911 12.3 7.82495 12.4008 7.62705 13.0276C6.31422 17.1826 5.55498 21.37 5.49207 25.7317C5.48469 26.248 6.03267 26.7088 6.54409 26.5331C8.50368 25.8603 10.9859 25.2195 11.8334 23.1362C12.0995 22.4821 11.1473 22.0269 10.7012 22.4772C9.66362 23.5246 8.5072 24.0796 7.21088 24.5496C7.33953 21.2111 7.87837 17.9457 8.81476 14.7407C10.961 17.0483 11.8591 20.0649 12.7375 23.1007C12.9034 23.6747 13.852 23.584 13.806 22.9563C13.516 19.0097 12.1705 15.1699 8.97504 12.6718Z" fill="#202020"/>
<path d="M22.8106 9.98873C21.354 6.21542 16.8352 5.28923 13.2619 5.39116C12.7181 5.40663 12.412 5.79819 12.3501 6.30294C11.7227 11.4116 14.451 15.567 16.9733 19.7508C17.3322 20.3463 18.1322 19.826 17.8774 19.2225C16.2144 15.2858 14.1255 11.5086 14.1649 7.17922C16.831 7.13282 19.5758 7.78731 21.0939 10.1852C22.9888 13.1779 20.2626 16.2425 18.1747 18.1543C17.2946 18.9603 18.5607 20.1273 19.4521 19.4317C22.2855 17.2201 24.1832 13.5448 22.8106 9.98873Z" fill="#202020"/>
<path d="M12.6383 33.1924C11.188 39.3924 12.1199 45.9176 10.1473 51.9785C5.3272 46.5985 5.41296 35.2803 12.1641 31.779C12.7494 31.4757 12.3413 30.5513 11.7213 30.7284C2.33456 33.4114 3.55777 48.8674 9.89664 54.0762C10.4056 54.4945 11.0548 54.3233 11.2903 53.7082C13.7895 47.1795 12.8935 40.3253 13.8854 33.5358C14.0025 32.7351 12.8327 32.3615 12.6383 33.1924Z" fill="#202020"/>
<path d="M19.947 33.3051C18.9509 32.7852 18.0686 34.291 19.0665 34.8116C19.166 34.8633 19.256 34.9223 19.3526 34.9761C14.3009 39.9719 13.9146 51.6303 15.1199 57.9031C15.2201 58.4254 15.8173 58.6803 16.2904 58.5681C27.946 55.7931 30.9126 39.0274 19.947 33.3051ZM16.8078 56.4476C15.7797 49.3835 17.5786 42.057 20.3175 35.5757C28.1291 40.9638 25.7386 53.5505 16.8078 56.4476Z" fill="#202020"/>
<path d="M38.5243 11.5712C37.8613 10.788 36.752 9.66394 35.5949 9.90472C34.4121 10.1508 34.3172 11.5775 34.3611 12.5483C34.3854 13.0808 35.1443 13.0735 35.1822 12.5483C35.2097 12.1655 35.2448 10.9114 35.8237 10.8647C36.5531 10.806 37.4561 11.7276 37.958 12.1374C38.3573 12.4629 38.8606 11.9687 38.5243 11.5712Z" fill="#202020"/>
<path d="M39.2733 17.7435C38.9056 18.0507 38.5418 18.1065 38.0838 17.9916C37.2093 17.7719 36.4388 17.1934 37.158 16.3224C37.5063 15.9009 36.9548 15.3188 36.5485 15.7129C36.1007 16.1473 35.7871 16.6545 35.8504 17.2988C35.9161 17.9684 36.3661 18.5157 36.9608 18.7811C38.0413 19.2626 39.1239 19.3821 39.9851 18.4552C40.4322 17.9726 39.7654 17.3322 39.2733 17.7435Z" fill="#202020"/>
<path d="M46.3433 15.7432C45.821 14.5478 45.0983 13.0314 43.7999 12.5045C42.6983 12.0574 41.8392 12.7928 41.2498 13.6666C40.8589 14.2469 41.77 14.745 42.1714 14.2054C42.6898 13.5091 43.1605 13.314 43.8101 13.9436C44.4719 14.5854 44.9426 15.5049 45.4044 16.2919C45.7682 16.9123 46.6175 16.3699 46.3433 15.7432Z" fill="#202020"/>
<path d="M45.3949 42.5995C44.9053 43.0491 44.4944 43.5503 44.112 44.092C43.7506 44.6034 43.4146 44.6934 42.8065 44.551C42.6912 44.524 42.5759 44.4614 42.4624 44.39C42.5728 44.3173 42.687 44.2512 42.7823 44.1496C43.1798 43.7261 42.6353 42.9317 42.1355 43.3113C41.7524 43.603 41.21 43.4523 40.8634 43.8009C40.2185 44.4491 41.2069 45.1542 41.6638 45.4867C42.4737 46.0765 43.5682 46.2646 44.474 45.7725C45.3253 45.3103 45.7496 44.2628 46.3535 43.5574C46.9169 42.8983 46.0452 42.0034 45.3949 42.5995Z" fill="#202020"/>
<path d="M45.4287 36.4082C44.7802 35.9622 44.1264 35.4187 43.3032 35.3681C42.3858 35.3122 41.6638 35.9115 41.0589 36.5316C40.6343 36.9664 40.2283 37.6374 40.72 38.1724C41.0747 38.5576 41.7232 38.3688 42.1348 38.6824C42.6276 39.0578 43.1967 38.2616 42.7816 37.8437C42.5809 37.642 42.3439 37.5158 42.0912 37.4135C42.1246 37.3804 42.157 37.3453 42.1893 37.3119C42.5759 36.9158 42.9925 36.611 43.557 36.7509C44.0624 36.8764 44.5566 37.134 45.0487 37.3084C45.6058 37.5063 45.8631 36.7073 45.4287 36.4082Z" fill="#202020"/>
<path d="M52.6765 39.1141C51.6365 39.5492 50.3971 40.1657 49.2561 39.8515C49.2252 39.1541 49.2266 38.4483 49.7064 37.8905C50.1331 37.3945 49.4551 36.6923 48.9806 37.1647C48.1099 38.0332 48.067 39.1352 48.0234 40.3035C48.0161 40.5011 48.1433 40.7622 48.3335 40.8441C50.0677 41.59 51.5381 40.9496 53.0716 40.0529C53.5595 39.7671 53.2249 38.8852 52.6765 39.1141Z" fill="#202020"/>
</svg>
