<svg width="58" height="67" viewBox="0 0 58 67" fill="none" xmlns="http://www.w3.org/2000/svg">
<path d="M32.6115 40.8441C32.6115 40.2345 32.1173 39.7402 31.5077 39.7402C30.8981 39.7402 30.4038 40.2345 30.4038 40.8441V45.2595C30.4038 45.8696 30.8981 46.3633 31.5077 46.3633C32.1173 46.3633 32.6115 45.8696 32.6115 45.2595V40.8441Z" fill="#202020"/>
<path d="M37.0269 40.8441C37.0269 40.2345 36.5326 39.7402 35.923 39.7402C35.3134 39.7402 34.8192 40.2345 34.8192 40.8441V45.2595C34.8192 45.8696 35.3134 46.3633 35.923 46.3633C36.5326 46.3633 37.0269 45.8696 37.0269 45.2595V40.8441Z" fill="#202020"/>
<path d="M39.2346 40.8441V45.2595C39.2346 45.8696 39.7289 46.3633 40.3385 46.3633C40.9481 46.3633 41.4423 45.8696 41.4423 45.2595V40.8441C41.4423 40.2345 40.9481 39.7402 40.3385 39.7402C39.7289 39.7402 39.2346 40.2345 39.2346 40.8441Z" fill="#202020"/>
<path d="M43.65 45.2595C43.65 45.8696 44.1442 46.3633 44.7538 46.3633C45.3634 46.3633 45.8577 45.8696 45.8577 45.2595V40.8441C45.8577 40.2345 45.3634 39.7402 44.7538 39.7402C44.1442 39.7402 43.65 40.2345 43.65 40.8441V45.2595Z" fill="#202020"/>
<path d="M14.9499 40.8441C14.9499 40.2345 14.4557 39.7402 13.8461 39.7402C13.2365 39.7402 12.7422 40.2345 12.7422 40.8441V45.2595C12.7422 45.8696 13.2365 46.3633 13.8461 46.3633C14.4557 46.3633 14.9499 45.8696 14.9499 45.2595V40.8441Z" fill="#202020"/>
<path d="M19.3653 40.8441C19.3653 40.2345 18.8711 39.7402 18.2615 39.7402C17.6519 39.7402 17.1577 40.2345 17.1577 40.8441V45.2595C17.1577 45.8696 17.6519 46.3633 18.2615 46.3633C18.8711 46.3633 19.3653 45.8696 19.3653 45.2595V40.8441Z" fill="#202020"/>
<path d="M23.7807 40.8441C23.7807 40.2345 23.2865 39.7402 22.6769 39.7402C22.0673 39.7402 21.573 40.2345 21.573 40.8441V45.2595C21.573 45.8696 22.0673 46.3633 22.6769 46.3633C23.2865 46.3633 23.7807 45.8696 23.7807 45.2595V40.8441Z" fill="#202020"/>
<path d="M28.1961 40.8441C28.1961 40.2345 27.7018 39.7402 27.0923 39.7402C26.4827 39.7402 25.9884 40.2345 25.9884 40.8441V45.2595C25.9884 45.8696 26.4827 46.3633 27.0923 46.3633C27.7018 46.3633 28.1961 45.8696 28.1961 45.2595V40.8441Z" fill="#202020"/>
<path d="M29.3 35.325C29.9095 35.325 30.4038 34.8313 30.4038 34.2211V29.8058C30.4038 29.1962 29.9095 28.7019 29.3 28.7019C28.6904 28.7019 28.1961 29.1962 28.1961 29.8058V34.2211C28.1961 34.8313 28.6904 35.325 29.3 35.325Z" fill="#202020"/>
<path d="M33.7154 35.325C34.325 35.325 34.8192 34.8313 34.8192 34.2211V29.8058C34.8192 29.1962 34.325 28.7019 33.7154 28.7019C33.1058 28.7019 32.6115 29.1962 32.6115 29.8058V34.2211C32.6115 34.8313 33.1058 35.325 33.7154 35.325Z" fill="#202020"/>
<path d="M38.1307 35.325C38.7403 35.325 39.2346 34.8313 39.2346 34.2211V29.8058C39.2346 29.1962 38.7403 28.7019 38.1307 28.7019C37.5211 28.7019 37.0269 29.1962 37.0269 29.8058V34.2211C37.0269 34.8313 37.5211 35.325 38.1307 35.325Z" fill="#202020"/>
<path d="M42.5461 35.325C43.1557 35.325 43.65 34.8313 43.65 34.2211V29.8058C43.65 29.1962 43.1557 28.7019 42.5461 28.7019C41.9365 28.7019 41.4423 29.1962 41.4423 29.8058V34.2211C41.4423 34.8313 41.9365 35.325 42.5461 35.325Z" fill="#202020"/>
<path d="M46.9615 35.325C47.5711 35.325 48.0654 34.8313 48.0654 34.2211V29.8058C48.0654 29.1962 47.5711 28.7019 46.9615 28.7019C46.3519 28.7019 45.8577 29.1962 45.8577 29.8058V34.2211C45.8577 34.8313 46.3519 35.325 46.9615 35.325Z" fill="#202020"/>
<path d="M33.7154 50.7788C33.1058 50.7788 32.6115 51.2731 32.6115 51.8827V56.298C32.6115 56.9082 33.1058 57.4019 33.7154 57.4019C34.325 57.4019 34.8192 56.9082 34.8192 56.298V51.8827C34.8192 51.2731 34.325 50.7788 33.7154 50.7788Z" fill="#202020"/>
<path d="M38.1307 50.7788C37.5211 50.7788 37.0269 51.2731 37.0269 51.8827V56.298C37.0269 56.9082 37.5211 57.4019 38.1307 57.4019C38.7403 57.4019 39.2346 56.9082 39.2346 56.298V51.8827C39.2346 51.2731 38.7403 50.7788 38.1307 50.7788Z" fill="#202020"/>
<path d="M42.5461 50.7788C41.9365 50.7788 41.4423 51.2731 41.4423 51.8827V56.298C41.4423 56.9082 41.9365 57.4019 42.5461 57.4019C43.1557 57.4019 43.65 56.9082 43.65 56.298V51.8827C43.65 51.2731 43.1557 50.7788 42.5461 50.7788Z" fill="#202020"/>
<path d="M16.0538 50.7788C15.4442 50.7788 14.9499 51.2731 14.9499 51.8827V56.298C14.9499 56.9082 15.4442 57.4019 16.0538 57.4019C16.6634 57.4019 17.1576 56.9082 17.1576 56.298V51.8827C17.1576 51.2731 16.6634 50.7788 16.0538 50.7788Z" fill="#202020"/>
<path d="M20.4692 50.7788C19.8596 50.7788 19.3653 51.2731 19.3653 51.8827V56.298C19.3653 56.9082 19.8596 57.4019 20.4692 57.4019C21.0788 57.4019 21.573 56.9082 21.573 56.298V51.8827C21.573 51.2731 21.0788 50.7788 20.4692 50.7788Z" fill="#202020"/>
<path d="M24.8846 50.7788C24.275 50.7788 23.7807 51.2731 23.7807 51.8827V56.298C23.7807 56.9082 24.275 57.4019 24.8846 57.4019C25.4942 57.4019 25.9884 56.9082 25.9884 56.298V51.8827C25.9884 51.2731 25.4942 50.7788 24.8846 50.7788Z" fill="#202020"/>
<path d="M29.3 50.7788C28.6904 50.7788 28.1961 51.2731 28.1961 51.8827V56.298C28.1961 56.9082 28.6904 57.4019 29.3 57.4019C29.9095 57.4019 30.4038 56.9082 30.4038 56.298V51.8827C30.4038 51.2731 29.9095 50.7788 29.3 50.7788Z" fill="#202020"/>
<path d="M56.8961 15.4557H55.2204C54.2934 12.8395 52.3142 10.7299 49.7616 9.63841C46.678 3.63894 40.4602 -0.095172 33.7153 0.00184582C28.1848 -0.0455851 22.9372 2.44346 19.4758 6.75645C19.3653 6.74459 19.2548 6.73866 19.1443 6.72788C18.9907 6.71333 18.8387 6.70039 18.684 6.68907C18.1731 6.65188 17.6632 6.62493 17.1576 6.62493C9.78373 6.62493 3.69802 10.4965 2.90139 15.4557H1.70376C1.09417 15.4557 0.599915 15.95 0.599915 16.5596V20.975C0.599915 21.5851 1.09417 22.0788 1.70376 22.0788H2.96068L9.44255 65.2927C9.5234 65.8328 9.98801 66.2327 10.5345 66.2327H48.0654C48.6119 66.2327 49.076 65.8328 49.1568 65.2927L55.6387 22.0788H56.8961C57.5057 22.0788 58 21.5851 58 20.975V16.5596C58 15.95 57.5057 15.4557 56.8961 15.4557ZM18.5671 8.8903C18.8112 8.90916 19.0549 8.94096 19.3001 8.96953C22.3157 9.20722 25.1686 10.435 27.4146 12.4611C27.6911 12.7484 28.1012 12.8643 28.4877 12.7635C28.8736 12.6632 29.1754 12.3625 29.2768 11.9765C29.3786 11.5906 29.2638 11.1799 28.9776 10.9023C27.026 9.06493 24.6135 7.78969 21.9956 7.21243C25.0376 3.98874 29.2832 2.17666 33.7153 2.20954C38.8993 2.1481 43.7815 4.64361 46.7669 8.88275C45.6286 8.77873 44.4811 8.87143 43.374 9.15602C42.7833 9.30855 42.4281 9.91114 42.5806 10.5013C42.7332 11.0915 43.3352 11.4467 43.9259 11.2942C45.4184 10.8991 46.9949 10.9611 48.4518 11.4721C48.4869 11.4968 48.5235 11.5189 48.5618 11.5383C50.4326 12.2439 51.9563 13.6485 52.8117 15.4557H5.15436C5.17323 15.3711 5.19155 15.2849 5.21473 15.2008C5.24384 15.0984 5.2724 14.9954 5.30744 14.8941C5.35648 14.7518 5.41793 14.6127 5.47776 14.4737C5.5198 14.3777 5.55807 14.2813 5.60658 14.1875C5.67988 14.043 5.76558 13.9018 5.85182 13.7606C5.90356 13.6776 5.94991 13.5914 6.00543 13.5089C6.11592 13.3488 6.23719 13.193 6.36278 13.0384C6.40913 12.9812 6.45009 12.9203 6.4986 12.8632C6.6824 12.6492 6.87751 12.4455 7.08286 12.2525C7.12706 12.2105 7.1788 12.1711 7.22516 12.1291C7.39386 11.9765 7.56634 11.8267 7.75175 11.6817C7.83637 11.6143 7.93015 11.5529 8.01963 11.4877C8.17539 11.3772 8.33224 11.2602 8.49879 11.1562C8.60928 11.0867 8.71977 11.0231 8.83026 10.9568C8.99142 10.8598 9.15258 10.7633 9.32128 10.6717C9.44255 10.607 9.5676 10.5461 9.69211 10.4841C9.86189 10.3995 10.0333 10.3165 10.2101 10.2367C10.3421 10.1785 10.4769 10.1267 10.6138 10.0658C10.7927 9.99307 10.9749 9.92138 11.1657 9.85401C11.3069 9.80334 11.4508 9.75214 11.5953 9.70471C11.7861 9.64219 11.9806 9.58344 12.1768 9.52631C12.3251 9.48426 12.4727 9.44114 12.6253 9.40234C12.8279 9.34952 13.0354 9.30316 13.2446 9.25789C13.3966 9.22447 13.5469 9.19052 13.7011 9.16087C13.9221 9.11883 14.1431 9.08433 14.3738 9.05038C14.5225 9.02828 14.6697 9.00295 14.8206 8.98408C15.0734 8.95228 15.3315 8.93018 15.5935 8.90916C15.7223 8.89785 15.8495 8.88275 15.9794 8.87467C16.3605 8.84718 16.7566 8.83263 17.1576 8.83263C17.6319 8.83263 18.1025 8.85473 18.5671 8.8903ZM38.8061 19.9573L29.8152 23.9556L26.6702 17.6634H43.968L38.8061 19.9573ZM23.7807 29.8057V30.9096H12.7422V17.6634H23.7807V29.8057ZM12.7422 34.2211V33.1173H23.7807V35.325H12.7422V34.2211ZM2.80761 17.6634H10.5345V19.8711H2.80761V17.6634ZM47.1146 64.025H11.4848L5.19263 22.0788H10.5345V36.4288C10.5345 37.039 11.0288 37.5327 11.6384 37.5327H24.8846C25.4942 37.5327 25.9884 37.039 25.9884 36.4288V21.2358L28.312 25.8841C28.5756 26.4117 29.2078 26.6386 29.7468 26.3993L39.4696 22.0788H53.4067L47.1146 64.025ZM55.7923 19.8711H44.4369L49.4042 17.6634H55.7923V19.8711Z" fill="#202020"/>
</svg>
