<svg width="64" height="56" viewBox="0 0 64 56" fill="none" xmlns="http://www.w3.org/2000/svg">
<path d="M31.7241 55.9999C30.7636 55.9999 29.8612 55.6248 29.185 54.9433L5.27466 30.8713C1.87339 27.4563 0 22.9117 0 18.0777C0 8.1095 8.05781 0.000976562 17.9626 0.000976562C22.7385 0.000976562 27.2355 1.87437 30.6262 5.27775C31.2084 5.86418 32.189 5.86312 32.7712 5.27881C36.1608 1.87437 40.6589 0.000976562 45.4348 0.000976562C55.3396 0.000976562 63.3974 8.11056 63.3974 18.0777C63.3974 22.8272 61.5874 27.3009 58.296 30.6959C58.258 30.7529 58.2146 30.8058 58.165 30.8554L34.2642 54.9412C33.5879 55.6237 32.6856 55.9999 31.7262 55.9999C31.7251 55.9999 31.7251 55.9999 31.7241 55.9999ZM17.9626 2.11317C9.22326 2.11317 2.11325 9.2739 2.11325 18.0766C2.11325 22.3486 3.76792 26.3627 6.77295 29.3793L30.6843 53.4524C30.9622 53.7324 31.331 53.8856 31.7241 53.8856H31.7251C32.1182 53.8856 32.488 53.7313 32.7648 53.4524L56.5272 29.5051C56.5631 29.4512 56.6044 29.4005 56.6519 29.3529C59.639 26.3384 61.2841 22.3327 61.2841 18.0756C61.2831 9.27284 54.1731 2.11211 45.4337 2.11211C41.2242 2.11211 37.2586 3.76467 34.2673 6.76759C32.8863 8.15388 30.5089 8.15494 29.1279 6.76654C26.1387 3.76573 22.1722 2.11317 17.9626 2.11317Z" fill="#202020"/>
<path d="M31.7251 55.9968C31.7114 55.9968 31.6976 55.9968 31.6839 55.9968C31.4081 55.9936 31.144 55.8827 30.9485 55.6872L28.8374 53.5771C28.6387 53.3785 28.5278 53.1112 28.5278 52.8301C28.5278 52.549 28.6387 52.2807 28.8374 52.0831L34.4301 46.4904L28.8374 40.8977C28.4242 40.4845 28.4242 39.8167 28.8374 39.4036L34.4301 33.8109L28.8374 28.2182C28.4242 27.805 28.4242 27.1373 28.8374 26.7241L34.4301 21.1314L28.8374 15.5387C28.4242 15.1256 28.4242 14.4578 28.8374 14.0446L34.4301 8.45193L32.7585 6.78035C32.5419 6.56374 32.4299 6.26472 32.451 5.9583C32.4711 5.68252 32.5979 5.42682 32.8029 5.24402C36.1883 1.86283 40.6715 0 45.4327 0C55.3375 0 63.3953 8.10958 63.3953 18.0767C63.3953 22.8283 61.5842 27.3021 58.2907 30.6981C58.2537 30.7541 58.2115 30.8069 58.1629 30.8545L34.2631 54.9402C33.589 55.6238 32.6877 55.9968 31.7251 55.9968ZM31.0795 52.8301L32.0886 53.8392C32.3432 53.7747 32.5757 53.6426 32.7648 53.4535L56.5262 29.5062C56.5621 29.4523 56.6033 29.4016 56.6508 29.354C59.6379 26.3395 61.2831 22.3338 61.2831 18.0767C61.2831 9.27398 54.1731 2.11325 45.4337 2.11325C41.5697 2.11325 37.9106 3.50588 35.0228 6.05656L36.6712 7.7049C37.0832 8.11804 37.0832 8.78582 36.6712 9.19896L31.0795 14.7917L36.6712 20.3844C37.0843 20.7975 37.0843 21.4653 36.6712 21.8784L31.0795 27.4711L36.6712 33.0639C37.0843 33.477 37.0843 34.1448 36.6712 34.5579L31.0795 40.1506L36.6712 45.7433C37.0843 46.1565 37.0843 46.8243 36.6712 47.2374L31.0795 52.8301Z" fill="#202020"/>
</svg>
