<svg width="60" height="80" viewBox="0 0 60 80" fill="none" xmlns="http://www.w3.org/2000/svg">
<path d="M39.9117 10.5452C39.2137 7.74295 36.6603 5.7041 33.7158 5.7041C32.1346 5.7041 30.6006 6.3022 29.4335 7.35734C28.2658 6.3022 26.7324 5.7041 25.1506 5.7041C22.2067 5.7041 19.6527 7.74295 18.9547 10.5452C15.9558 11.9829 14.0519 14.98 14.0519 18.3513C14.0519 20.6274 14.9442 22.7958 16.5236 24.4085C16.4195 24.8837 16.3668 25.3704 16.3668 25.862C16.3668 29.5208 19.2847 32.5106 22.9156 32.6269C23.613 34.2837 25.2438 35.4055 27.1107 35.4055L27.1471 35.4049C28.023 35.3982 28.8233 35.061 29.4329 34.5132C30.0401 35.061 30.838 35.3982 31.7091 35.4049L31.7557 35.4055C33.6232 35.4055 35.2541 34.2837 35.9514 32.6269C39.5824 32.5106 42.5002 29.5208 42.5002 25.862C42.5002 25.3704 42.4475 24.8837 42.3434 24.4085C43.9222 22.7958 44.8145 20.6274 44.8145 18.3513C44.8145 14.98 42.9106 11.9829 39.9117 10.5452ZM27.1289 33.0803C27.1253 33.0803 27.1144 33.0809 27.1107 33.0809C26.3916 33.0809 25.7463 32.7401 25.3364 32.2013C26.1216 31.8902 26.8492 31.4264 27.4849 30.8259C27.951 30.3852 27.9722 29.6497 27.5315 29.183C27.0902 28.7163 26.3547 28.6957 25.8879 29.1364C25.2402 29.7484 24.4538 30.1431 23.6118 30.2799C23.4513 30.2968 23.2915 30.3059 23.1354 30.3059C20.6849 30.3059 18.6914 28.3125 18.6914 25.8614C18.6914 25.3735 18.7701 24.894 18.9251 24.4364C19.436 23.1124 20.568 22.0912 21.8883 21.725C22.1117 22.4526 22.4634 23.1282 22.9307 23.7081C23.1608 23.9926 23.4968 24.1409 23.8364 24.1409C24.0924 24.1409 24.3503 24.0568 24.5652 23.8837C25.0652 23.4805 25.1433 22.7492 24.7408 22.2492C24.2196 21.6021 23.932 20.7461 23.932 19.838C23.932 19.0602 24.1396 18.3259 24.5331 17.7157C24.8806 17.1763 24.725 16.4571 24.185 16.109C23.6457 15.7622 22.9259 15.9177 22.5784 16.4571C22.0203 17.324 21.6934 18.3325 21.6226 19.3961C19.9899 19.7466 18.5534 20.7098 17.583 22.0664C16.8069 20.9955 16.3765 19.6994 16.3765 18.3513C16.3765 15.724 17.9571 13.4073 20.4022 12.4484C20.7938 12.2953 21.0717 11.9423 21.1292 11.5258C21.4052 9.53179 23.1341 8.02868 25.1506 8.02868C26.2802 8.02868 27.3293 8.48149 28.1047 9.30418C28.2119 9.41738 28.2712 9.56811 28.2712 9.72732V11.7323C26.7881 11.7831 25.3637 12.3576 24.245 13.3825C23.7716 13.8165 23.7401 14.5514 24.1735 15.0248C24.403 15.2754 24.7159 15.402 25.0307 15.402C25.311 15.402 25.5925 15.3015 25.8159 15.0969C26.5005 14.4691 27.3668 14.1101 28.2706 14.0599V31.9095C28.2706 32.55 27.7585 33.0754 27.1289 33.0803ZM41.2834 22.0664C40.313 20.7098 38.8765 19.7466 37.2439 19.3961C37.173 18.3325 36.8461 17.324 36.288 16.4571C35.9405 15.9177 35.2214 15.7622 34.6814 16.109C34.1414 16.4571 33.9858 17.1763 34.3333 17.7157C34.7262 18.3259 34.9344 19.0602 34.9344 19.838C34.9344 20.7461 34.6469 21.6021 34.1257 22.2492C33.7225 22.7492 33.8012 23.4805 34.3012 23.8837C34.5161 24.0568 34.774 24.1409 35.0301 24.1409C35.3691 24.1409 35.7056 23.9926 35.9357 23.7081C36.403 23.1282 36.7547 22.4526 36.9781 21.725C38.2984 22.0912 39.4304 23.1124 39.9407 24.437C40.0957 24.8946 40.175 25.3735 40.175 25.8614C40.175 28.3125 38.181 30.3059 35.7305 30.3059C35.5749 30.3059 35.4145 30.2968 35.2541 30.2799C34.4126 30.1431 33.6256 29.7484 32.9779 29.1364C32.5112 28.6957 31.7757 28.7163 31.335 29.183C30.8936 29.6497 30.9148 30.3852 31.3816 30.8265C32.0166 31.4264 32.7442 31.8902 33.5294 32.2013C33.1196 32.7401 32.4742 33.0809 31.7551 33.0809L31.7375 33.0803C31.1073 33.0754 30.5952 32.55 30.5952 31.9095V14.0593C31.499 14.1095 32.3653 14.4691 33.0505 15.0963C33.2733 15.3009 33.5548 15.402 33.8351 15.402C34.1499 15.402 34.4635 15.2754 34.6923 15.0248C35.1263 14.5514 35.0942 13.8165 34.6208 13.3825C33.5021 12.3576 32.0783 11.7825 30.5952 11.7317V9.72732C30.5952 9.56811 30.6539 9.41798 30.7611 9.30418C31.5365 8.48149 32.5856 8.02868 33.7152 8.02868C35.7323 8.02868 37.4606 9.5324 37.7366 11.5258C37.7941 11.9423 38.072 12.2953 38.4637 12.449C40.9087 13.4073 42.4893 15.724 42.4893 18.3513C42.4899 19.6994 42.0595 20.9955 41.2834 22.0664Z" fill="#202020"/>
<path d="M53.1564 42.2884C53.051 42.111 52.8973 41.9603 52.7169 41.8598L44.1099 37.0913C44.7739 36.0144 45.4931 34.9641 46.268 33.9471C49.0902 30.2429 50.5818 25.8165 50.5818 21.148C50.5818 16.4879 49.0944 12.0664 46.2795 8.36339C45.8914 7.85186 45.162 7.75258 44.6511 8.14061C44.1395 8.52925 44.0402 9.25871 44.4289 9.76964C46.9339 13.0652 48.2578 17.0001 48.2578 21.148C48.2578 25.3038 46.9302 29.2422 44.4192 32.5384C40.4505 37.7469 37.819 43.7763 36.7917 50H22.0778C21.059 43.7146 18.4541 37.7221 14.529 32.645C11.8436 29.172 10.4561 24.831 10.622 20.4215C10.9858 10.7406 18.8488 2.80013 28.5218 2.3455C33.0717 2.12939 37.5369 3.55986 41.0921 6.36933C41.5958 6.76705 42.3271 6.68109 42.7248 6.17804C43.1231 5.67438 43.0372 4.9431 42.5335 4.54538C38.5381 1.38843 33.5233 -0.215773 28.4129 0.0233438C23.1396 0.271541 18.1708 2.49382 14.4206 6.28095C10.6716 10.0675 8.49715 15.0587 8.2992 20.3344C8.11275 25.2868 9.67215 30.1642 12.6899 34.067C13.4393 35.0368 14.1367 36.0423 14.782 37.0774L6.14956 41.8604C5.97038 41.9596 5.81298 42.111 5.71007 42.289L0.37201 51.3869C0.0015294 52.0183 -0.0965389 52.7556 0.0971762 53.4627C0.290286 54.1692 0.749754 54.7539 1.39083 55.1093L5.55026 57.4139V65.5977C5.55026 66.0203 5.77969 66.4095 6.14956 66.6147L28.8699 79.202C29.2162 79.3933 29.6508 79.3939 29.9965 79.202L44.2297 71.3166C44.7909 71.0054 44.9943 70.2984 44.6831 69.7366C44.372 69.1754 43.6643 68.972 43.1031 69.2832L30.5958 76.2127V59.7421L33.8072 65.2158C34.3109 66.0748 35.2014 66.5524 36.124 66.5524C36.5683 66.5524 37.0193 66.4416 37.4388 66.2098L50.9916 58.7015V64.9125L47.811 66.6747C47.2499 66.9858 47.0465 67.6929 47.3576 68.2547C47.5701 68.6373 47.9666 68.8534 48.3752 68.8534C48.5659 68.8534 48.7596 68.8068 48.9376 68.7081L52.7169 66.6141C53.0867 66.4095 53.3162 66.0197 53.3162 65.5971V57.4133L57.4756 55.1087C58.1167 54.7539 58.5761 54.1692 58.7693 53.4621C58.963 52.7556 58.8649 52.0183 58.4944 51.3863L53.1564 42.2884ZM29.4329 54.1359L26.1646 52.3246H32.7019L29.4329 54.1359ZM49.7554 42.8768L39.4256 48.5992C40.1423 45.3248 41.3325 42.1255 42.95 39.1066L49.7554 42.8768ZM15.9473 39.0896C17.5564 42.0837 18.7398 45.2909 19.4511 48.6053L9.11098 42.8768L15.9473 39.0896ZM7.87484 58.7015L10.0529 59.908C10.2315 60.0072 10.4246 60.0539 10.6153 60.0539C11.0239 60.0539 11.421 59.8377 11.6329 59.4545C11.9441 58.8934 11.7407 58.1857 11.1795 57.8746L2.5168 53.0753C2.39815 53.0093 2.35456 52.9052 2.33882 52.8489C2.32308 52.7926 2.30795 52.6806 2.37636 52.5631L7.14114 44.4434L27.8275 55.9041L23.0542 64.0395C22.9513 64.2145 22.7316 64.275 22.5542 64.1764L15.6198 60.3347C15.0586 60.0242 14.351 60.227 14.0398 60.7882C13.7293 61.3499 13.9321 62.057 14.4932 62.3681L21.4276 66.2098C21.8465 66.4422 22.2975 66.5524 22.7419 66.5524C23.6644 66.5524 24.5549 66.0748 25.0592 65.2164L28.2706 59.7427V76.2121L7.87484 64.9125V58.7015ZM56.527 52.8489C56.5119 52.9052 56.4683 53.0093 56.349 53.0753L36.3122 64.1764C36.1342 64.275 35.9145 64.2145 35.8122 64.0395L31.0383 55.9041L51.7253 44.4434L56.4895 52.5631C56.5585 52.6806 56.5427 52.7926 56.527 52.8489Z" fill="#202020"/>
<path d="M5.28694 33.6813H5.29239C5.93468 33.6783 6.45226 33.1553 6.44924 32.5136L6.44802 32.2242C6.44439 31.5838 5.92439 31.0674 5.28573 31.0674C5.28331 31.0674 5.28149 31.0674 5.27967 31.0674C4.63799 31.0704 4.1198 31.5934 4.12282 32.2357L4.12464 32.5251C4.12767 33.165 4.64707 33.6813 5.28694 33.6813Z" fill="#202020"/>
<path d="M4.13432 36.7911C4.13735 37.4316 4.65735 37.9479 5.29662 37.9479H5.30207C5.94436 37.9449 6.46194 37.4219 6.45892 36.7796L6.45771 36.4902C6.45407 35.8504 5.93467 35.334 5.29541 35.334C5.29359 35.334 5.29117 35.334 5.28935 35.334C4.64767 35.337 4.12948 35.86 4.13311 36.5017L4.13432 36.7911Z" fill="#202020"/>
<path d="M7.27917 35.6658H7.28583L7.57459 35.6646C8.21688 35.6609 8.73446 35.1379 8.73144 34.4962C8.72781 33.8563 8.2084 33.34 7.56914 33.34C7.56672 33.34 7.5649 33.34 7.56309 33.34L7.27372 33.3412C6.63143 33.3448 6.11385 33.8678 6.11687 34.5095C6.1205 35.1494 6.63991 35.6658 7.27917 35.6658Z" fill="#202020"/>
<path d="M3.01259 35.6754H3.01925L3.30861 35.6742C3.9503 35.6706 4.46789 35.1475 4.46486 34.5059C4.46123 33.866 3.94182 33.3496 3.30256 33.3496C3.30074 33.3496 3.29832 33.3496 3.29651 33.3496L3.00714 33.3508C2.36485 33.3545 1.84727 33.8775 1.8509 34.5192C1.85393 35.159 2.37393 35.6754 3.01259 35.6754Z" fill="#202020"/>
<path d="M55.3889 24.6531L55.3901 24.9425C55.3938 25.5823 55.9132 26.0987 56.5524 26.0987H56.5585C57.2002 26.0957 57.7184 25.5726 57.7153 24.931L57.7135 24.6416C57.7105 24.0017 57.1905 23.4847 56.5512 23.4847C56.5494 23.4847 56.5476 23.4847 56.5458 23.4847C55.9035 23.4884 55.3859 24.0114 55.3889 24.6531Z" fill="#202020"/>
<path d="M56.5627 30.3659H56.5688C57.2105 30.3623 57.7281 29.8392 57.725 29.1976L57.7232 28.9082C57.7202 28.2677 57.2002 27.7513 56.5615 27.7513C56.5591 27.7513 56.5573 27.7513 56.5549 27.7513C55.9132 27.755 55.3956 28.278 55.3986 28.9203L55.4004 29.2091C55.4035 29.8495 55.9235 30.3659 56.5627 30.3659Z" fill="#202020"/>
<path d="M58.8352 25.7572C58.8334 25.7572 58.8316 25.7572 58.8292 25.7572L58.5398 25.7584C57.8981 25.762 57.3806 26.2845 57.383 26.9262C57.3866 27.5666 57.906 28.0836 58.5453 28.0836H58.5507L58.8401 28.0818C59.4824 28.0788 60 27.5557 59.9969 26.9141C59.9945 26.2742 59.4745 25.7572 58.8352 25.7572Z" fill="#202020"/>
<path d="M54.2787 28.0928H54.2848L54.5735 28.0916C55.2158 28.0885 55.7334 27.5655 55.731 26.9238C55.7273 26.2839 55.2079 25.767 54.5687 25.767C54.5669 25.767 54.565 25.767 54.5632 25.767L54.2739 25.7682C53.6316 25.7712 53.114 26.2942 53.1164 26.9359C53.1194 27.5764 53.6394 28.0928 54.2787 28.0928Z" fill="#202020"/>
<path d="M7.27554 6.04011H7.28159C7.92328 6.03648 8.44086 5.51344 8.43784 4.87176L8.43602 4.58239C8.43299 3.94252 7.91299 3.42615 7.27433 3.42615C7.27191 3.42615 7.27009 3.42615 7.26767 3.42615C6.62598 3.42917 6.1084 3.95221 6.11142 4.5945L6.11324 4.88386C6.11627 5.52373 6.63627 6.04011 7.27554 6.04011Z" fill="#202020"/>
<path d="M8.4457 8.84887C8.44268 8.209 7.92267 7.69263 7.28401 7.69263C7.28159 7.69263 7.27977 7.69263 7.27735 7.69263C6.63567 7.69565 6.11808 8.21869 6.12111 8.86098L6.12292 9.15034C6.12595 9.79021 6.64596 10.3066 7.28522 10.3066H7.29128C7.93296 10.303 8.45055 9.77992 8.44752 9.13824L8.4457 8.84887Z" fill="#202020"/>
<path d="M9.26778 8.02453H9.27443L9.5638 8.02272C10.2055 8.01969 10.7231 7.49666 10.72 6.85436C10.7164 6.2145 10.197 5.69812 9.55774 5.69812C9.55593 5.69812 9.55351 5.69812 9.55169 5.69812L9.26233 5.69994C8.62004 5.70296 8.10245 6.226 8.10608 6.86829C8.10911 7.50816 8.62912 8.02453 9.26778 8.02453Z" fill="#202020"/>
<path d="M5.00121 8.03418H5.00726L5.29662 8.03297C5.93891 8.02933 6.4565 7.5063 6.45287 6.86401C6.44984 6.22414 5.92983 5.70776 5.29117 5.70776C5.28875 5.70776 5.28694 5.70776 5.28452 5.70776L4.99515 5.70958C4.35347 5.71261 3.83588 6.23625 3.83891 6.87793C3.84254 7.5178 4.36194 8.03418 5.00121 8.03418Z" fill="#202020"/>
<path d="M52.1418 31.3284C51.5001 31.3314 50.9825 31.8544 50.9855 32.4967L50.9874 32.7861C50.9904 33.426 51.5104 33.9423 52.1497 33.9423H52.1557C52.7974 33.9387 53.315 33.4157 53.312 32.774L53.3107 32.4846C53.3071 31.8423 52.7792 31.329 52.1418 31.3284Z" fill="#202020"/>
<path d="M52.1593 38.2089H52.1654C52.8077 38.2053 53.3253 37.6823 53.3216 37.0406L53.3204 36.7512C53.3168 36.1113 52.7974 35.595 52.1581 35.595C52.1557 35.595 52.1539 35.595 52.1521 35.595C51.5098 35.598 50.9922 36.121 50.9958 36.7633L50.997 37.0527C51.0001 37.6926 51.5201 38.2089 52.1593 38.2089Z" fill="#202020"/>
<path d="M54.1419 35.9266H54.1486L54.4379 35.9248C55.0796 35.9218 55.5972 35.3988 55.5942 34.7565C55.5905 34.1166 55.0711 33.6002 54.4319 33.6002C54.43 33.6002 54.4276 33.6002 54.4258 33.6002L54.1364 33.602C53.4942 33.6051 52.9766 34.1281 52.9802 34.7704C52.9832 35.4103 53.5032 35.9266 54.1419 35.9266Z" fill="#202020"/>
<path d="M50.1592 33.61L49.8699 33.6118C49.2276 33.6148 48.71 34.1385 48.7136 34.7802C48.7167 35.42 49.2367 35.9364 49.8759 35.9364H49.882L50.1713 35.9346C50.813 35.9316 51.3306 35.4085 51.3276 34.7662C51.3246 34.1245 50.8082 33.6088 50.1592 33.61Z" fill="#202020"/>
<path d="M52.189 13.3613C52.3361 13.8704 52.8004 14.2009 53.3053 14.2009C53.4118 14.2009 53.5202 14.1864 53.6279 14.1549L54.8151 13.8123C55.4319 13.6343 55.7873 12.9896 55.6093 12.3733C55.4313 11.7564 54.7866 11.4005 54.1703 11.5791L52.9832 11.9217C52.3664 12.0997 52.0104 12.7444 52.189 13.3613Z" fill="#202020"/>
<path d="M51.9711 11.5095C52.2762 11.5095 52.5807 11.3903 52.8089 11.153L53.6655 10.2625C54.1104 9.79997 54.0965 9.06445 53.634 8.61891C53.1709 8.17396 52.4354 8.18849 51.9905 8.65099L51.1339 9.54148C50.6883 10.004 50.7028 10.7395 51.1653 11.185C51.3905 11.4018 51.6811 11.5095 51.9711 11.5095Z" fill="#202020"/>
<path d="M55.0905 15.1949L53.8907 14.8982C53.2684 14.7439 52.6376 15.1246 52.4832 15.7475C52.3294 16.3711 52.7096 17.0007 53.3325 17.155L54.5324 17.4516C54.6256 17.4747 54.72 17.4862 54.812 17.4862C55.3339 17.4862 55.8085 17.132 55.9398 16.6023C56.0936 15.9794 55.7134 15.3492 55.0905 15.1949Z" fill="#202020"/>
<path d="M3.36734 24.3032C3.38732 24.3032 3.4079 24.3032 3.42848 24.3014L4.66282 24.2372C5.3039 24.2033 5.79666 23.6567 5.76276 23.0156C5.72947 22.3745 5.18282 21.8763 4.54114 21.9156L3.30741 21.9804C2.66633 22.0137 2.17356 22.5603 2.20746 23.202C2.23955 23.8225 2.75289 24.3032 3.36734 24.3032Z" fill="#202020"/>
<path d="M3.35341 20.5711L4.45396 21.1323C4.62346 21.2182 4.80325 21.2594 4.98063 21.2594C5.40377 21.2594 5.81179 21.0269 6.01761 20.6244C6.30879 20.0523 6.08118 19.3525 5.50971 19.0607L4.40856 18.4995C3.83649 18.2084 3.13669 18.4354 2.8449 19.0074C2.55372 19.5795 2.78134 20.2799 3.35341 20.5711Z" fill="#202020"/>
<path d="M5.92378 26.9752C6.46256 26.6259 6.61571 25.9062 6.26581 25.3674C5.91652 24.8292 5.19614 24.6761 4.65797 25.026L3.62159 25.6985C3.08342 26.0478 2.93026 26.7682 3.27956 27.3064C3.50233 27.649 3.87523 27.8361 4.2554 27.8361C4.47212 27.8361 4.69187 27.7749 4.8874 27.6484L5.92378 26.9752Z" fill="#202020"/>
</svg>
