<svg width="60" height="66" viewBox="0 0 60 66" fill="none" xmlns="http://www.w3.org/2000/svg">
<path d="M51.9879 8.04381C46.8006 2.85671 39.904 0 32.5684 0C25.2326 0 18.336 2.85671 13.149 8.04381C8.0153 13.1775 5.16432 19.9849 5.10619 27.2359L0.108609 37.2311C-0.114738 37.6778 0.0115624 38.2211 0.439814 38.478L5.04158 41.2582V56.0098C5.04158 56.5376 5.5333 57.0293 6.06114 57.0293H15.2368V64.166C15.2368 64.6939 15.6648 65.1219 16.1927 65.1219C16.7205 65.1219 17.1485 64.6939 17.1485 64.166V56.0098C17.1485 55.4819 16.7842 55.1177 16.2564 55.1177H6.95301V40.717C6.95301 40.3813 6.80877 40.0701 6.52081 39.8974L2.1981 37.2941L6.90785 27.8907C6.97425 27.7579 7.01279 27.6117 7.01279 27.4632C7.01266 13.374 18.477 1.91155 32.5664 1.91155C46.6559 1.91155 58.1191 13.374 58.1191 27.4632C58.1191 35.3804 54.5056 42.7216 48.2598 47.6046C48.028 47.7857 47.8613 48.0635 47.8613 48.3577V64.1659C47.8613 64.6937 48.2893 65.1217 48.8171 65.1217C49.345 65.1217 49.773 64.6937 49.773 64.1659V48.8189C56.2724 43.5728 60 35.8164 60 27.4633C59.9997 20.1276 57.1748 13.2309 51.9879 8.04381Z" fill="#202020"/>
<path d="M36.9828 9.55626C36.6865 9.11923 36.0945 9.00514 35.6574 9.30111C35.2204 9.59734 35.1063 10.1916 35.4024 10.6285C36.2579 11.891 36.7102 13.3659 36.7102 14.8937C36.7102 18.419 34.2078 21.546 30.7715 22.3289C30.3365 22.428 30.0196 22.8146 30.0196 23.2608V27.2879C30.0196 27.8123 29.5881 28.2389 29.0637 28.2389C28.5393 28.2389 28.1079 27.8123 28.1079 27.2879V21.5675C28.1079 21.0431 28.5477 20.6165 29.0721 20.6165C32.2277 20.6165 34.8016 18.0493 34.8016 14.8937C34.8016 11.7381 32.2376 9.17087 29.082 9.17087C25.9264 9.17087 23.3609 11.7381 23.3609 14.8937C23.3609 15.4181 22.935 15.8447 22.4106 15.8447C21.8862 15.8447 21.46 15.418 21.46 14.8937C21.46 10.6893 24.8805 7.26886 29.085 7.26886C30.2878 7.26886 31.4394 7.54206 32.5072 8.08084C32.9782 8.31869 33.5532 8.12943 33.7912 7.65819C34.029 7.18695 33.8397 6.61217 33.3685 6.3742C32.0311 5.69945 30.59 5.35718 29.0852 5.35718C23.8268 5.35718 19.5488 9.63524 19.5488 14.8936C19.5488 16.472 20.8331 17.7561 22.4114 17.7561C23.9897 17.7561 25.2739 16.4719 25.2739 14.8936C25.2739 12.7921 26.9836 11.0824 29.0851 11.0824C31.1865 11.0824 32.8964 12.7921 32.8964 14.8936C32.8964 16.995 31.1736 18.7048 29.072 18.7048C27.4936 18.7048 26.1962 19.9891 26.1962 21.5674V27.2878C26.1962 28.8663 27.4852 30.1504 29.0636 30.1504C30.642 30.1504 31.931 28.8663 31.931 27.2878V23.9908C33.7151 23.4287 35.3126 22.3431 36.495 20.8807C37.8609 19.1912 38.6174 17.065 38.6174 14.8937C38.6174 12.9821 38.0536 11.1365 36.9828 9.55626Z" fill="#202020"/>
<path d="M29.0853 31.0991C27.5069 31.0991 26.2228 32.3834 26.2228 33.9617C26.2228 35.54 27.507 36.8242 29.0853 36.8242C30.6638 36.8242 31.9479 35.54 31.9479 33.9617C31.9479 32.3834 30.6636 31.0991 29.0853 31.0991ZM29.0853 34.9127C28.5609 34.9127 28.1343 34.486 28.1343 33.9617C28.1343 33.4374 28.5611 33.0107 29.0853 33.0107C29.6096 33.0107 30.0363 33.4374 30.0363 33.9617C30.0363 34.4861 29.6096 34.9127 29.0853 34.9127Z" fill="#202020"/>
<path d="M47.3162 14.8911C42.9735 14.8911 39.4432 18.4241 39.4432 22.7668C39.4432 24.1417 40.5631 25.2602 41.938 25.2602C43.313 25.2602 44.4322 24.1417 44.4322 22.7668C44.4322 21.1742 45.7287 19.8784 47.3214 19.8784C48.9141 19.8784 50.2099 21.1742 50.2099 22.7669C50.2099 24.3596 48.9013 25.6554 47.3085 25.6554C45.9336 25.6554 44.8022 26.7739 44.8022 28.1489V32.7621C44.8022 34.137 45.9124 35.2555 47.2873 35.2555C48.6622 35.2555 49.7723 34.137 49.7723 32.7621V30.2372C51.1741 29.7621 52.4787 28.8831 53.4262 27.7112C54.5542 26.3159 55.1861 24.5599 55.1861 22.7666C55.1865 18.4241 51.6588 14.8911 47.3162 14.8911ZM48.626 28.5826C48.191 28.6817 47.8613 29.0683 47.8613 29.5145V32.7622C47.8613 33.0831 47.6087 33.3441 47.2878 33.3441C46.9669 33.3441 46.7143 33.0831 46.7143 32.7622V28.149C46.7143 27.8281 46.988 27.5671 47.3089 27.5671C49.9558 27.5671 52.1155 25.4137 52.1155 22.7669C52.1155 20.1201 49.9653 17.9667 47.3185 17.9667C44.6716 17.9667 42.5212 20.1199 42.5212 22.7668C42.5212 23.0877 42.2602 23.3487 41.9393 23.3487C41.6184 23.3487 41.3574 23.0877 41.3574 22.7668C41.3574 19.4781 44.0329 16.8027 47.3215 16.8027C50.6102 16.8027 53.2856 19.4781 53.2856 22.7668C53.2857 25.5244 51.3136 27.9704 48.626 28.5826Z" fill="#202020"/>
<path d="M47.3215 35.6509C45.9465 35.6509 44.828 36.7694 44.828 38.1443C44.828 39.5193 45.9465 40.6378 47.3215 40.6378C48.6964 40.6378 49.8149 39.5193 49.8149 38.1443C49.8149 36.7694 48.6964 35.6509 47.3215 35.6509ZM47.3215 38.7264C47.0006 38.7264 46.7396 38.4654 46.7396 38.1445C46.7396 37.8236 47.0006 37.5626 47.3215 37.5626C47.6424 37.5626 47.9033 37.8236 47.9033 38.1445C47.9033 38.4654 47.6424 38.7264 47.3215 38.7264Z" fill="#202020"/>
<path d="M16.4668 25.1018C12.4505 25.1018 9.18304 28.3692 9.18304 32.3855C9.18304 33.688 10.2425 34.7475 11.545 34.7475C12.8474 34.7475 13.9069 33.688 13.9069 32.3855C13.9069 30.9741 15.0552 29.8259 16.4665 29.8259C17.8778 29.8259 19.0261 30.9742 19.0261 32.3855C19.0261 33.7968 17.8702 34.9451 16.4589 34.9451C15.1564 34.9451 14.0893 36.0046 14.0893 37.307V41.5257C14.0893 42.8281 15.1445 43.8876 16.4469 43.8876C17.7494 43.8876 18.8045 42.8281 18.8045 41.5257V39.2753C21.7356 38.2765 23.7381 35.4929 23.7381 32.3854C23.7384 28.3693 20.4831 25.1018 16.4668 25.1018ZM17.6486 37.624C17.2136 37.7231 16.8931 38.1099 16.8931 38.5559V41.5258C16.8931 41.7742 16.6954 41.9762 16.447 41.9762C16.1986 41.9762 16.001 41.7742 16.001 41.5258V37.3072C16.001 37.0589 16.2106 36.8568 16.459 36.8568C18.9245 36.8568 20.9341 34.851 20.9341 32.3855C20.9341 29.9201 18.9302 27.9143 16.4647 27.9143C13.9993 27.9143 11.9943 29.9201 11.9943 32.3855C11.9943 32.6339 11.7927 32.8359 11.5445 32.8359C11.2962 32.8359 11.0943 32.6339 11.0943 32.3855C11.0943 29.4234 13.5044 27.0134 16.4665 27.0134C19.4285 27.0134 21.8326 29.4232 21.8326 32.3855C21.8328 34.8693 20.0697 37.0724 17.6486 37.624Z" fill="#202020"/>
<path d="M16.4667 44.0854C15.1643 44.0854 14.1048 45.1449 14.1048 46.4474C14.1048 47.7498 15.1643 48.8093 16.4667 48.8093C17.7692 48.8093 18.8287 47.7498 18.8287 46.4474C18.8287 45.1449 17.7692 44.0854 16.4667 44.0854ZM16.4667 46.8978C16.2183 46.8978 16.0164 46.6958 16.0164 46.4474C16.0164 46.199 16.2183 45.997 16.4667 45.997C16.7151 45.997 16.9171 46.199 16.9171 46.4474C16.9171 46.6958 16.7151 46.8978 16.4667 46.8978Z" fill="#202020"/>
</svg>
