<svg width="75" height="71" viewBox="0 0 75 71" fill="none" xmlns="http://www.w3.org/2000/svg">
<path d="M74.713 3.45291C74.331 2.36542 73.206 0.474022 69.9529 0.0099618C66.3763 -0.189256 61.8435 2.62089 57.3436 6.52087C57.3178 6.53024 57.292 6.53727 57.2662 6.54665L57.2779 6.5818C49.5295 13.313 41.8983 23.2434 39.4116 26.5856C39.5054 26.3419 39.564 26.0747 39.564 25.7958C39.564 24.9122 39.0507 24.1552 38.3077 23.7895C38.6405 23.0794 39.1468 22.3575 39.6483 21.6474C40.5858 20.3138 41.5444 18.938 41.3499 17.6232C41.3499 17.6114 41.3569 17.5997 41.3569 17.588C41.3569 17.5458 41.3405 17.513 41.3335 17.4755C41.3311 17.4732 41.3335 17.4708 41.3311 17.4685C41.2702 17.1567 41.0147 16.92 40.6866 16.92C40.3233 16.92 40.0233 17.2177 40.0233 17.5857C40.0233 17.9536 40.3233 18.2513 40.6866 18.2513C40.7686 18.2513 40.8483 18.2302 40.9257 18.2021C40.8226 19.1981 40.0819 20.2669 39.2897 21.3872C38.7718 22.1231 38.2444 22.8755 37.8929 23.6302C37.7101 23.5809 37.5226 23.5481 37.321 23.5481C37.2718 23.5481 37.2249 23.5598 37.178 23.5622C36.5382 22.3669 35.9874 21.5161 35.5257 20.7989C34.8109 19.695 34.3398 18.9614 34.0866 17.8013C34.1218 17.806 34.1476 17.82 34.1851 17.82C34.5507 17.82 34.8507 17.5224 34.8507 17.1544C34.8507 16.7888 34.5507 16.4888 34.1851 16.4888C33.8195 16.4888 33.5195 16.7888 33.5195 17.1544C33.5195 17.2411 33.5406 17.3232 33.5687 17.3982C33.8101 18.938 34.3515 19.7888 35.1601 21.038C35.6007 21.72 36.1234 22.5286 36.7234 23.6395C35.7812 23.902 35.0804 24.7622 35.0804 25.7911C35.0804 25.8684 35.0991 25.9434 35.1062 26.0208C32.2163 22.1794 25.0234 13.0083 17.7274 6.66852L17.7414 6.63571C17.7109 6.62633 17.6805 6.62165 17.6594 6.60993C13.1594 2.70995 8.62662 -0.100194 5.04773 0.0990238C1.78993 0.567771 0.671971 2.45682 0.287598 3.54432C-0.347555 5.35134 0.156349 7.23571 0.95322 8.09117C5.21648 13.0927 5.56335 17.2927 5.38523 19.3505C5.22585 21.2044 4.59773 22.2872 4.31414 22.5192C3.49852 23.2013 3.75633 24.1739 3.95789 24.9567C4.20164 25.8825 4.31648 26.4755 3.71649 27.0075L3.22899 27.4434L3.71414 27.8817C4.3118 28.4184 4.56258 30.2606 4.59305 31.0668L4.60711 31.5075L9.81255 32.8293C9.37896 34.4723 8.20943 39.1598 8.29615 41.4801L8.31021 41.8574C8.39693 44.4261 8.47193 46.6433 10.1102 48.38C11.0524 49.3855 11.0149 51.0144 10.9797 52.3245C10.9657 52.9152 10.9516 53.4261 11.0289 53.8339L12.3203 60.5393C12.3414 60.5979 14.4274 66.5323 12.2899 69.6471L12.1844 69.7948V69.9752C12.1844 70.5213 12.5688 70.7744 12.9203 70.7744C13.293 70.7744 13.675 70.5237 14.3125 70.1041C15.2055 69.5135 16.5555 68.6229 17.8375 68.6229C18.1399 68.6229 18.4281 68.6721 18.6977 68.7682L18.8313 68.8174L18.9742 68.7987C19.8391 68.6885 20.2164 68.4682 20.5211 68.2971C20.7719 68.1518 20.9101 68.0721 21.3906 68.0721C22.0398 68.0721 23.1273 68.2362 24.8148 68.5948L25.1898 68.6721L25.4101 68.3604C25.6398 68.0393 26.1976 67.9737 26.6289 67.9737C27.8101 67.9737 29.2023 68.4682 29.2164 68.4729L29.9453 68.733L29.9968 67.9643C29.9992 67.9338 30.0789 66.8815 30.3742 65.3346L30.4163 65.2995C30.407 65.2901 30.3953 65.2807 30.3882 65.269C30.932 62.4425 32.1929 58.0081 34.9937 55.0878L35.228 54.8441L35.132 54.53C34.2249 51.38 34.4288 46.5003 34.9187 42.1176C35.4437 43.3832 36.2499 44.7027 37.4452 46.0339C38.8702 43.8847 39.571 41.8972 39.8499 40.1277C40.4851 44.9347 40.9069 50.8222 39.8686 54.4339L39.7772 54.7573L40.0093 55.0011C42.8124 57.9214 44.071 62.3557 44.6194 65.1823C44.61 65.1917 44.5983 65.2034 44.5889 65.2128L44.6335 65.2479C44.9264 66.7948 45.0085 67.8471 45.0085 67.8752L45.06 68.6463L45.7913 68.3885C45.8053 68.3838 47.1952 67.8846 48.3764 67.8846C48.81 67.8846 49.3678 67.9526 49.5975 68.2737L49.8178 68.5854L50.1928 68.508C51.878 68.1541 52.9678 67.9877 53.617 67.9877C54.0975 67.9877 54.2358 68.0627 54.4842 68.208C54.7889 68.3838 55.1686 68.6018 56.0334 68.7096L56.174 68.7284L56.3076 68.6791C56.5772 68.5807 56.8678 68.5315 57.1701 68.5315C58.4521 68.5315 59.8021 69.4221 60.6951 70.0127C61.3303 70.4323 61.7146 70.683 62.0849 70.683C62.4388 70.6807 62.8232 70.4346 62.8232 69.8838V69.7034L62.7201 69.5557C60.5803 66.4385 62.6685 60.5089 62.6896 60.4456L63.9787 53.7448C64.056 53.3347 64.0443 52.8238 64.0279 52.2331C63.9927 50.923 63.9576 49.2941 64.8998 48.2886C66.5334 46.5496 66.6107 44.3324 66.7021 41.7637L66.7162 41.3887C66.7982 39.0684 65.6263 34.3809 65.1974 32.7403L70.4029 31.4161L70.4193 30.9754C70.4474 30.1668 70.6982 28.3247 71.2982 27.7903L71.7833 27.3497L71.2935 26.9161C70.6911 26.384 70.8083 25.7911 71.0497 24.863C71.256 24.0825 71.5115 23.1075 70.6982 22.4278C70.4169 22.1934 69.7818 21.1106 69.6294 19.2544C69.4513 17.1989 69.7935 12.999 74.0614 7.99273C74.8443 7.14196 75.3458 5.25994 74.713 3.45291ZM28.1945 29.9442C26.0617 28.6247 23.8562 27.2606 21.4047 26.7801C20.6781 26.6114 19.968 26.4942 19.2625 26.4051C19.2695 26.3489 19.2742 26.2833 19.2836 26.2364C19.2953 26.1919 19.3563 26.1426 19.4594 26.063C19.6445 25.9176 19.9562 25.6762 19.8695 25.1583C19.7828 24.7317 19.3914 24.5653 19.075 24.4317C18.9273 24.3708 18.7445 24.2911 18.6859 24.2184C18.6109 23.8786 18.7211 23.82 19.1453 23.6466C19.4078 23.5387 19.7406 23.4005 19.9891 23.1098C20.3852 23.295 20.7742 23.4872 21.1492 23.6887C23.6476 25.0833 25.914 26.8786 28.1031 28.6176C29.8843 30.0309 31.7148 31.4793 33.6952 32.7356C31.7687 32.1426 29.957 31.034 28.1945 29.9442ZM32.0312 39.0473C32.4367 39.7598 33.0437 40.4113 33.857 41.0183C33.6085 43.0644 33.4093 45.2675 33.346 47.398C33.3296 47.3488 33.3109 47.3066 33.2968 47.2574C32.5913 45.3543 31.8648 43.3832 31.9374 41.4707C31.9937 40.6879 32.0195 39.8676 32.0312 39.0473ZM31.5671 43.6761C30.9765 44.316 30.721 45.1902 30.5687 46.123C29.7671 45.2629 28.4195 43.5215 28.4687 41.5808L28.2695 41.5762C29.2703 39.2723 30.3765 36.9192 31.5953 34.5028C31.5038 35.677 31.4851 36.8957 31.4663 38.0863C31.4523 39.2043 31.4359 40.3551 31.3609 41.4402C31.3304 42.1879 31.4124 42.9332 31.5671 43.6761ZM19.2766 60.2534C19.2813 60.3261 19.2859 60.3987 19.2859 60.4667C19.0914 60.2909 18.8992 60.1315 18.7164 59.9909C18.4 59.7425 18.1211 59.5198 17.8984 59.2104C18.3625 58.6948 18.8219 58.1651 19.2648 57.612C19.1875 58.4042 19.2297 59.3347 19.2766 60.2534ZM17.6102 58.655C17.5375 58.4581 17.4766 58.2308 17.4391 57.9612C17.3992 57.7339 17.4344 57.455 17.4649 57.1808C17.5117 56.7894 17.5563 56.3839 17.4203 56.0487C17.3875 55.9503 17.3477 55.8612 17.3031 55.7722C18.2711 54.9612 19.2602 54.1269 20.1742 53.2573C21.2641 52.2753 22.0867 51.6331 22.9586 50.9558C22.9609 50.9511 22.9656 50.9488 22.9703 50.9464C22.893 51.0402 22.8226 51.1292 22.7594 51.2113C21.8617 52.5074 21.1586 53.7073 20.3969 55.0433C19.5859 56.3323 18.6109 57.5347 17.6102 58.655ZM22.6 50.4894C21.7211 51.1761 20.8891 51.823 19.7758 52.8238C18.8922 53.6722 17.9313 54.4831 16.9914 55.273C16.8977 55.1441 16.8016 55.0269 16.7008 54.905C16.4242 54.5651 16.1617 54.2511 16.0727 53.8573C15.9719 53.5456 15.986 53.105 16 52.6761C16.0141 52.3245 16.0258 51.9566 15.9813 51.6425L15.932 51.3988C15.8828 51.1433 15.8406 50.9464 15.7938 50.7636C15.8805 50.6769 15.9672 50.5902 16.0539 50.5035V50.5105C19.6047 49.6011 22.7383 48.7996 25.5062 46.3621C25.3843 46.6832 25.2625 47.0042 25.15 47.3253C25.007 47.4121 24.9859 47.5714 24.9929 47.7589C24.9906 47.7636 24.9906 47.7683 24.9883 47.773L24.9367 47.7472V47.9113C24.85 48.1574 24.7586 48.4128 24.6719 48.6566C24.6039 48.7761 24.5289 48.8956 24.4468 49.0128C23.7578 49.5824 23.1648 50.0464 22.6 50.4894ZM14.2844 53.3745C14.1602 53.1589 14.0313 52.9738 13.8977 52.8097C14.3453 52.273 14.8188 51.755 15.3086 51.2488C15.3227 51.3261 15.3414 51.4105 15.3578 51.5042L15.4047 51.7363C15.4422 51.987 15.4281 52.3245 15.4188 52.6527C15.4 53.1331 15.3813 53.6277 15.5102 54.0097C15.6203 54.5112 15.9414 54.9003 16.2508 55.2753C16.3516 55.4042 16.4524 55.5214 16.5414 55.648C15.8899 56.1917 15.2289 56.7519 14.5821 57.3237C14.5071 57.1409 14.4508 56.937 14.425 56.705C14.3922 56.2878 14.4719 55.9222 14.5492 55.5706C14.6899 54.9308 14.8328 54.2675 14.2844 53.3745ZM13.0516 47.8199C13.0024 47.3441 12.7727 46.9035 12.5524 46.4793C12.5383 46.4488 12.5243 46.423 12.5055 46.3902C12.9813 45.6777 13.4078 44.9582 13.8203 44.2457C14.1321 43.7136 14.4367 43.198 14.7531 42.6871C14.7438 42.7738 14.7391 42.8582 14.718 42.9519C14.6524 43.2191 14.5586 43.3621 14.4602 43.5097C14.2961 43.7535 14.1274 44.0136 14.1274 44.6722C14.1766 45.005 14.3078 45.216 14.4367 45.4222C14.6102 45.7082 14.7625 45.9566 14.711 46.3878C14.6477 46.9832 14.4883 47.2996 14.35 47.5738C14.0617 48.148 13.9328 48.5347 14.6524 49.7769C14.8352 50.0488 14.9547 50.2456 15.0414 50.4214C14.4696 51.0027 13.9141 51.605 13.3844 52.2284C12.8828 51.6917 12.5547 51.312 12.6649 50.2433C12.7 49.9363 12.7891 49.6574 12.8758 49.3902C13.0352 48.9238 13.1899 48.4386 13.0516 47.8199ZM11.9102 41.4121C11.7555 41.1355 11.6125 40.8754 11.5305 40.6222C11.5844 40.5402 11.6407 40.4582 11.6922 40.3762C12.2453 39.5184 12.8196 38.6301 13.5461 37.9832C13.8227 37.7395 14.0922 37.5027 14.3641 37.2801C14.3735 37.2918 14.3805 37.3035 14.3875 37.3129C14.5656 37.5496 14.718 37.7512 14.718 37.9621C14.7672 38.377 14.6453 38.6465 14.5024 38.9582C14.3969 39.1902 14.2774 39.4504 14.2328 39.7691C14.2305 40.409 14.3922 40.8918 14.5352 41.3183C14.5633 41.3933 14.5844 41.466 14.6078 41.5433C14.0852 42.3074 13.6235 43.0926 13.1711 43.8683C12.8453 44.4261 12.5102 44.9933 12.1516 45.5605C12.1258 45.4761 12.1024 45.3941 12.086 45.305C12.0391 44.8011 12.1493 44.4613 12.2688 44.098C12.3743 43.7863 12.4797 43.4629 12.4797 43.0269C12.4774 42.4293 12.1891 41.9113 11.9102 41.4121ZM11.9899 35.684C11.9782 35.4192 11.8282 35.227 11.7063 35.0676C11.5797 34.9059 11.5024 34.7981 11.5024 34.6481C11.5024 34.5309 11.575 34.4043 11.6594 34.2567C11.7672 34.0668 11.8914 33.8489 11.8914 33.577C11.875 33.4223 11.868 33.3028 11.8586 33.1879C11.8329 32.7801 11.8094 32.3582 11.4836 32.0981C11.336 31.9785 11.1438 31.92 10.9071 31.9035L10.7196 31.8543C11.5446 31.0317 12.8078 30.6379 14.1813 30.4598C14.1532 30.5301 14.1274 30.6051 14.0992 30.6731C13.7969 31.4161 13.5133 32.1215 13.6516 32.9442C13.7008 33.2395 13.8438 33.4996 13.9867 33.7528C14.1602 34.0715 14.3289 34.3715 14.3289 34.7465C14.3289 34.9903 14.2422 35.2246 14.1508 35.4754C14.0453 35.7637 13.9399 36.059 13.9399 36.4035C13.9633 36.5465 14.0032 36.666 14.0571 36.7785C13.7617 37.0223 13.4641 37.2777 13.1618 37.5473C12.4633 38.1684 11.9219 38.9629 11.4039 39.7504C11.4063 39.1902 11.5586 38.6676 11.725 38.1285C11.95 37.3715 12.1844 36.5957 11.9899 35.684ZM10.6915 22.9973C10.6493 22.8802 10.5907 22.7161 10.5133 22.4888C10.3633 22.1325 10.1969 21.9848 10.0727 21.8747C9.9438 21.7622 9.90161 21.7247 9.9438 21.3474C9.97192 21.1622 10.0821 21.0474 10.2274 20.902C10.2883 20.8411 10.3516 20.7755 10.4102 20.6981C10.75 20.7216 11.0829 20.7427 11.4039 20.7591C12.1024 20.8013 12.7047 20.8364 13.0868 20.9067C13.1899 20.9302 13.2953 20.9513 13.3985 20.9724C13.3703 21.045 13.3493 21.1294 13.3493 21.2208C13.4266 21.7833 13.8555 22.0388 14.1953 22.2427C14.3875 22.3575 14.5891 22.477 14.636 22.5942C14.7297 22.8005 14.7719 22.913 14.7883 22.9763C14.6078 23.0723 14.3852 23.227 14.2422 23.6583C14.0992 24.0872 14.0055 24.1973 13.968 24.2466C13.818 24.4341 13.8578 24.57 13.9211 24.7762C13.9492 24.8653 13.9891 24.9942 14.0407 25.1934C14.1836 25.6176 14.3805 25.8192 14.5258 25.9645C14.5891 26.0301 14.6383 26.0817 14.6688 26.145C14.6102 26.1426 14.5492 26.1403 14.4883 26.1403C13.9235 26.1286 13.3563 26.1169 12.7797 26.0958C12.1329 26.0981 11.5047 26.0981 10.8883 26.1122C10.8672 26.084 10.8485 26.0583 10.8321 26.0325C10.7899 25.9786 10.7313 25.8919 10.7172 25.8637C10.6563 25.5895 10.525 25.4348 10.4219 25.313C10.2954 25.1653 10.2368 25.0833 10.2368 24.9216C10.2461 24.8864 10.3375 24.7926 10.3938 24.7387C10.5391 24.5911 10.7219 24.4083 10.7219 24.1434C10.7454 23.9372 10.7688 23.7989 10.7852 23.7028C10.8344 23.4122 10.8204 23.3606 10.6915 22.9973ZM9.97661 25.6833C10.0516 25.7747 10.1149 25.8473 10.1407 25.9387C10.15 26.0044 10.1782 26.0676 10.2086 26.1286C9.84771 26.1426 9.48911 26.1637 9.13287 26.1895C8.82115 26.1895 8.42271 26.1356 8.00318 26.0747C7.84147 26.0512 7.67272 26.0278 7.50397 26.009C7.49928 25.9575 7.49928 25.8989 7.511 25.838C7.53678 25.7348 7.66803 25.5122 7.78522 25.32C7.99615 24.9661 8.19537 24.6309 8.19537 24.3309C8.19537 23.9114 7.99615 23.6161 7.82272 23.3536C7.65865 23.1075 7.51334 22.8942 7.51334 22.5802C7.51334 22.4864 7.60944 22.3856 7.76647 22.2286C7.98912 22.0106 8.29381 21.7106 8.29381 21.2184C8.23521 20.8481 8.04537 20.581 7.86022 20.3466C8.42037 20.4872 9.0438 20.5786 9.67661 20.6395C9.53599 20.7895 9.40708 20.9864 9.3649 21.2747C9.29693 21.9145 9.45396 22.1091 9.68599 22.3153C9.78677 22.4044 9.88052 22.4864 9.96958 22.6973C10.0399 22.913 10.1008 23.077 10.143 23.1989C10.2344 23.4567 10.2344 23.4567 10.211 23.602C10.1922 23.7075 10.1665 23.8575 10.143 24.113C10.1336 24.1762 10.0375 24.2677 9.98364 24.3239C9.83599 24.4716 9.65318 24.6544 9.65318 24.9216C9.65318 25.3012 9.84067 25.5239 9.97661 25.6833ZM7.32819 16.6013C7.16413 16.2052 7.00709 15.8302 6.92506 15.4177C6.88288 15.2021 6.88288 14.9513 6.88288 14.6865C6.88288 14.4052 6.88053 14.1169 6.83366 13.8169C7.286 13.8779 7.75475 13.995 8.18834 14.1146C8.13912 14.7239 8.14146 14.8693 8.36646 15.0966C8.43912 15.1716 8.54459 15.2771 8.70865 15.6099C8.8188 15.788 8.92427 15.9193 9.0274 16.0505C9.23833 16.3083 9.40474 16.5146 9.46099 16.9763C9.46099 17.1193 9.31333 17.3771 9.18208 17.6044C9.0274 17.8739 8.87505 18.1341 8.87505 18.3966L8.88912 18.4763C9.01802 18.931 9.37427 19.2005 9.66255 19.4208C9.85005 19.5638 10.0258 19.6974 10.0516 19.8169C10.0586 19.8544 10.0563 19.8778 10.061 19.9083C9.12818 19.8263 8.15318 19.6927 7.45709 19.4302C7.48287 19.3341 7.52506 19.231 7.57428 19.1114C7.67975 18.856 7.80397 18.5653 7.80397 18.2021C7.74772 17.595 7.53209 17.0911 7.32819 16.6013ZM5.72273 13.8216C5.87038 13.7888 6.02273 13.7724 6.18679 13.7724C6.21022 13.8169 6.24069 13.8591 6.2571 13.9013C6.29929 14.1591 6.29929 14.4286 6.29929 14.6865C6.29929 14.9818 6.29929 15.2607 6.35319 15.5325C6.4446 16.0013 6.62272 16.4208 6.79381 16.8263C6.98835 17.2974 7.17584 17.7403 7.22272 18.2278C7.22272 18.4458 7.13131 18.6591 7.03756 18.8841C6.99538 18.9802 6.96022 19.0763 6.92506 19.1747C6.7821 19.081 6.66725 18.9778 6.58288 18.8606C6.61803 17.6208 6.46335 15.8911 5.72273 13.8216ZM5.55632 5.40525C5.54695 5.38181 5.54226 5.35837 5.53288 5.33728C6.13288 5.4029 6.74928 5.48493 7.38209 5.57634C7.436 5.65368 7.49694 5.724 7.55084 5.78962C7.67506 5.93024 7.78287 6.04977 7.811 6.1904C7.80162 6.40134 7.75944 6.57243 7.71022 6.7529C7.66334 6.93571 7.61178 7.12789 7.61178 7.39742C7.61178 7.45367 7.60006 7.4982 7.586 7.54274C7.01178 7.34821 6.43054 7.16774 5.84929 6.99899C5.85398 6.97321 5.85866 6.94274 5.85866 6.91227C5.85866 6.31227 5.69929 5.82946 5.55632 5.40525ZM5.60788 7.72086C6.1821 7.88492 6.75632 8.06539 7.3235 8.25758C7.30475 8.38414 7.29537 8.52476 7.3235 8.70289C7.38209 9.00288 7.55319 9.22085 7.71725 9.42945C7.89068 9.6521 8.05709 9.86538 8.10162 10.163C8.09693 10.2005 7.96334 10.3646 7.86725 10.4841C7.82975 10.5287 7.79459 10.5755 7.76178 10.6201C7.45241 10.5169 7.14303 10.4162 6.82663 10.3388C6.62741 10.299 6.40475 10.2826 6.17741 10.2732C6.16335 10.0529 6.12819 9.81616 6.03913 9.54663C5.9571 9.30054 5.8446 9.11773 5.74851 8.95132C5.59382 8.69351 5.46726 8.48961 5.46726 8.0818C5.46726 8.01148 5.54695 7.84977 5.60788 7.72086ZM20.0711 22.3083C19.8203 22.2122 19.675 22.0505 19.6211 21.7997C19.5133 21.2934 19.7805 20.5388 20.1602 19.8544C21.1656 20.5575 22.1383 21.27 23.0805 21.9591C22.9844 22.177 22.9164 22.388 22.8555 22.5919C22.7476 22.9481 22.6469 23.288 22.3961 23.5411C22.1055 23.3677 21.8172 23.1942 21.5195 23.0302C21.1351 22.8239 20.7391 22.627 20.3336 22.4372L20.3453 22.4091L20.0711 22.3083ZM18.1281 24.4012L18.1516 24.4622C18.2875 24.7341 18.5852 24.8606 18.8477 24.9708C19.0445 25.0551 19.2719 25.1489 19.293 25.2637C19.3188 25.4208 19.2719 25.4653 19.0984 25.6036C18.9602 25.7091 18.775 25.852 18.7117 26.1122C18.6977 26.1778 18.6906 26.2598 18.6813 26.3395C17.5469 26.2223 16.4172 26.1825 15.2688 26.1544C15.236 25.8872 15.1071 25.7231 14.9406 25.5544C14.8117 25.4231 14.6946 25.3012 14.5985 25.02C14.5469 24.8278 14.5047 24.6919 14.4766 24.6005C14.4696 24.5817 14.4649 24.5676 14.4625 24.5536C14.5399 24.4458 14.65 24.2606 14.793 23.8387C14.8797 23.5786 14.9735 23.5294 15.0742 23.4802C15.5289 23.2458 15.4094 22.8848 15.1703 22.3598C15.0531 22.0692 14.7696 21.8981 14.493 21.7341C14.1672 21.5395 13.9633 21.4059 13.9305 21.1763C13.9328 21.1505 13.961 21.1247 13.9914 21.0895C15.8524 21.4903 17.7109 22.095 19.4219 22.852C19.2812 22.9622 19.1055 23.0348 18.925 23.1075C18.4984 23.2856 17.9125 23.5223 18.1281 24.4012ZM19.3773 46.3902C19.0469 46.6902 18.7211 46.9855 18.393 47.2808C17.418 48.1621 16.4289 49.0621 15.4797 49.9972C15.3953 49.8495 15.2899 49.6761 15.1539 49.4722C14.5657 48.455 14.6664 48.2605 14.8774 47.8386C15.025 47.5503 15.2196 47.1543 15.2992 46.4558C15.3696 45.8207 15.1328 45.4316 14.943 45.1222C14.8352 44.9511 14.7414 44.7964 14.7133 44.6254C14.718 44.1894 14.8164 44.0394 14.9547 43.8332C15.0649 43.6668 15.1985 43.4582 15.2969 43.0879C15.4024 42.6238 15.3789 42.2301 15.3039 41.8668C15.9602 40.9176 16.7031 40.0246 17.6852 39.2277C18.2266 38.7801 18.9203 38.3277 19.6844 37.8824C19.5367 38.3582 19.4242 38.8363 19.4242 39.3894C19.4242 39.884 19.5273 40.3527 19.6258 40.8097C19.7219 41.2551 19.8133 41.6793 19.8133 42.1129C19.8133 42.7387 19.6867 43.3246 19.5672 43.8918C19.3844 44.6699 19.2156 45.4808 19.3773 46.3902ZM17.1953 38.6371C16.3305 39.3426 15.6344 40.1254 15.025 40.9387C14.9078 40.5871 14.8094 40.2309 14.8094 39.8043C14.8422 39.6098 14.9336 39.4082 15.0297 39.1926C15.1844 38.8504 15.3649 38.4613 15.2946 37.9199C15.2969 37.5473 15.0602 37.2332 14.8516 36.9566C14.8399 36.9402 14.8281 36.9238 14.8188 36.9074C16.3 35.7449 17.7578 34.9528 19.5156 34.7395C19.9516 34.6738 20.3758 34.5988 20.807 34.5285C21.2336 34.4582 21.6601 34.3856 22.0914 34.3176C22.2414 34.716 22.4055 35.1121 22.5672 35.5035C20.6336 36.4551 18.5172 37.5449 17.1953 38.6371ZM14.493 33.4692C14.3711 33.2489 14.2563 33.0426 14.2258 32.8481C14.1157 32.1871 14.3594 31.5871 14.6407 30.8911C14.7063 30.7293 14.7719 30.5582 14.8352 30.3895C16.0164 30.2934 17.2328 30.3192 18.2969 30.3426C18.4609 30.3473 18.618 30.3497 18.7727 30.3543L18.8148 30.4387C18.8641 30.42 18.9039 30.3895 18.9438 30.359C19.1313 30.3614 19.3141 30.3637 19.4875 30.3637C20.0312 30.3637 20.5914 30.3286 21.1422 30.2911C21.1469 31.3575 21.4609 32.5528 21.8898 33.7598C21.4961 33.8207 21.1023 33.8887 20.7133 33.952C20.282 34.0246 19.8602 34.0973 19.4406 34.1629C17.5891 34.3856 16.0656 35.1965 14.5282 36.3918C14.5258 36.3777 14.5188 36.3637 14.5164 36.3473C14.5188 36.1551 14.6055 35.9184 14.6969 35.6699C14.8024 35.3817 14.9102 35.084 14.9102 34.7418C14.9078 34.2192 14.6899 33.8231 14.493 33.4692ZM14.8352 28.6481C14.7016 28.4864 14.6196 28.3762 14.6196 28.2239C14.5774 27.8254 14.6102 27.7973 14.6875 27.727C14.8516 27.5817 15.0274 27.3895 15.168 26.909C16.3422 26.9372 17.4906 26.9747 18.6461 27.0942C18.6461 27.3661 18.6508 27.652 18.6555 27.9497C18.6695 28.5122 18.6883 29.3887 18.6063 29.7661C18.5078 29.7637 18.4117 29.7614 18.3063 29.759C17.3008 29.7356 16.1547 29.7098 15.025 29.7872C15.0297 29.7778 15.0297 29.7661 15.0344 29.7567C15.3039 29.22 15.0321 28.8825 14.8352 28.6481ZM20.1906 40.6808C20.0945 40.2355 20.0031 39.8113 20.0031 39.3777C20.0031 38.7285 20.1859 38.1777 20.4016 37.5473L20.4344 37.4535C21.2266 37.0199 22.0562 36.6004 22.8648 36.2067C22.9328 36.3613 23.0008 36.5184 23.0664 36.6684C23.3711 37.3785 23.6617 38.0465 23.8844 38.6441C24.0883 39.2582 24.325 39.8887 24.5617 40.5262C24.564 40.5355 24.5687 40.5426 24.5734 40.5519C23.8 41.7308 23.0172 42.7527 22.2203 43.6386C21.4867 44.4144 20.7016 45.1644 19.9047 45.9027C19.8625 45.2582 19.9914 44.6441 20.132 44.0043C20.2609 43.4066 20.3945 42.7879 20.3945 42.1035C20.3922 41.6137 20.2891 41.1426 20.1906 40.6808ZM22.6867 34.2309C23.5164 34.109 24.3437 34.0082 25.1453 33.966C25.3281 33.9567 25.5297 33.9496 25.7406 33.9473C25.1804 34.2449 24.4164 34.6129 23.6992 34.9598C23.5047 35.0535 23.3008 35.152 23.0969 35.2504C22.9539 34.9129 22.8133 34.5731 22.6867 34.2309ZM24.4328 38.4473C24.1984 37.8285 23.9054 37.1535 23.6008 36.4387C23.5328 36.2793 23.4601 36.1129 23.3898 35.9512C23.6054 35.8481 23.8211 35.7426 24.025 35.6442C25.907 34.7371 26.8 34.2989 27.1187 33.9332C27.4539 33.9262 27.7914 33.9168 28.1359 33.8981C27.0836 36.2207 26.0312 38.2223 24.9601 39.9285C24.775 39.4316 24.5945 38.9371 24.4328 38.4473ZM29.0031 33.8324C29.9054 33.741 30.7562 33.5629 31.4078 33.1973C29.4554 36.9988 27.7703 40.6527 26.35 44.1894C26.1015 43.0551 25.7078 41.9324 25.2976 40.8262C26.5468 38.9113 27.7632 36.6121 29.0031 33.8324ZM26.4156 33.3543C25.9375 33.359 25.4922 33.3637 25.1125 33.3825C24.2453 33.4293 23.3617 33.5395 22.4758 33.6731C22.0422 32.4707 21.7234 31.2895 21.7234 30.2676H21.5148C21.5641 30.2653 21.6156 30.2629 21.6648 30.2582C22.6164 30.1879 23.5984 30.1153 24.5289 30.1715C24.8054 30.1715 25.2906 30.2981 25.7617 30.4176C26.5867 30.6332 27.4257 30.8442 27.9507 30.6825C29.0335 31.3504 30.1351 32.0207 31.2742 32.5832C30.1609 33.3145 28.0234 33.3426 26.4156 33.3543ZM25.9093 29.8528C25.3562 29.7098 24.8828 29.5879 24.5453 29.5879C23.5984 29.534 22.5953 29.6043 21.625 29.6747C20.9148 29.7262 20.1836 29.7825 19.4875 29.7825C19.3961 29.7825 19.2953 29.7801 19.1992 29.7778C19.2672 29.3606 19.2625 28.7559 19.2461 27.9379C19.2414 27.6754 19.2367 27.4129 19.2344 27.1669C19.9 27.2536 20.568 27.3661 21.25 27.5231C23.2867 27.9239 25.1828 28.9879 27.0132 30.1059C26.6101 30.0356 26.1718 29.9231 25.9093 29.8528ZM9.48208 15.6779C9.39302 15.5724 9.3063 15.4646 9.22427 15.3263C9.02974 14.9325 8.87505 14.7802 8.78365 14.6865C8.74849 14.6208 8.75084 14.445 8.76021 14.2716C8.90084 14.3138 9.04615 14.3536 9.17271 14.3865C11.0079 14.8271 12.7516 15.5185 14.418 16.3552C14.3828 16.5755 14.2305 16.6974 14.0196 16.8521C13.6985 17.0888 13.2532 17.4169 13.2532 18.2021C13.2532 18.7388 13.6422 19.0294 13.9539 19.2614C14.2446 19.4794 14.4203 19.6247 14.4203 19.8567C14.4461 20.0442 14.3172 20.1544 14.0524 20.3278C13.7758 20.2716 13.4993 20.2106 13.2227 20.1638C12.7961 20.0841 12.175 20.0489 11.4532 20.0067C11.2024 19.9927 10.9329 19.9763 10.6563 19.9575C10.6493 19.8708 10.6422 19.7864 10.6211 19.6927C10.5555 19.3646 10.2813 19.156 10.0141 18.9544C9.77739 18.7763 9.55239 18.6028 9.46568 18.3614C9.48443 18.2466 9.59927 18.0497 9.69068 17.8903C9.85474 17.5997 10.0446 17.2692 10.0446 16.9364C9.96255 16.2732 9.70942 15.9591 9.48208 15.6779ZM13.9352 15.2208C13.9727 15.256 14.0055 15.2888 14.0383 15.3239C12.5477 14.6255 10.9868 14.0419 9.35552 13.6482C9.24537 13.6224 9.12818 13.5896 9.0063 13.5544C9.00865 13.5544 9.00865 13.5544 9.00865 13.5521C9.19615 13.3083 9.43052 13.0083 9.36021 12.5161C9.22427 12.0872 8.89146 11.8997 8.60084 11.738C8.5774 11.7216 8.55162 11.7099 8.53053 11.6958C8.60553 11.7263 8.67818 11.7497 8.75787 11.7779C9.17037 11.9349 9.58989 12.0919 10.0211 12.2349C10.4196 12.3685 10.8133 12.4951 11.2118 12.6263C12.0672 12.9076 12.9086 13.1818 13.7289 13.4747C13.5414 13.606 13.3985 13.7536 13.3586 13.9575C13.2766 14.6161 13.6586 14.97 13.9352 15.2208ZM13.9305 14.0513C13.9539 13.9857 14.2492 13.831 14.4438 13.7325C15.543 14.1427 16.6117 14.588 17.6524 15.1318C18.8758 15.7763 20.0687 16.5333 21.2359 17.3489C21.0531 17.6419 20.8539 17.9302 20.6219 18.2091C20.4578 18.3708 20.268 18.6028 20.0781 18.8771C18.4516 17.7567 16.736 16.6786 14.9289 15.7599C14.8914 15.638 14.8469 15.5068 14.7883 15.3661C14.6946 15.1224 14.5071 14.956 14.3313 14.7919C14.0524 14.5365 13.8953 14.3747 13.9305 14.0513ZM8.79068 12.6474C8.81412 12.8302 8.71802 12.9708 8.54459 13.1911C8.49771 13.2497 8.45318 13.3154 8.40631 13.3833C7.77818 13.2169 7.07975 13.0482 6.40944 13.0224C6.39538 13.006 6.39069 12.9896 6.38132 12.9755C6.23366 12.7599 6.08366 12.5419 6.04616 12.3896C5.96882 11.9349 6.0321 11.588 6.10241 11.2201C6.11413 11.1591 6.12351 11.0935 6.13522 11.0302C6.32975 11.0372 6.51257 11.049 6.66022 11.0794C6.95085 11.1521 7.23444 11.2435 7.51803 11.3396C7.52037 11.3466 7.51803 11.3537 7.52037 11.363C7.586 11.8388 7.98912 12.0661 8.3149 12.249C8.54459 12.3755 8.73912 12.4857 8.79068 12.6474ZM19.0492 21.87C17.6758 21.3075 16.2344 20.8411 14.7789 20.4919C14.936 20.3231 15.0438 20.1075 15.0016 19.8145C15.0063 19.32 14.6172 19.0271 14.3055 18.795C14.0125 18.5771 13.8367 18.4341 13.8367 18.2021C13.8367 17.7099 14.0711 17.5388 14.3664 17.3208C14.6266 17.1263 14.8563 16.9247 14.9571 16.6247C16.6047 17.4896 18.175 18.4903 19.6773 19.5192C19.2484 20.2903 18.925 21.1833 19.0492 21.87ZM23.4133 22.7536C23.4601 22.5942 23.5094 22.4442 23.5679 22.2989L24.0836 22.6552C24.6953 23.077 25.307 23.5059 25.9234 23.9442C25.539 24.3122 25.157 24.7036 24.8125 25.1466C24.1844 24.6989 23.5445 24.263 22.8906 23.8481C23.1812 23.5153 23.3008 23.1309 23.4133 22.7536ZM26.4086 24.2911C26.9312 24.6637 27.4492 25.0481 27.9648 25.4419C27.9461 25.463 27.932 25.4817 27.9179 25.5005C27.5757 25.9364 27.2289 26.3817 26.9898 26.7731C26.432 26.3372 25.8648 25.9083 25.2883 25.4864C25.6257 25.0528 26.0054 24.6731 26.4086 24.2911ZM26.9617 23.752C27.3062 23.4122 27.6461 23.0489 27.9484 22.6411C28.4054 23.0184 28.8695 23.3981 29.3312 23.7755C29.1296 23.9348 28.9234 24.1434 28.6937 24.4434C28.6187 24.5653 28.525 24.6966 28.4218 24.8348C27.939 24.4669 27.4515 24.1059 26.9617 23.752ZM27.8945 21.2958C27.9015 21.4106 27.9015 21.5091 27.8851 21.6052C27.857 21.5817 27.8289 21.5559 27.8007 21.5349C26.9851 20.8599 26.1625 20.1755 25.3281 19.5028C25.3375 19.477 25.3515 19.4536 25.3656 19.4278C25.4945 19.1536 25.614 18.8935 25.7617 18.6427C26.4742 19.313 27.1961 19.988 27.9414 20.6442C27.8804 20.9091 27.8875 21.127 27.8945 21.2958ZM27.3156 22.1184C27.3765 22.1677 27.4398 22.2192 27.4984 22.2708C27.1867 22.6903 26.8421 23.0536 26.4765 23.4075C25.8203 22.9411 25.1617 22.4794 24.5125 22.0294L23.9851 21.6661C24.0086 21.6356 24.032 21.6099 24.0531 21.5817C24.2851 21.3099 24.5219 21.0286 24.7023 20.6653C24.8078 20.506 24.8898 20.3489 24.9718 20.1942C25.7687 20.8341 26.5468 21.4763 27.3156 22.1184ZM24.2008 20.377C24.0367 20.7028 23.8211 20.9583 23.6148 21.2044C23.5773 21.2466 23.5445 21.2888 23.5094 21.3309C22.5578 20.6349 21.5758 19.913 20.5586 19.2052C20.7227 18.9685 20.8937 18.7599 21.0508 18.6005C21.3039 18.3005 21.5195 17.9958 21.7117 17.6864C22.6586 18.3685 23.5937 19.088 24.5125 19.8239C24.4234 20.0067 24.3226 20.1919 24.2008 20.377ZM21.5992 16.681C20.432 15.8677 19.2367 15.1107 18.0063 14.4615C17.1156 13.9974 16.1828 13.6036 15.2453 13.2357C15.3696 13.1138 15.461 12.9708 15.4891 12.7951C15.6531 12.3099 15.3508 11.8107 15.0578 11.3255C14.9922 11.2201 14.9289 11.1122 14.8703 11.0021C16.0774 11.4451 17.2633 11.9232 18.3344 12.4997C19.6492 13.2896 20.8891 14.2435 22.0844 15.2677C21.9672 15.7716 21.8078 16.2427 21.5992 16.681ZM14.9266 12.6568C14.9008 12.7786 14.7649 12.8865 14.6032 12.9849C13.5532 12.5982 12.4914 12.249 11.4438 11.9044C11.0477 11.7755 10.654 11.6466 10.2602 11.5154C9.83364 11.3747 9.42583 11.2201 9.02271 11.0701C8.79771 10.9857 8.57506 10.9037 8.34537 10.824C8.50943 10.6224 8.68521 10.3974 8.68521 10.1279C8.6149 9.62866 8.37115 9.32163 8.17428 9.07085C8.04303 8.89976 7.92584 8.75445 7.89772 8.60445C7.89068 8.5482 7.88834 8.50132 7.88834 8.45211C8.83755 8.78726 9.77271 9.14585 10.6844 9.50444C11.4766 9.80913 12.3133 10.1021 13.1243 10.3833C13.4547 10.4958 13.7805 10.6177 14.1133 10.7302C14.2117 11.0583 14.3946 11.363 14.5586 11.6326C14.793 12.0193 15.018 12.3849 14.9266 12.6568ZM10.8836 27.4036C10.9821 27.2536 11.0969 27.0731 11.125 26.8645C11.6641 26.8551 12.2102 26.8528 12.7727 26.8528C13.3352 26.8715 13.9071 26.8833 14.4766 26.895C14.5047 26.8973 14.5328 26.8973 14.5633 26.8973C14.4719 27.1387 14.3852 27.2231 14.3078 27.2911C14.0735 27.4973 13.9821 27.6848 14.0407 28.2543C14.0383 28.5965 14.2446 28.8426 14.3899 29.0208C14.5282 29.1848 14.5914 29.2809 14.5446 29.4286H14.5305C14.5211 29.4684 14.5071 29.5012 14.4953 29.5411C14.4672 29.5903 14.4391 29.6395 14.3875 29.7028L14.4367 29.7379C14.425 29.7754 14.4157 29.8082 14.4039 29.8457C13.4032 29.9536 12.4399 30.1668 11.6149 30.5512C11.6969 30.3075 11.7157 30.0145 11.5914 29.6043C11.5446 29.2036 11.3266 28.8895 11.1344 28.6129C10.9469 28.3434 10.7688 28.0879 10.7266 27.7083C10.7243 27.6473 10.7993 27.5278 10.8836 27.4036ZM16.8367 56.1636C16.8461 56.1964 16.8625 56.2175 16.8719 56.248C16.9586 56.4659 16.9211 56.7964 16.8836 57.1151C16.8461 57.4292 16.811 57.7503 16.8602 58.0526C16.9258 58.4933 17.0406 58.8401 17.1789 59.1308C17.0055 59.3229 16.8274 59.5128 16.6492 59.7003C16.3703 59.2643 16.0117 58.9386 15.6578 58.6245C15.3742 58.3737 15.1024 58.1253 14.8821 57.8394C15.5266 57.2675 16.1781 56.7097 16.8367 56.1636ZM16.8977 49.6808C17.5586 49.0574 18.2313 48.448 18.8992 47.8433C20.2047 46.6644 21.5523 45.448 22.7734 44.1543C23.5023 43.348 24.2008 42.441 24.8898 41.4285C25.3351 42.6543 25.7476 43.9058 25.9281 45.141C23.3219 47.848 20.4273 48.7644 16.8977 49.6808ZM26.5586 45.7222L26.589 45.7199C26.5867 45.7011 26.582 45.68 26.582 45.666C27.0086 44.5714 27.4586 43.4676 27.932 42.3519C28.2156 44.3933 29.7132 46.1043 30.4046 46.7957L30.4843 46.7183C30.4585 46.9152 30.4351 47.1144 30.414 47.3113C30.3367 47.991 30.264 48.6308 30.107 49.1722C29.6218 50.7847 29.4062 52.2964 29.1789 53.9019C29.1296 54.2487 29.0804 54.6003 29.0289 54.9542C28.8812 55.8214 28.7898 56.6417 28.7359 57.4362C28.6867 57.4339 28.6281 57.4151 28.5554 57.373C27.2125 56.5433 25.6867 50.3558 25.5367 48.4925C25.8578 47.5691 26.2 46.648 26.5586 45.7222ZM28.5742 28.0247C28.2015 27.7294 27.8242 27.4317 27.4492 27.134C27.6695 26.7637 28.0375 26.2926 28.375 25.8591C28.3937 25.8356 28.4125 25.8145 28.4265 25.7934C28.907 26.1684 29.3804 26.5551 29.8421 26.9559C31.0234 27.9661 32.0992 29.2083 33.1374 30.4106C33.8054 31.1817 34.5015 31.9715 35.2257 32.7145C35.221 32.7332 35.2187 32.752 35.214 32.7684C32.8398 31.3996 30.6718 29.6887 28.5742 28.0247ZM34.8905 31.2239C34.4921 30.7856 34.096 30.352 33.714 29.9114C32.657 28.6903 31.5624 27.427 30.3414 26.3794C29.8656 25.9692 29.3804 25.5731 28.8906 25.1887C28.9984 25.0411 29.0968 24.9028 29.1742 24.7786C29.4085 24.4762 29.6054 24.2841 29.7999 24.1505C30.5031 24.7153 31.2085 25.2731 31.9117 25.8005C33.2382 26.7989 34.2976 28.0434 35.3007 29.2856C35.0077 29.9372 34.8484 30.6145 34.8905 31.2239ZM34.4851 27.1528C33.8452 26.4544 33.1538 25.7887 32.3617 25.1958C31.7781 24.7551 31.1898 24.2958 30.6038 23.827C30.6367 23.8177 30.6671 23.8106 30.6999 23.8012C30.9624 23.738 31.2859 23.6536 31.6702 23.5083C32.8609 25.013 33.8288 26.2786 34.4851 27.1528ZM28.7804 19.9599C29.1648 20.4192 29.5351 20.8716 29.8984 21.3099C29.4718 20.9677 29.057 20.6138 28.6445 20.2528C28.6796 20.1052 28.7171 20.0114 28.7804 19.9599ZM31.014 23.1145C30.8546 23.1637 30.7023 23.2013 30.5617 23.2364C30.3812 23.2809 30.2124 23.3231 30.0437 23.3817C29.4859 22.927 28.9257 22.4677 28.3773 22.0106C28.4968 21.7294 28.4875 21.488 28.4781 21.27C28.4734 21.2184 28.4757 21.1645 28.4757 21.1153C29.296 21.8161 30.1374 22.4958 31.014 23.1145ZM26.7086 17.5247C27.2945 18.1997 27.8617 18.863 28.4078 19.5145C28.3023 19.6013 28.2273 19.7138 28.1734 19.8356C27.5054 19.2356 26.8515 18.6239 26.2047 18.0192C26.3476 17.8505 26.5117 17.6864 26.7086 17.5247ZM22.9023 13.3154C24.0836 14.5693 25.232 15.8396 26.3242 17.0864C26.1132 17.2599 25.9328 17.438 25.7781 17.6161C24.7961 16.688 23.7953 15.7505 22.7594 14.8552C22.8508 14.3325 22.893 13.8169 22.9023 13.3154ZM25.3187 18.2185C25.3211 18.2232 25.3234 18.2255 25.3281 18.2302C25.15 18.5231 25.0047 18.8231 24.8617 19.1278C23.95 18.4013 23.0265 17.6935 22.0844 17.0185C22.2976 16.5802 22.457 16.1396 22.5765 15.6989C23.507 16.5193 24.4187 17.3747 25.3187 18.2185ZM22.314 12.6919C22.3234 13.3107 22.2953 13.8779 22.2297 14.4005C21.1117 13.463 19.9492 12.5865 18.707 11.8412C17.4367 11.1544 16.0399 10.6107 14.6383 10.1091C14.6477 10.0576 14.6641 10.006 14.6899 9.9521C14.8399 9.6521 15.4094 9.34507 15.9578 9.04976C16.5344 8.73804 17.1156 8.41226 17.4695 7.9857C19.1031 9.44585 20.7367 11.0466 22.314 12.6919ZM17.0359 7.60133C16.7594 7.9482 16.218 8.25055 15.6766 8.53883C15.0203 8.89507 14.4016 9.23023 14.1625 9.70366C14.1274 9.77397 14.1086 9.84663 14.0899 9.9146C13.8508 9.83257 13.6117 9.74819 13.3727 9.66382C12.5688 9.38491 11.7414 9.09663 10.9586 8.79664C10.0422 8.4357 9.09771 8.07476 8.14146 7.73961C8.17428 7.64117 8.19537 7.53102 8.19537 7.39742C8.19537 7.20289 8.23521 7.06227 8.27506 6.90055C8.33131 6.70133 8.3899 6.47868 8.3899 6.13415C8.35474 5.95837 8.29849 5.82009 8.22818 5.70759C8.49068 5.74743 8.74849 5.79196 9.02271 5.83884C10.0305 6.01227 11.0899 6.11306 12.1164 6.21149C13.4313 6.33805 14.7813 6.4693 16.0492 6.75758C16.375 7.02946 16.7055 7.31071 17.0359 7.60133ZM7.91647 3.83963C8.08287 3.20682 8.25865 2.51542 8.08053 1.75839C10.2438 2.49901 12.6391 4.0201 15.093 5.97712C14.1274 5.8154 13.1383 5.72165 12.168 5.6279C11.1532 5.53181 10.1055 5.43103 9.12115 5.25993C8.64537 5.18025 8.19068 5.10759 7.73834 5.03728C7.71959 4.98572 7.70787 4.92947 7.70787 4.86853C7.73365 4.54275 7.82272 4.20057 7.91647 3.83963ZM5.68523 2.88807C5.94773 2.27167 6.1071 1.80058 5.70632 1.26855C6.24538 1.29433 6.81491 1.38574 7.40084 1.54511C7.71725 2.29042 7.54615 2.97245 7.35631 3.68963C7.25787 4.05994 7.15709 4.44666 7.12663 4.84509C7.12663 4.88494 7.136 4.91306 7.14069 4.95056C6.53132 4.86619 5.94069 4.79353 5.36413 4.73259C5.30085 4.43494 5.2821 4.12791 5.36413 3.76697C5.45554 3.42948 5.57741 3.14354 5.68523 2.88807ZM1.3915 3.93104C1.73837 2.94198 2.63837 1.70448 4.92586 1.30371C5.52351 1.77245 5.42038 2.03261 5.15085 2.66073C5.03367 2.93026 4.90242 3.23729 4.79929 3.62401C4.70789 4.01541 4.70789 4.35525 4.75242 4.66931C3.5618 4.55681 2.40399 4.49822 1.2415 4.48416C1.279 4.299 1.32353 4.11385 1.3915 3.93104ZM1.18056 5.06775C2.40399 5.08181 3.62742 5.14509 4.89539 5.26931C4.93054 5.37712 4.96336 5.48493 5.00086 5.5904C5.1321 5.99118 5.25867 6.3779 5.27273 6.84665C4.84148 6.73415 4.41961 6.62868 3.9907 6.53962C3.10008 6.34274 2.19071 6.23962 1.29775 6.23962C1.20634 5.88337 1.16416 5.48259 1.18056 5.06775ZM1.82509 7.31071C1.74775 7.22633 1.67275 7.12086 1.60712 7.01071C2.34774 7.0318 3.09305 7.12086 3.83133 7.28258C4.23445 7.3693 4.63289 7.46774 5.03367 7.57086C4.94929 7.74898 4.88367 7.91539 4.88367 8.0818C4.88367 8.65601 5.07586 8.97476 5.24695 9.25601C5.33367 9.40366 5.42038 9.54663 5.48132 9.72944C5.54929 9.93335 5.57741 10.1044 5.59148 10.2708C5.51179 10.2708 5.4321 10.2708 5.34773 10.2732C4.90711 10.2802 4.36336 10.2896 3.96727 10.224C3.38368 9.28648 2.68055 8.31383 1.82509 7.31071ZM4.44305 11.0302C4.73601 11.0419 5.04773 11.0372 5.36413 11.0302C5.42273 11.0302 5.48367 11.0302 5.53992 11.0279C5.53288 11.0583 5.5282 11.0865 5.52116 11.1193C5.45554 11.499 5.37585 11.9302 5.47195 12.5068C5.51882 12.6943 5.61491 12.8724 5.72741 13.0482C5.63132 13.0622 5.53992 13.088 5.44851 13.1091C5.17898 12.4482 4.84617 11.7544 4.44305 11.0302ZM5.06648 23.4192C5.64304 22.9388 6.28757 21.6427 6.50788 19.8005C6.64616 19.8919 6.79147 19.9739 6.95553 20.0442C7.05866 20.2669 7.19928 20.4544 7.33522 20.6231C7.511 20.8411 7.6774 21.0497 7.71256 21.2653C7.70787 21.4481 7.57428 21.5958 7.35631 21.8138C7.15709 22.013 6.92975 22.2356 6.92975 22.5802C6.92975 23.0723 7.15475 23.4098 7.33756 23.6817C7.48991 23.9114 7.61178 24.0919 7.61178 24.3333C7.61178 24.4739 7.42194 24.7903 7.28131 25.0223C7.13366 25.2731 6.99069 25.5122 6.93913 25.7208C6.92506 25.8051 6.92506 25.8801 6.92506 25.9598C6.41179 25.927 5.89851 25.9505 5.43679 26.1169C5.39695 26.1309 5.35945 26.1426 5.31726 26.1567C5.33601 25.62 5.20476 25.1044 5.08757 24.6614C4.88601 23.8809 4.8532 23.5927 5.06648 23.4192ZM5.7321 30.5864C5.66882 29.8457 5.47195 28.3926 4.87664 27.4692C4.95398 27.3661 5.01492 27.2606 5.06882 27.1551C5.09226 27.1059 5.11335 27.0614 5.1321 27.0122C5.20007 26.9817 5.32195 26.9465 5.42507 26.9137C5.50242 26.888 5.58913 26.8645 5.68288 26.8317C6.10007 26.6817 6.60163 26.684 7.11959 26.7356C7.19928 26.9278 7.25084 27.0637 7.22272 27.1926C7.18522 27.5606 7.10553 27.8676 7.01647 28.1934C6.84069 28.852 6.65553 29.534 6.93913 30.4504L7.49928 30.2817C7.26491 29.5247 7.41256 28.9786 7.58365 28.3458C7.67272 28.0106 7.76647 27.6661 7.80162 27.2794C7.83678 27.1176 7.81334 26.9606 7.76881 26.813C7.81334 26.82 7.85553 26.8247 7.89772 26.8317C8.35006 26.8926 8.77427 26.9512 9.16802 26.9512C9.61568 26.9114 10.0657 26.895 10.5133 26.8786C10.4852 26.9348 10.4454 27.0051 10.3915 27.0872C10.279 27.2583 10.143 27.4739 10.143 27.7387C10.2016 28.2965 10.4407 28.6434 10.6516 28.9458C10.8297 29.1989 10.9821 29.4168 11.0196 29.7215C11.1836 30.2864 11.0641 30.4364 10.7665 30.7973C10.6282 30.9614 10.4641 31.1723 10.3047 31.4465C10.2415 31.5075 10.1758 31.5684 10.1172 31.634L10.2274 31.7301L5.7321 30.5864ZM9.47271 41.8176L9.45864 41.4426C9.36489 38.841 11.0735 32.6301 11.0922 32.5692L11.0969 32.5481C11.1016 32.5528 11.111 32.5528 11.1157 32.5575C11.2399 32.6582 11.2586 32.9348 11.275 33.2278C11.2844 33.3567 11.2938 33.4856 11.3079 33.6168C11.3079 33.6965 11.2352 33.8254 11.1532 33.9707C11.043 34.1606 10.9188 34.3785 10.9188 34.6504C10.9188 35.0067 11.1063 35.2504 11.2446 35.4262C11.343 35.5574 11.4039 35.6418 11.4039 35.7192L11.411 35.7824C11.5821 36.5559 11.3758 37.2355 11.1602 37.9574C10.9235 38.7402 10.6868 39.5512 10.9 40.5215C10.4618 41.1847 10.0211 41.8082 9.48911 42.3121C9.48208 42.1457 9.4774 41.9863 9.47271 41.8176ZM10.8157 47.4074C9.84067 46.2636 9.61568 44.8574 9.52427 43.0527C10.1594 42.5441 10.6727 41.8972 11.1391 41.2129C11.2188 41.3769 11.3079 41.5433 11.3969 41.7004C11.6407 42.1363 11.8891 42.5816 11.8891 43.0199C11.8891 43.3621 11.8071 43.6152 11.711 43.9105C11.5868 44.2925 11.4461 44.7285 11.5024 45.3824C11.5586 45.6683 11.6477 45.9191 11.7485 46.1558C11.4625 46.58 11.1532 47.0019 10.8157 47.4074ZM12.0813 50.2808C11.9899 49.4933 11.7696 48.7035 11.2938 48.0167C11.5961 47.6652 11.8704 47.3019 12.1305 46.9363C12.2946 47.2644 12.4375 47.5785 12.4727 47.916C12.5828 48.4082 12.461 48.7831 12.3227 49.2167C12.2266 49.5144 12.1258 49.8214 12.0836 50.187C12.086 50.2245 12.0883 50.248 12.0813 50.2808ZM12.2032 53.7683L12.175 53.6136C12.1211 53.33 12.1305 52.8566 12.1422 52.355C12.1516 52.0386 12.1563 51.6988 12.1516 51.3402C12.3063 51.9238 12.6414 52.2894 12.993 52.6644C13 52.6738 13.0071 52.6808 13.0164 52.6902C12.7352 53.0417 12.461 53.4003 12.2032 53.7683ZM13.1407 58.6808L12.4 54.8042L12.4047 54.8066C12.7469 54.2792 13.1266 53.7777 13.518 53.2831C13.6071 53.405 13.6938 53.5269 13.7805 53.6769C14.2117 54.3777 14.1063 54.8511 13.9774 55.4487C13.893 55.8214 13.7992 56.2503 13.8391 56.7659C13.8836 57.1433 13.9891 57.4597 14.1321 57.7362C13.7969 58.0433 13.4664 58.3573 13.1407 58.6808ZM13.2766 59.3722C13.6539 58.9831 14.0477 58.6058 14.4532 58.2354C14.7016 58.5565 14.9922 58.819 15.2711 59.0651C15.6344 59.3909 15.9813 59.7003 16.2156 60.1034C16.2227 60.1175 16.2274 60.1292 16.2344 60.1432C15.9274 60.4643 15.6227 60.7784 15.325 61.0854C14.8774 61.5471 14.4485 61.9948 14.0383 62.4331C13.7922 61.2636 13.5063 60.4081 13.4313 60.1925L13.2766 59.3722ZM18.6695 67.5588C18.4 67.4979 18.1234 67.4557 17.8375 67.4557C16.3399 67.4557 14.936 68.2995 13.9328 68.9557C14.6055 67.0877 14.4696 64.8846 14.1719 63.1432C14.6617 62.6065 15.1938 62.0628 15.7446 61.4932C15.9625 61.2659 16.1781 61.0386 16.4055 60.8042C16.368 61.1768 16.068 61.4651 15.6133 61.8565C15.0602 62.3323 14.3735 62.9229 14.4227 63.9565C14.4719 64.6081 15.0555 65.1565 15.536 65.501C16.4125 66.1362 17.8258 66.6846 18.7445 66.5909C18.7352 66.6237 18.7211 66.6612 18.7141 66.694C18.6438 66.9002 18.6109 67.1088 18.5828 67.2752C18.5688 67.3573 18.55 67.4627 18.5359 67.4932C18.543 67.4768 18.5781 67.4323 18.6414 67.4065C18.7094 67.3807 18.7656 67.3971 18.7797 67.4041L18.6695 67.5588ZM18.9391 65.9534C18.9016 65.9674 18.8688 65.9885 18.8313 65.9979C18.1914 66.1573 16.8133 65.7073 15.8758 65.0323C15.3461 64.6526 15.0321 64.2495 15.0063 63.9237C14.9688 63.1854 15.4656 62.7565 15.993 62.3042C16.5461 61.8284 17.2188 61.2518 16.9211 60.2698C17.1133 60.0682 17.3078 59.8597 17.5 59.6487C17.7508 59.9698 18.0484 60.2065 18.3555 60.4503C18.6766 60.7057 19.0117 60.9753 19.3234 61.3714C19.3305 61.744 19.3258 62.0862 19.293 62.3581C19.2883 63.3331 19.2883 64.4065 19.1008 65.3487C19.0586 65.5479 18.9977 65.7518 18.9391 65.9534ZM21.3883 66.9143C20.5961 66.9143 20.2492 67.1135 19.9422 67.2893C19.7359 67.4065 19.5273 67.519 19.1125 67.5963C19.1313 67.5284 19.1477 67.451 19.1594 67.369C19.1852 67.219 19.2133 67.0409 19.2766 66.8557C19.3211 66.687 19.3727 66.5206 19.4266 66.3518C19.7008 66.1784 19.9375 65.9393 20.1508 65.7167C20.3805 65.4776 20.6172 65.2315 20.7976 65.201C21.1258 65.1284 21.2312 65.2456 21.4891 65.5995C21.5969 65.7448 21.7281 65.9182 21.8945 66.0706C21.9484 66.3682 22.0094 66.6588 22.075 66.9471C21.8172 66.9284 21.5851 66.9143 21.3883 66.9143ZM19.6867 65.3557C19.832 64.5753 19.8625 63.7456 19.8672 62.9628C19.8883 62.9909 19.9023 63.019 19.9258 63.0448C20.3242 63.7409 20.8469 63.8979 21.4 64.0667C21.4773 64.0924 21.557 64.1159 21.6391 64.1393C21.6625 64.4135 21.6859 64.6854 21.7187 64.9596C21.4937 64.7159 21.1891 64.519 20.6828 64.6292C20.3266 64.6878 20.0336 64.9924 19.7266 65.3159C19.7148 65.3299 19.6984 65.3417 19.6867 65.3557ZM21.5945 63.5135C21.5851 63.5112 21.5805 63.5112 21.5734 63.5089C21.0508 63.3542 20.7086 63.2487 20.4203 62.7331L20.3687 62.6675C20.2586 62.5526 20.2328 62.3417 20.2023 62.0979C20.1695 61.8073 20.1156 61.4628 19.8977 61.1581C19.8859 60.8604 19.8719 60.5464 19.8555 60.2253C19.7805 58.7651 19.6984 57.1058 20.2 56.4331L20.1719 56.4097C20.4227 56.0605 20.6664 55.7042 20.8961 55.3386C21.6555 54.012 22.3492 52.8191 23.2234 51.5558C23.3312 51.4175 23.4695 51.2464 23.6242 51.0566C23.7508 50.9019 23.8844 50.7308 24.0226 50.5574C23.2867 52.8214 22.6515 55.0456 22.1265 57.2394C21.6461 59.2292 21.475 61.3925 21.5945 63.5135ZM26.6242 66.8135C25.7945 66.8135 25.1593 67.0081 24.7258 67.3901C23.9945 67.2448 23.3875 67.1346 22.8719 67.0526C22.8273 66.8721 22.7875 66.694 22.7476 66.5135C23.4555 66.6799 24.0765 66.4456 24.6414 66.2206C25.1195 66.0307 25.5742 65.8503 26.0781 65.8877C26.6453 65.9627 27.1586 66.394 27.6531 66.8088C27.7 66.8487 27.7445 66.8838 27.7914 66.9237C27.4187 66.8581 27.0156 66.8135 26.6242 66.8135ZM28.9164 67.0127C28.6281 66.8627 28.3421 66.619 28.0304 66.3635C27.4726 65.8971 26.8937 65.412 26.139 65.3112C25.4804 65.262 24.9461 65.4753 24.4281 65.6815C23.8047 65.9252 23.2609 66.1338 22.6258 65.8643C22.5461 65.4073 22.4805 64.9432 22.4336 64.4745C22.5039 64.519 22.5789 64.5518 22.6562 64.5987C23.3195 64.9573 23.7789 65.1893 24.1281 65.1049C24.5617 65.0557 24.9109 64.7417 25.2508 64.437C25.5672 64.1557 25.8695 63.8885 26.2304 63.8464C26.7672 63.8487 28.2531 64.5096 29.214 65.112C29.0687 65.8784 28.9726 66.5346 28.9164 67.0127ZM29.3382 64.5049C28.3046 63.8815 26.875 63.2604 26.2023 63.2604C25.6234 63.3237 25.2203 63.6823 24.8664 63.9964C24.5804 64.2471 24.3109 64.4909 24.025 64.5284C23.8281 64.5682 23.2281 64.2401 22.9398 64.0831C22.7312 63.9682 22.5367 63.8628 22.3726 63.7924C22.218 61.6456 22.382 59.4448 22.8719 57.4128C23.4765 54.8816 24.2265 52.3081 25.1195 49.6808C25.5812 52.273 26.8586 56.998 28.2484 57.8558C28.4148 57.9589 28.5671 57.9987 28.7078 58.0011C28.621 60.1011 28.8625 62.0065 29.4625 63.9424C29.4132 64.1393 29.3757 64.3221 29.3382 64.5049ZM29.746 62.7917C29.3031 60.9823 29.1742 59.1518 29.3429 57.1175C29.671 57.8276 30.1374 58.3831 30.6531 58.9925C30.7468 59.1026 30.8429 59.2198 30.939 59.3347C30.4328 60.5136 30.0414 61.6948 29.746 62.7917ZM31.2015 58.737C31.1663 58.6948 31.1335 58.655 31.096 58.6128C30.3343 57.7128 29.732 57.0003 29.5328 55.7323L29.4976 55.737C29.5304 55.5026 29.5562 55.2753 29.5984 55.0339C29.6523 54.673 29.7039 54.3167 29.7507 53.9698C29.9359 52.6808 30.1187 51.4456 30.4328 50.1824C30.5499 51.087 30.8335 51.9003 31.1124 52.58C31.2038 52.8097 31.3093 53.1144 31.4242 53.4495C31.7453 54.387 32.1343 55.5144 32.6288 56.18C32.0804 57.0003 31.607 57.8628 31.2015 58.737ZM32.9921 55.6855C32.6007 55.0761 32.2538 54.0612 31.982 53.2691C31.8624 52.9222 31.7523 52.6058 31.6585 52.3644C30.9835 50.7331 30.8078 49.4535 31.089 48.2089L30.8945 48.1621C30.9296 47.9089 30.9601 47.6418 30.9929 47.3699C31.1148 46.2918 31.2437 45.1855 31.7359 44.4074C32.0031 45.4363 32.3781 46.4558 32.7507 47.4589C32.9499 47.998 33.1445 48.53 33.3179 49.048L33.3296 49.0433C33.346 51.0683 33.5148 52.9738 33.9179 54.5394C33.5898 54.9027 33.2827 55.2894 32.9921 55.6855ZM33.9437 40.3457C32.8843 39.4926 32.2632 38.5457 32.0617 37.4816C32.0851 36.0027 32.1249 34.5028 32.3265 33.1364L32.296 33.1317C32.3077 33.1082 32.3218 33.0848 32.3312 33.0637C33.1913 33.4153 34.082 33.6824 35.0077 33.8231C35.0007 33.8535 34.996 33.8887 34.9913 33.9168C34.4241 35.2129 33.9695 36.959 34.1406 38.9582C34.0726 39.4105 34.0046 39.8746 33.9437 40.3457ZM70.0747 1.20996C72.3622 1.61308 73.2599 2.85057 73.6115 3.83729C73.6724 4.0201 73.7216 4.20525 73.7568 4.39275C72.5966 4.40681 71.4435 4.46306 70.2482 4.57556C70.2974 4.26385 70.2974 3.924 70.2013 3.5326C70.1005 3.14588 69.9646 2.83885 69.8521 2.56698C69.5802 1.93886 69.4794 1.6787 70.0747 1.20996ZM67.6021 1.45136C68.188 1.29433 68.7529 1.20292 69.2966 1.1748C68.8958 1.70917 69.0529 2.18261 69.3177 2.79667C69.4279 3.04745 69.5521 3.33338 69.6412 3.67088C69.7255 4.03416 69.7044 4.34119 69.6435 4.63884C69.0669 4.69744 68.4763 4.77244 67.8669 4.85916C67.8716 4.82166 67.881 4.79119 67.881 4.75134C67.8482 4.35291 67.7451 3.96854 67.649 3.59588C67.4591 2.88104 67.2857 2.19901 67.6021 1.45136ZM68.4177 18.7669C68.331 18.8841 68.2162 18.9872 68.0755 19.081C68.0357 18.9825 68.0029 18.8864 67.9607 18.795C67.8669 18.5677 67.7779 18.3544 67.7755 18.1388C67.8248 17.6513 68.0123 17.206 68.2091 16.7349C68.3779 16.3294 68.5537 15.9099 68.6497 15.4411C68.7013 15.1693 68.7013 14.8904 68.7013 14.5927C68.7013 14.3349 68.7013 14.0677 68.7435 13.8099C68.7599 13.7677 68.7927 13.7232 68.8091 13.681C68.9708 13.681 69.1302 13.6997 69.2708 13.7302C68.5349 15.7997 68.3826 17.5271 68.4177 18.7669ZM67.4287 19.02C67.4779 19.1396 67.5177 19.245 67.5482 19.3411C66.8451 19.6013 65.8771 19.7372 64.9466 19.8169C64.9513 19.7841 64.9466 19.763 64.956 19.7255C64.9795 19.606 65.1576 19.4724 65.3451 19.3294C65.631 19.1114 65.9849 18.8419 66.1185 18.3872L66.1302 18.3075C66.1302 18.045 65.9826 17.7849 65.8232 17.5107C65.6896 17.281 65.5466 17.0255 65.5443 16.8825C65.5982 16.4232 65.767 16.2169 65.9779 15.9544C66.0834 15.8255 66.1912 15.6966 66.2966 15.5138C66.4584 15.1833 66.5685 15.0732 66.6388 15.0029C66.8638 14.7755 66.8709 14.6279 66.8193 14.0185C67.2552 13.9013 67.7216 13.7841 68.174 13.7208C68.1248 14.0232 68.1248 14.3115 68.1248 14.5904C68.1248 14.8575 68.1248 15.1107 68.0826 15.3239C68.0005 15.7364 67.8412 16.1091 67.6748 16.5075C67.4709 16.995 67.2552 17.5013 67.2013 18.106C67.1966 18.4739 67.3185 18.7646 67.4287 19.02ZM67.2177 25.2309C67.3326 25.4255 67.4638 25.6481 67.492 25.7512C67.5013 25.8098 67.5013 25.8661 67.4966 25.9223C67.3279 25.9434 67.1544 25.9669 66.9951 25.988C66.5709 26.0442 66.1724 26.1005 65.8654 26.1028C65.5138 26.0723 65.1506 26.0536 64.792 26.0419C64.8271 25.9809 64.8506 25.9176 64.8576 25.8497C64.8881 25.7583 64.9466 25.688 65.024 25.5965C65.1623 25.4348 65.3474 25.2122 65.3474 24.8278C65.3474 24.563 65.1646 24.3801 65.0193 24.2325C64.9631 24.1786 64.8693 24.0848 64.8599 24.0216C64.8318 23.7684 64.8107 23.6161 64.792 23.5106C64.7662 23.3653 64.7662 23.3653 64.8599 23.1052C64.9021 22.9833 64.9607 22.8192 65.031 22.6059C65.1201 22.395 65.2162 22.3106 65.3146 22.2239C65.5466 22.0177 65.706 21.8231 65.6357 21.1856C65.5912 20.8974 65.4646 20.7028 65.3263 20.5481C65.9591 20.4872 66.5802 20.3981 67.1404 20.2575C66.9529 20.4942 66.763 20.7614 66.7045 21.1317C66.7045 21.6216 67.0068 21.9216 67.2318 22.1419C67.3865 22.2966 67.4826 22.3997 67.4826 22.4934C67.4826 22.8075 67.3373 23.0208 67.1755 23.2692C66.9998 23.5294 66.8005 23.827 66.8005 24.2442C66.8052 24.5442 67.0068 24.877 67.2177 25.2309ZM64.2107 23.602C64.2295 23.6981 64.2552 23.8411 64.2717 24.0427C64.2717 24.3098 64.4545 24.4903 64.5998 24.6403C64.656 24.6942 64.7498 24.788 64.7591 24.8208C64.7591 24.9848 64.7006 25.0645 64.5716 25.2122C64.4685 25.3387 64.3373 25.4911 64.2763 25.763C64.2646 25.7958 64.206 25.8778 64.1638 25.934C64.1451 25.9598 64.1217 25.9856 64.1052 26.0137C63.4912 25.9997 62.8677 25.9997 62.2162 25.9973C61.6396 26.0161 61.0724 26.0278 60.5076 26.0419C60.4514 26.0419 60.3881 26.0442 60.3318 26.0442C60.3623 25.9833 60.4068 25.9317 60.4748 25.8661C60.6201 25.7184 60.817 25.5169 60.9576 25.0926C61.0068 24.8958 61.0514 24.7645 61.0795 24.6778C61.1428 24.4716 61.1849 24.3356 61.0326 24.1481C60.9881 24.0989 60.8967 23.9887 60.7584 23.5598C60.6131 23.1286 60.3928 22.9739 60.2123 22.8755C60.231 22.8145 60.2685 22.6997 60.3623 22.4958C60.4115 22.3739 60.606 22.2567 60.8029 22.1442C61.1451 21.9403 61.574 21.6872 61.649 21.1224C61.649 21.0309 61.6303 20.9513 61.5998 20.8763C61.7053 20.8552 61.8107 20.8317 61.9115 20.8153C62.2959 20.7427 62.8959 20.7075 63.5967 20.6677C63.9177 20.6489 64.2506 20.6278 64.5881 20.6044C64.649 20.6817 64.7146 20.7497 64.7732 20.8106C64.9185 20.9559 65.0287 21.0684 65.0568 21.2536C65.099 21.6309 65.0568 21.6684 64.9279 21.7833C64.8013 21.8934 64.6349 22.0411 64.4849 22.395C64.4099 22.627 64.3513 22.7888 64.3115 22.9059C64.1802 23.2716 64.1685 23.3184 64.2107 23.602ZM63.3365 34.1653C63.4209 34.3129 63.4935 34.4371 63.4935 34.5543C63.4935 34.7043 63.4185 34.8121 63.2896 34.9762C63.1701 35.1309 63.0201 35.3254 63.006 35.5926C62.8138 36.502 63.0506 37.2824 63.2756 38.0348C63.4373 38.5715 63.592 39.0965 63.5967 39.6566C63.0787 38.8621 62.5349 38.0676 61.8389 37.4535C61.5365 37.184 61.2389 36.9285 60.9412 36.6848C60.9904 36.5699 61.0373 36.4481 61.0607 36.3098C61.0607 35.9676 60.9529 35.6699 60.8498 35.3817C60.7584 35.1309 60.6717 34.8942 60.6717 34.6528C60.6717 34.2778 60.8381 33.9778 61.0139 33.659C61.1545 33.4082 61.2951 33.1457 61.349 32.8504C61.4873 32.0254 61.2014 31.3246 60.9014 30.5793C60.8709 30.509 60.8498 30.4364 60.8193 30.3661C62.1951 30.5418 63.4584 30.9356 64.2834 31.7606L64.0959 31.8098C63.8568 31.8286 63.6646 31.8871 63.5193 32.0067C63.1935 32.2668 63.1701 32.6864 63.142 33.0942C63.1349 33.2114 63.1256 33.3309 63.1092 33.4856C63.1092 33.7574 63.231 33.9731 63.3365 34.1653ZM62.7342 43.9972C62.8537 44.3558 62.9685 44.7004 62.9193 45.2043C62.9006 45.291 62.8771 45.3754 62.8513 45.4597C62.4974 44.8972 62.1599 44.33 61.8342 43.7652C61.3818 42.9894 60.9178 42.2043 60.3975 41.4426C60.4209 41.3699 60.4467 41.2949 60.4678 41.2176C60.6131 40.791 60.7724 40.3058 60.7701 39.6684C60.7256 39.3496 60.606 39.0894 60.5029 38.8551C60.36 38.5457 60.2404 38.2762 60.2873 37.859C60.2873 37.6457 60.4373 37.4441 60.6154 37.2121C60.6248 37.2004 60.6342 37.191 60.6435 37.1793C60.9107 37.4043 61.1803 37.6363 61.4592 37.8801C62.1904 38.527 62.7599 39.4152 63.3131 40.273C63.367 40.3551 63.4232 40.4348 63.4771 40.5191C63.3951 40.7676 63.2498 41.0324 63.0974 41.309C62.8185 41.8082 62.5303 42.3261 62.5303 42.9168C62.5256 43.3621 62.631 43.6879 62.7342 43.9972ZM62.1201 49.3035C62.2068 49.573 62.2959 49.8519 62.3334 50.1566C62.4435 51.2277 62.1131 51.6027 61.6115 52.1417C61.0795 51.5159 60.5287 50.9206 59.9568 50.3347C60.0435 50.1566 60.1631 49.9597 60.3435 49.6902C61.0654 48.448 60.9365 48.0613 60.6482 47.4894C60.5029 47.2128 60.3506 46.8941 60.285 46.3011C60.2357 45.8652 60.3881 45.6191 60.5615 45.3355C60.6881 45.1269 60.817 44.9113 60.8709 44.5832C60.8709 43.9246 60.7021 43.6668 60.5381 43.423C60.4373 43.2754 60.3459 43.1324 60.2779 42.8652C60.2568 42.7715 60.2545 42.6871 60.2451 42.6004C60.5615 43.1113 60.8685 43.6269 61.1732 44.1566C61.5881 44.8715 62.0123 45.5886 62.4904 46.3035C62.4717 46.3339 62.4576 46.3621 62.4412 46.3902C62.2232 46.8191 61.9982 47.2574 61.9443 47.7332C61.8107 48.3449 61.9631 48.8324 62.1201 49.3035ZM60.4537 55.4769C60.531 55.8308 60.6084 56.1987 60.5803 56.6136C60.5521 56.8456 60.4982 57.0495 60.4209 57.2323C59.7787 56.6581 59.1154 56.105 58.4615 55.5542C58.5529 55.43 58.6514 55.3105 58.7545 55.1839C59.0686 54.8066 59.3896 54.4175 59.4928 53.9183C59.6217 53.5362 59.6053 53.0394 59.5865 52.5613C59.5748 52.2331 59.5631 51.898 59.6006 51.6449L59.6498 51.4105C59.6685 51.3167 59.685 51.2347 59.699 51.155C60.1889 51.6613 60.66 52.1816 61.1123 52.7159C60.9764 52.8823 60.8474 53.0652 60.7256 53.2831C60.1678 54.1761 60.3107 54.837 60.4537 55.4769ZM57.5404 57.0894C57.5686 57.3612 57.6014 57.6401 57.5639 57.8698C57.524 58.1394 57.4654 58.3643 57.3951 58.5636C56.3873 57.4409 55.4123 56.2409 54.6084 54.9448C53.8467 53.6159 53.1459 52.4113 52.2483 51.1152C52.185 51.0331 52.11 50.9441 52.0373 50.848C52.042 50.8503 52.0444 50.855 52.0467 50.8574C52.9209 51.537 53.7436 52.1769 54.8311 53.1589C55.7451 54.0331 56.7342 54.8675 57.7045 55.6737C57.6553 55.7628 57.6178 55.8542 57.5826 55.9503C57.4467 56.2948 57.4912 56.698 57.5404 57.0894ZM55.7334 57.5183C56.1764 58.069 56.6381 58.6034 57.0975 59.119C56.8772 59.4284 56.5959 59.6511 56.2818 59.8972C56.099 60.0425 55.9045 60.1995 55.71 60.3753C55.7147 60.3073 55.7193 60.2323 55.7217 60.1597C55.7733 59.2409 55.8108 58.3128 55.7334 57.5183ZM55.2225 52.7323C54.1092 51.7316 53.2795 51.0847 52.4006 50.398C51.8358 49.9574 51.2452 49.491 50.5561 48.9191C50.4764 48.7949 50.4038 48.6777 50.3311 48.5652C50.2444 48.3167 50.153 48.0636 50.0639 47.8175V47.6535L50.0147 47.6792C50.0147 47.6746 50.0147 47.6699 50.01 47.6628C50.0194 47.4824 49.9959 47.3207 49.8553 47.2316C49.7381 46.9082 49.6163 46.5894 49.5014 46.266C52.2717 48.7011 55.4029 49.5074 58.9514 50.4167V50.4097C59.0381 50.4964 59.1248 50.5831 59.2115 50.6699C59.1623 50.8527 59.1225 51.0495 59.0732 51.305L59.024 51.5488C58.9771 51.8652 58.9912 52.2308 59.0053 52.5823C59.0193 53.0089 59.0334 53.4519 58.9326 53.7636C58.8459 54.155 58.5834 54.4761 58.3021 54.8112C58.2037 54.9308 58.1076 55.055 58.0115 55.1769C57.074 54.3917 56.1084 53.5808 55.2225 52.7323ZM43.6421 41.3488C43.5647 40.266 43.5507 39.1129 43.5343 37.9926C43.5155 36.802 43.4944 35.5856 43.403 34.409C44.6241 36.8254 45.7303 39.1762 46.7288 41.4824L46.5296 41.4894C46.5788 43.4277 45.2288 45.1691 44.4296 46.0316C44.2796 45.1035 44.0218 44.2246 43.4311 43.5894C43.5882 42.8418 43.6702 42.0965 43.6421 41.3488ZM41.303 32.6465C43.2858 31.3903 45.1163 29.9442 46.8975 28.5309C49.0866 26.7942 51.3483 24.9966 53.849 23.602C54.224 23.4005 54.6154 23.2083 55.0115 23.0208C55.26 23.3114 55.5904 23.452 55.8553 23.5575C56.2818 23.7309 56.392 23.7919 56.31 24.1294C56.2537 24.202 56.0686 24.2794 55.9209 24.3427C55.6045 24.4762 55.2154 24.6426 55.1287 25.0692C55.042 25.5872 55.3561 25.8286 55.5365 25.9739C55.642 26.0512 55.7006 26.1051 55.7147 26.1473C55.724 26.1942 55.7287 26.2598 55.7334 26.3137C55.028 26.4028 54.3178 26.5223 53.5936 26.6911C51.1373 27.1715 48.9389 28.5333 46.8061 29.8528C45.0436 30.9426 43.2319 32.0512 41.303 32.6465ZM43.0608 41.3793C43.1311 43.2847 42.4069 45.2582 41.7015 47.1636C41.685 47.2128 41.6663 47.255 41.6522 47.3042C41.596 45.1761 41.3968 42.973 41.1413 40.9269C41.9569 40.3199 42.5616 39.6684 42.9694 38.9559C42.9835 39.7785 43.0046 40.5941 43.0608 41.3793ZM39.7749 32.6231C40.4991 31.8801 41.1905 31.0903 41.8632 30.3168C42.9014 29.1168 43.9772 27.8747 45.1585 26.8622C45.6202 26.4637 46.0913 26.077 46.5741 25.6997C46.5928 25.7231 46.6116 25.7442 46.6233 25.7653C46.9631 26.2012 47.3288 26.6723 47.5514 27.0426C47.1741 27.3403 46.7967 27.6379 46.4264 27.9333C44.3288 29.595 42.1679 31.3082 39.7843 32.677C39.7796 32.6582 39.7772 32.6418 39.7749 32.6231ZM65.3123 17.7989C65.4013 17.9583 65.5162 18.1528 65.5373 18.2677C65.4482 18.5114 65.2255 18.6849 64.9888 18.863C64.7263 19.0646 64.4521 19.2731 64.3795 19.6013C64.3607 19.695 64.3513 19.7794 64.3466 19.8591C64.0677 19.8778 63.8006 19.8942 63.5498 19.9083C62.8232 19.9528 62.2045 19.988 61.7732 20.0677C61.499 20.1169 61.2248 20.1731 60.9435 20.2317C60.6787 20.0583 60.5498 19.9481 60.5779 19.7583C60.5779 19.5263 60.7514 19.3833 61.0443 19.1653C61.356 18.931 61.7451 18.638 61.7451 18.1036C61.7451 17.3208 61.3045 16.9903 60.981 16.7536C60.7701 16.5989 60.6154 16.4771 60.5826 16.2568C62.249 15.4224 63.9927 14.731 65.8255 14.288C65.9521 14.2575 66.0974 14.2154 66.2404 14.1755C66.2498 14.349 66.2498 14.5224 66.2169 14.588C66.1255 14.6818 65.9709 14.8364 65.7763 15.2279C65.699 15.3638 65.6076 15.4739 65.5209 15.5818C65.2935 15.8607 65.0404 16.1771 64.9584 16.838C64.956 17.1778 65.1459 17.5107 65.3123 17.7989ZM59.917 23.3864C60.0178 23.438 60.1139 23.4872 60.2006 23.745C60.3435 24.1669 60.4514 24.3544 60.5334 24.4622C60.5287 24.4762 60.524 24.4903 60.517 24.5067C60.4889 24.6005 60.4514 24.7364 60.3928 24.9262C60.3014 25.2075 60.1818 25.3317 60.0529 25.463C59.8889 25.6317 59.7553 25.7958 59.7201 26.063C58.574 26.0887 57.4443 26.1309 56.31 26.2458C56.3006 26.1708 56.2912 26.0864 56.2772 26.0184C56.2139 25.763 56.0311 25.6176 55.8928 25.5098C55.717 25.3716 55.6725 25.3317 55.6959 25.1723C55.7193 25.0575 55.9443 24.9637 56.1436 24.8794C56.4014 24.7692 56.699 24.6426 56.8397 24.3684L56.8631 24.3098C57.0834 23.4309 56.4975 23.1895 56.0662 23.0161C55.8881 22.9411 55.7147 22.8684 55.5693 22.7583C57.2803 22.0013 59.1389 21.3966 60.9974 20.9981C61.0326 21.0309 61.0514 21.0591 61.056 21.0825C61.0209 21.3145 60.817 21.4481 60.4889 21.645C60.2146 21.8067 59.9334 21.9778 59.8115 22.2708C59.5865 22.7958 59.4646 23.1567 59.917 23.3864ZM60.3014 35.5809C60.3928 35.8317 60.4771 36.0684 60.4795 36.2606C60.4795 36.2746 60.4701 36.2887 60.4678 36.3051C58.9326 35.1074 57.4068 34.2965 55.5576 34.0762C55.1334 34.0106 54.7139 33.9356 54.285 33.8653C53.8959 33.7996 53.5022 33.734 53.1084 33.6707C53.5397 32.4637 53.8467 31.2707 53.8514 30.2043C54.4045 30.2442 54.967 30.277 55.5084 30.277C55.6819 30.277 55.8623 30.2747 56.0522 30.27C56.0897 30.3028 56.1295 30.3332 56.1787 30.352L56.2256 30.2676C56.3779 30.2629 56.5373 30.2606 56.699 30.2559C57.7584 30.2301 58.9818 30.2043 60.1631 30.3028C60.2264 30.4715 60.292 30.6403 60.3576 30.802C60.6389 31.4981 60.8826 32.1004 60.7724 32.759C60.7396 32.9559 60.6271 33.1621 60.5053 33.3801C60.3107 33.7293 60.0857 34.1301 60.0857 34.6574C60.0904 34.9973 60.2006 35.2949 60.3014 35.5809ZM59.7061 46.3644C59.781 47.0628 59.9803 47.4589 60.1279 47.7472C60.3412 48.1761 60.4396 48.3707 59.8514 49.3808C59.7154 49.5847 59.61 49.7511 59.5256 49.9058C58.5764 48.9706 57.5873 48.0707 56.61 47.1894C56.2818 46.8941 55.9584 46.5988 55.6279 46.2988C55.785 45.3871 55.6139 44.5785 55.4475 43.7933C55.3209 43.2261 55.2014 42.6402 55.2014 42.0144C55.2014 41.5832 55.2904 41.1637 55.3889 40.7137C55.485 40.2566 55.5881 39.7855 55.5881 39.2934C55.5881 38.7426 55.4756 38.2645 55.3303 37.7863C56.0897 38.2293 56.7858 38.684 57.3295 39.1316C58.3115 39.9285 59.0521 40.8215 59.7131 41.7707C59.6381 42.1316 59.6123 42.5277 59.7201 42.9918C59.8139 43.3621 59.9521 43.5707 60.0623 43.7371C60.1982 43.9433 60.299 44.091 60.3037 44.5269C60.2732 44.7004 60.1795 44.855 60.074 45.0261C59.8701 45.3449 59.6287 45.7339 59.7061 46.3644ZM59.9756 40.8543C59.3662 40.034 58.6701 39.2488 57.8029 38.5504C56.4834 37.4559 54.3647 36.3637 52.4311 35.4192C52.5928 35.0278 52.7569 34.6317 52.9069 34.2332C53.3405 34.3012 53.7647 34.3715 54.1936 34.4442C54.6248 34.5145 55.0467 34.5871 55.4826 34.6551C57.2404 34.866 58.6982 35.6582 60.1818 36.8231C60.1725 36.8395 60.1584 36.8535 60.149 36.8699C59.9381 37.1488 59.7014 37.4629 59.7061 37.8355C59.6381 38.3746 59.8139 38.7637 59.9685 39.1082C60.067 39.3238 60.1584 39.5254 60.1912 39.7199C60.1912 40.1418 60.0904 40.4957 59.9756 40.8543ZM55.8061 29.6864C55.71 29.6887 55.6092 29.6887 55.5178 29.6887C54.8217 29.6887 54.0928 29.6372 53.3803 29.5833C52.41 29.5129 51.4069 29.4379 50.4577 29.4942C50.1202 29.4942 49.6467 29.6184 49.0983 29.7614C48.8311 29.8293 48.3881 29.9418 47.992 30.0122C49.8225 28.8918 51.7186 27.8301 53.7553 27.4294C54.4373 27.27 55.1053 27.1575 55.7686 27.0731C55.7686 27.3192 55.7639 27.5817 55.7592 27.8442C55.7404 28.6645 55.7334 29.2715 55.8061 29.6864ZM49.2413 30.3262C49.71 30.2043 50.1975 30.0778 50.4717 30.0778C51.3998 30.0262 52.3819 30.0965 53.3381 30.1668C53.3873 30.1692 53.4389 30.1739 53.4858 30.1762H53.2748C53.2748 31.2004 52.9537 32.3793 52.5225 33.5793C51.6389 33.4481 50.7506 33.3356 49.8858 33.291C49.5084 33.2699 49.0584 33.2653 48.5803 33.2629C46.9749 33.2489 44.835 33.2207 43.7264 32.4895C44.8655 31.9317 45.9647 31.2614 47.0499 30.5911C47.5749 30.7528 48.4139 30.5418 49.2413 30.3262ZM52.3139 34.1395C52.1803 34.4817 52.0467 34.8192 51.9014 35.159C51.6998 35.0606 51.4936 34.9621 51.2991 34.8684C50.5819 34.5238 49.8178 34.1535 49.26 33.8535C49.4709 33.8582 49.6702 33.8629 49.8553 33.8723C50.6592 33.9192 51.4889 34.0199 52.3139 34.1395ZM45.9999 33.7387C47.2374 36.5207 48.4538 38.8152 49.703 40.7348C49.2952 41.8387 48.9014 42.959 48.653 44.0957C47.2303 40.559 45.5475 36.9074 43.5928 33.1059C44.2468 33.4692 45.0975 33.6449 45.9999 33.7387ZM46.8647 33.8067C47.2069 33.8231 47.5467 33.8348 47.8819 33.8395C48.203 34.2051 49.0983 34.6481 50.9756 35.5527C51.1819 35.6512 51.3975 35.7543 51.6108 35.8598C51.5405 36.0215 51.4678 36.1879 51.3998 36.3473C51.0905 37.0645 50.7998 37.7395 50.5702 38.3559C50.4084 38.8457 50.228 39.3379 50.0405 39.8348C48.9717 38.1285 47.9147 36.127 46.8647 33.8067ZM50.4389 40.4324C50.6803 39.7973 50.9147 39.1668 51.1162 38.5504C51.3412 37.9551 51.6295 37.2871 51.9389 36.577C52.0022 36.4246 52.0725 36.2676 52.1381 36.1152C52.9467 36.509 53.7764 36.9285 54.5709 37.3598L54.6037 37.4559C54.8194 38.0887 55.0022 38.6348 55.0022 39.2887C55.0022 39.7199 54.9108 40.1371 54.8147 40.5894C54.7139 41.0465 54.6131 41.5176 54.6131 42.0097C54.6131 42.6965 54.7467 43.3152 54.8733 43.9129C55.0139 44.548 55.1404 45.1597 55.1029 45.8113C54.3061 45.0777 53.5162 44.3207 52.7873 43.5472C51.9881 42.6613 51.2077 41.6394 50.4342 40.4629C50.4366 40.4512 50.4389 40.4418 50.4389 40.4324ZM60.3834 28.1325C60.3834 28.2825 60.3014 28.3903 60.1654 28.5543C59.9709 28.7911 59.6967 29.1262 59.9662 29.67C59.9685 29.6793 59.9709 29.6887 59.9756 29.7004C58.8436 29.6231 57.6975 29.6489 56.692 29.6723C56.5889 29.6747 56.4928 29.677 56.392 29.6793C56.3147 29.302 56.3358 28.4254 56.3428 27.8606C56.3498 27.5629 56.3545 27.277 56.3545 27.0075C57.5076 26.888 58.6537 26.8481 59.8303 26.8223C59.9756 27.3028 60.1467 27.495 60.3084 27.6403C60.3904 27.7036 60.4185 27.734 60.3834 28.1325ZM54.667 22.3434C54.2592 22.5356 53.8631 22.7302 53.4811 22.9364C53.1834 23.1005 52.8928 23.2739 52.6022 23.4497C52.3537 23.1966 52.253 22.8567 52.1475 22.4981C52.0889 22.2966 52.0162 22.0856 51.9178 21.8677C52.8623 21.1763 53.8326 20.4614 54.8404 19.763C55.2154 20.4474 55.4826 21.202 55.3772 21.7083C55.3256 21.9614 55.1803 22.1231 54.9272 22.2169L54.6553 22.3177L54.667 22.3434ZM49.0725 23.8505C49.6936 23.4145 50.303 22.9856 50.9123 22.5638L51.4303 22.2075C51.4866 22.3528 51.5405 22.5028 51.585 22.6622C51.6952 23.0372 51.8194 23.4192 52.1076 23.7567C51.4537 24.1716 50.8092 24.6028 50.1881 25.0528C49.8436 24.6098 49.4616 24.2208 49.0725 23.8505ZM49.7123 25.3926C49.1381 25.8169 48.5733 26.2458 48.0108 26.6794C47.767 26.2903 47.4225 25.845 47.0827 25.4067C47.0686 25.388 47.0522 25.3669 47.0335 25.3505C47.5491 24.9567 48.0647 24.5723 48.5897 24.1973C48.9928 24.5794 49.3725 24.9614 49.7123 25.3926ZM61.642 13.8661C61.5998 13.6599 61.4592 13.5122 61.274 13.381C62.099 13.0904 62.9381 12.8161 63.7935 12.5349C64.1896 12.4036 64.5857 12.2771 64.9818 12.1435C65.4177 11.9982 65.8326 11.8412 66.2474 11.6865C66.3248 11.6583 66.3974 11.6326 66.4724 11.6044C66.449 11.6185 66.4255 11.6326 66.4021 11.649C66.1138 11.8107 65.781 11.9935 65.6474 12.4247C65.5771 12.9146 65.8091 13.2193 65.999 13.4607V13.463C65.8724 13.4982 65.7552 13.5286 65.6521 13.5568C64.0185 13.9505 62.4623 14.5318 60.9646 15.2325C61.0021 15.1974 61.0326 15.1669 61.0701 15.1318C61.3443 14.8763 61.724 14.5271 61.642 13.8661ZM60.6717 14.6982C60.4935 14.8599 60.3084 15.031 60.2146 15.2677C60.156 15.413 60.1068 15.5419 60.0717 15.6638C58.2623 16.5825 56.5467 17.663 54.9225 18.781C54.7303 18.5091 54.5404 18.2771 54.3787 18.113C54.142 17.8364 53.9451 17.5505 53.7623 17.2552C54.9295 16.4396 56.1201 15.6849 57.3459 15.038C58.3842 14.499 59.4553 14.049 60.5521 13.6411C60.7467 13.7396 61.0443 13.8896 61.0654 13.9599C61.1029 14.2833 60.9506 14.4427 60.6717 14.6982ZM55.3209 19.4278C56.8256 18.3966 58.3959 17.3958 60.0459 16.5333C60.1467 16.831 60.3764 17.0325 60.6365 17.2271C60.9295 17.4474 61.1639 17.6185 61.1639 18.1083C61.1639 18.3427 60.9881 18.4856 60.6975 18.7036C60.3857 18.938 59.9967 19.2286 60.0014 19.7231C59.9568 20.0161 60.0646 20.2341 60.2264 20.4028C58.7732 20.7497 57.3318 21.2184 55.9584 21.7809C56.0756 21.0919 55.7498 20.1966 55.3209 19.4278ZM66.2076 12.556C66.2591 12.3919 66.4537 12.2818 66.6834 12.1552C67.0091 11.9724 67.4146 11.7451 67.4779 11.2669C67.4826 11.2599 67.4779 11.2529 67.4802 11.2435C67.7662 11.1497 68.0498 11.0583 68.3404 10.9857C68.4857 10.9552 68.6708 10.9412 68.8701 10.9365C68.8794 10.9974 68.8912 11.0654 68.9029 11.1263C68.9685 11.4919 69.0341 11.8388 68.9568 12.2935C68.9169 12.4458 68.7693 12.6661 68.6193 12.8794C68.6076 12.8935 68.5982 12.9122 68.5865 12.9263C67.9185 12.9544 67.2201 13.1232 66.5919 13.2943C66.5427 13.2263 66.4982 13.1583 66.449 13.1021C66.2802 12.8771 66.1865 12.7411 66.2076 12.556ZM66.3201 10.0318C66.3201 10.3037 66.4935 10.5287 66.6599 10.7302C66.4302 10.8123 66.2052 10.8919 65.9826 10.9763C65.5748 11.1263 65.1646 11.2833 64.7451 11.4216C64.3513 11.5552 63.9552 11.6818 63.5615 11.813C62.5162 12.1552 61.4545 12.5044 60.3975 12.8935C60.2404 12.7927 60.0998 12.6826 60.0764 12.5654C59.985 12.2911 60.2076 11.9255 60.442 11.5388C60.6014 11.2693 60.7842 10.9669 60.8826 10.6365C61.2201 10.5193 61.5459 10.4021 61.8763 10.2896C62.6849 10.0083 63.5193 9.71772 64.3138 9.4107C65.2279 9.05679 66.1607 8.69585 67.1076 8.36304C67.1076 8.41226 67.1076 8.45679 67.0982 8.51304C67.0701 8.6607 66.9529 8.80835 66.824 8.9771C66.6318 9.22554 66.388 9.53257 66.3201 10.0318ZM59.9404 11.2365C59.6475 11.7193 59.3428 12.2208 59.5092 12.706C59.5373 12.8794 59.6287 13.0224 59.7529 13.1466C58.8178 13.5075 57.8873 13.9013 56.992 14.3677C55.7615 15.0193 54.5686 15.7763 53.4014 16.5872C53.1928 16.1489 53.0358 15.6802 52.9209 15.1739C54.1162 14.1521 55.3561 13.1982 56.6709 12.4083C57.7373 11.8318 58.9279 11.3537 60.135 10.9107C60.0717 11.0208 60.0084 11.1263 59.9404 11.2365ZM53.2842 17.595C53.4764 17.9044 53.6944 18.2114 53.9428 18.5114C54.1022 18.6685 54.2756 18.8794 54.4373 19.1138C53.4201 19.8239 52.4405 20.5411 51.4889 21.2395C51.4514 21.1974 51.4209 21.1528 51.3834 21.1106C51.1748 20.8669 50.9592 20.6114 50.7952 20.2856C50.6756 20.0958 50.5748 19.913 50.4811 19.7325C51.4045 18.9942 52.3373 18.2771 53.2842 17.595ZM50.9405 21.488C50.9663 21.5184 50.9897 21.5442 51.0084 21.5724L50.4811 21.938C49.8319 22.388 49.1686 22.8497 48.517 23.3137C48.1514 22.9622 47.8045 22.5966 47.4905 22.177C47.5514 22.1278 47.6124 22.0763 47.6733 22.027C48.4444 21.3872 49.2225 20.7403 50.0123 20.1028C50.0967 20.2599 50.1788 20.4169 50.2842 20.5763C50.4717 20.9372 50.7108 21.2208 50.9405 21.488ZM47.1999 21.4411C47.1694 21.4645 47.1413 21.488 47.1131 21.5114C47.0991 21.413 47.0991 21.3169 47.1038 21.202C47.1131 21.0286 47.1202 20.8153 47.0569 20.5505C47.7975 19.8919 48.5264 19.2192 49.2366 18.5489C49.3819 18.7997 49.5061 19.0599 49.635 19.3341C49.6491 19.3575 49.6608 19.3833 49.6725 19.4091C48.8381 20.0817 48.0108 20.7638 47.1999 21.4411ZM48.0366 23.663C47.5467 24.0145 47.0616 24.3778 46.5788 24.7481C46.478 24.6075 46.3842 24.4786 46.3069 24.3567C46.0772 24.0567 45.8663 23.8458 45.6717 23.6864C46.1335 23.3114 46.5975 22.9317 47.0546 22.5544C47.3545 22.9575 47.6944 23.3231 48.0366 23.663ZM44.596 46.6972C45.2897 46.0058 46.785 44.3019 47.0686 42.2558C47.542 43.3715 47.9967 44.4754 48.4209 45.5675C48.4186 45.5886 48.4163 45.6074 48.4092 45.6238L48.4444 45.6261C48.7983 46.5543 49.1452 47.4707 49.4686 48.3871C49.3233 50.248 47.7952 56.4355 46.4499 57.2675C46.3796 57.3144 46.3186 57.3261 46.2741 57.3308C46.2202 56.5362 46.1264 55.7183 45.9811 54.8464C45.9272 54.4948 45.8757 54.1409 45.8288 53.7941C45.6014 52.1909 45.3882 50.6792 44.9007 49.0667C44.7436 48.5277 44.6663 47.8855 44.5913 47.2058C44.5678 47.0089 44.5444 46.8097 44.521 46.6105L44.596 46.6972ZM49.0678 45.0519C49.2506 43.8144 49.6631 42.5629 50.1061 41.3394C50.7975 42.3496 51.4983 43.2566 52.2248 44.0629C53.4459 45.3566 54.7936 46.5707 56.0943 47.7519C56.7623 48.3542 57.435 48.9683 58.0982 49.5894C54.5733 48.673 51.6811 47.7542 49.0678 45.0519ZM58.1404 57.9589C58.1896 57.6589 58.1545 57.3308 58.117 57.0237C58.0772 56.7026 58.0443 56.3769 58.1311 56.1565C58.1404 56.1261 58.1568 56.1026 58.1686 56.0722C58.8201 56.6159 59.481 57.1784 60.1185 57.7503C59.8982 58.0409 59.6287 58.287 59.3451 58.5354C58.9959 58.8518 58.6303 59.1776 58.3514 59.6136C58.1803 59.4261 58.0021 59.2339 57.8217 59.0417C57.9576 58.7464 58.0725 58.4042 58.1404 57.9589ZM63.4138 29.5082C63.2896 29.9184 63.306 30.2161 63.3904 30.4551C62.5607 30.0707 61.5998 29.8598 60.599 29.752C60.5896 29.7145 60.5803 29.6793 60.5662 29.6442L60.6154 29.6067C60.5662 29.5411 60.5404 29.4918 60.5076 29.445C60.4982 29.4051 60.4842 29.37 60.4748 29.3301L60.4584 29.3348C60.4092 29.1872 60.4795 29.0911 60.6107 28.927C60.7584 28.7465 60.9646 28.5004 60.9599 28.1606C61.0185 27.5887 60.9248 27.4012 60.6951 27.1973C60.6154 27.127 60.531 27.0426 60.442 26.8036C60.4701 26.8036 60.4959 26.8012 60.5287 26.8012C61.0912 26.7895 61.6631 26.7778 62.2326 26.759C62.7951 26.759 63.3412 26.759 63.8802 26.7684C63.9084 26.9817 64.0232 27.1575 64.1193 27.3075C64.2013 27.434 64.2763 27.5512 64.2787 27.6098C64.2365 27.9895 64.0584 28.245 63.8709 28.5168C63.6787 28.7958 63.4584 29.1098 63.4138 29.5082ZM68.9615 9.45288C68.8724 9.7271 68.8372 9.96147 68.8232 10.1841C68.5888 10.1912 68.3732 10.2099 68.174 10.2474C67.8576 10.3271 67.5459 10.4279 67.2435 10.5287C67.206 10.4818 67.1755 10.4349 67.1357 10.3927C67.0396 10.2732 66.906 10.1091 66.9013 10.0716C66.9435 9.77163 67.1099 9.56069 67.2857 9.33804C67.4474 9.12945 67.6209 8.91148 67.6794 8.61148C67.7076 8.43101 67.6982 8.29039 67.6794 8.16383C68.2466 7.97164 68.8162 7.79117 69.3927 7.62711C69.4513 7.75602 69.5333 7.91773 69.5333 7.98336C69.5333 8.39586 69.4091 8.59976 69.2544 8.85757C69.156 9.02398 69.0435 9.20913 68.9615 9.45288ZM69.1537 6.91227C68.5701 7.07633 67.9912 7.25914 67.4146 7.45367C67.4029 7.4068 67.3912 7.36227 67.3912 7.30602C67.3912 7.03649 67.3419 6.84665 67.2904 6.66149C67.2412 6.48102 67.1966 6.30993 67.1896 6.10134C67.2177 5.96071 67.3255 5.84118 67.4451 5.70056C67.5013 5.63728 67.5646 5.56228 67.6162 5.48728C68.2513 5.39353 68.8654 5.31384 69.4654 5.24587C69.456 5.26931 69.4513 5.2904 69.4419 5.3115C69.2966 5.7404 69.1373 6.22321 69.1373 6.82086C69.1419 6.84899 69.149 6.87946 69.1537 6.91227ZM66.9201 1.66464C66.742 2.41932 66.9154 3.11073 67.0818 3.74588C67.1755 4.10916 67.2669 4.45369 67.2927 4.77478C67.2927 4.83572 67.281 4.89431 67.2599 4.94587C66.8099 5.01384 66.3482 5.0865 65.8771 5.16853C64.8904 5.33728 63.8451 5.43806 62.8279 5.5365C61.8576 5.6279 60.8685 5.724 59.9029 5.88103C62.3545 3.92635 64.7545 2.40526 66.9201 1.66464ZM58.9514 6.66383C60.2193 6.37555 61.5646 6.24431 62.8865 6.12009C63.9131 6.02165 64.9701 5.92087 65.9779 5.74743C66.2474 5.69821 66.5123 5.65837 66.7724 5.61618C66.7045 5.73103 66.6412 5.86696 66.613 6.04274C66.613 6.38493 66.6693 6.61227 66.7279 6.81149C66.7701 6.97321 66.8052 7.11383 66.8052 7.30602C66.8052 7.43961 66.8287 7.54977 66.8568 7.6482C65.9029 7.9857 64.956 8.34664 64.042 8.70523C63.2592 9.00523 62.4295 9.29585 61.6279 9.57476C61.3865 9.65679 61.1521 9.74116 60.9131 9.82554C60.8896 9.75522 60.8685 9.68023 60.8404 9.60757C60.599 9.13648 59.9803 8.79898 59.324 8.44508C58.7873 8.15445 58.2412 7.85211 57.967 7.50992C58.2951 7.2193 58.6256 6.93805 58.9514 6.66383ZM57.5311 7.8943C57.885 8.32086 58.4662 8.64664 59.0451 8.95835C59.5936 9.25601 60.1654 9.56304 60.3107 9.86069C60.3389 9.91226 60.3529 9.96616 60.3623 10.0177C58.9561 10.5193 57.5615 11.063 56.2936 11.7497C55.0561 12.4927 53.8912 13.3716 52.7686 14.3091C52.7053 13.7841 52.6772 13.2169 52.6866 12.6005C54.2615 10.9529 55.8975 9.35445 57.5311 7.8943ZM52.9162 16.9294C51.9764 17.6021 51.0506 18.3122 50.1366 19.0388C49.9913 18.7317 49.8506 18.4341 49.6725 18.1388C49.6749 18.1364 49.6772 18.1317 49.6842 18.1294C50.5819 17.2857 51.4912 16.4278 52.4241 15.6075C52.5459 16.0505 52.703 16.4911 52.9162 16.9294ZM52.0983 13.2193C52.1123 13.7255 52.1522 14.2411 52.2436 14.7614C51.21 15.6568 50.2069 16.5943 49.2272 17.5224C49.0702 17.3419 48.8874 17.1661 48.6788 16.9903C49.7616 15.7458 50.9147 14.4732 52.0983 13.2193ZM48.2897 17.431C48.4889 17.5927 48.653 17.7567 48.7959 17.9208C48.1538 18.5302 47.4952 19.1419 46.8272 19.7395C46.7756 19.6177 46.6983 19.5052 46.5905 19.4161C47.1366 18.7716 47.7038 18.1083 48.2897 17.431ZM46.2202 19.8661C46.2835 19.9177 46.3186 20.0138 46.3585 20.1614C45.946 20.52 45.5288 20.8739 45.1069 21.2184C45.4608 20.7778 45.8358 20.3278 46.2202 19.8661ZM46.5225 21.0192C46.5225 21.0708 46.5249 21.1247 46.5225 21.1739C46.5108 21.3942 46.5038 21.6356 46.6233 21.9169C46.0749 22.3739 45.5147 22.8333 44.9569 23.2856C44.7882 23.2294 44.6171 23.1872 44.4389 23.1403C44.2936 23.1052 44.146 23.07 43.9843 23.0208C44.8608 22.3997 45.7069 21.7247 46.5225 21.0192ZM43.328 23.4169C43.7124 23.5645 44.0358 23.6489 44.296 23.7122C44.3335 23.7192 44.3593 23.7286 44.3921 23.7356C43.8085 24.2044 43.2202 24.6661 42.6343 25.1067C41.8444 25.6973 41.153 26.363 40.5155 27.0637C41.1718 26.1848 42.1374 24.9216 43.328 23.4169ZM39.653 29.2551C40.6702 27.9918 41.7413 26.7215 43.0913 25.7091C43.7968 25.1794 44.5022 24.6239 45.2007 24.0591C45.3952 24.1927 45.5944 24.3825 45.8288 24.6848C45.9061 24.8114 46.0022 24.9497 46.1124 25.0973C45.6202 25.4817 45.135 25.8778 44.6616 26.288C43.4405 27.3333 42.346 28.5965 41.289 29.82C40.7569 30.4317 40.2132 31.0434 39.6554 31.6434L39.653 29.2551ZM39.9905 33.7293C40.9186 33.584 41.8046 33.3192 42.6694 32.9676C42.6811 32.9934 42.6929 33.0168 42.7046 33.0379L42.6741 33.0426C42.8757 34.409 42.9179 35.909 42.9389 37.3879L42.9343 37.3856C42.7327 38.4543 42.1093 39.3965 41.0522 40.2519C40.7077 37.5848 40.2835 35.2387 39.9905 33.7293ZM41.078 54.4433C41.4835 52.8777 41.6522 50.9769 41.6663 48.9472L41.6827 48.9542C41.8515 48.4339 42.046 47.9066 42.2475 47.3628C42.6179 46.3597 42.9929 45.3425 43.2624 44.3113C43.7569 45.0894 43.8858 46.1957 44.0053 47.2738C44.0405 47.5433 44.0686 47.8105 44.1014 48.066L43.9093 48.1128C44.1882 49.355 44.0147 50.637 43.3397 52.2659C43.246 52.5097 43.1358 52.8191 43.0163 53.173C42.7491 53.9652 42.3975 54.98 42.0038 55.5894C41.7179 55.198 41.4132 54.8089 41.078 54.4433ZM43.7991 58.6433C43.3913 57.7714 42.9225 56.9089 42.3741 56.0909C42.8686 55.4253 43.2577 54.298 43.5788 53.3605C43.6936 53.0206 43.7968 52.7183 43.8882 52.4909C44.1694 51.8113 44.453 50.991 44.5678 50.091C44.8843 51.3566 45.0671 52.5894 45.2499 53.8808C45.2991 54.23 45.3507 54.5839 45.4046 54.9425C45.4467 55.1862 45.4678 55.4136 45.5053 55.648L45.4655 55.6433C45.2686 56.9112 44.6639 57.6214 43.9022 58.5214C43.8671 58.5612 43.8296 58.6034 43.7991 58.6433ZM44.0593 59.2386C44.1553 59.1214 44.2514 59.0042 44.3475 58.8964C44.8608 58.2894 45.3296 57.7339 45.6577 57.0237C45.8264 59.0581 45.7022 60.8839 45.2546 62.6956C44.9569 61.6034 44.5678 60.4222 44.0593 59.2386ZM52.1241 66.9588C51.6061 67.0362 51.0014 67.1463 50.2702 67.2987C49.8366 66.9166 49.2038 66.7221 48.3694 66.7221C47.9803 66.7221 47.5795 66.7713 47.2046 66.8323C47.2538 66.7924 47.296 66.7573 47.3428 66.7174C47.8397 66.3002 48.353 65.876 48.9202 65.7963C49.4217 65.7542 49.8741 65.9393 50.3545 66.1292C50.917 66.3542 51.5428 66.5885 52.2483 66.4221C52.2084 66.6026 52.1709 66.7807 52.1241 66.9588ZM52.3725 65.7682C51.7397 66.0378 51.1959 65.8315 50.5725 65.5854C50.0475 65.3815 49.5178 65.1682 48.8616 65.2174C48.1069 65.3182 47.5303 65.801 46.9678 66.2698C46.6585 66.5252 46.3702 66.769 46.0819 66.9213C46.0257 66.4409 45.9319 65.7893 45.7842 65.0159C46.7428 64.4135 48.2334 63.7526 48.7655 63.7503C49.1264 63.7924 49.4264 64.0573 49.7452 64.3409C50.0873 64.6432 50.4366 64.9573 50.8678 65.0089C51.217 65.0909 51.6787 64.8635 52.342 64.5003C52.417 64.4557 52.4873 64.4206 52.5623 64.3784C52.5155 64.8495 52.4545 65.3112 52.3725 65.7682ZM52.6326 63.7034C52.4686 63.7714 52.2717 63.8745 52.0631 63.994C51.7748 64.1487 51.1772 64.4745 50.9803 64.437C50.692 64.3995 50.4225 64.1604 50.1389 63.9026C49.785 63.5839 49.3795 63.2299 48.8053 63.169C48.1327 63.169 46.7053 63.7924 45.6671 64.4112C45.6249 64.2307 45.5921 64.0456 45.5428 63.8557C46.1405 61.9198 46.3842 60.012 46.2975 57.9144C46.4381 57.905 46.5905 57.8675 46.7546 57.769C48.1467 56.9112 49.4241 52.1839 49.8834 49.5941C50.7788 52.2214 51.5241 54.7948 52.1311 57.3261C52.6233 59.3464 52.785 61.5542 52.6326 63.7034ZM50.9756 50.4636C51.1139 50.6347 51.2452 50.8058 51.3741 50.9628C51.5217 51.1503 51.667 51.3238 51.7725 51.462C52.6467 52.723 53.3428 53.9183 54.1022 55.2448C54.3319 55.6105 54.5733 55.9667 54.8264 56.3159L54.7983 56.337C55.3022 57.0097 55.2178 58.6667 55.1404 60.1292C55.124 60.455 55.11 60.7643 55.0983 61.0643C54.8803 61.3667 54.8287 61.7089 54.7936 61.9995C54.7631 62.2432 54.742 62.4542 54.6272 62.5667L54.5779 62.6323C54.292 63.1479 53.9451 63.251 53.4248 63.4081C53.4178 63.4104 53.4108 63.4128 53.4037 63.4151C53.5256 61.2964 53.3498 59.1331 52.867 57.1339C52.3444 54.9495 51.7092 52.7277 50.9756 50.4636ZM55.3115 65.2667C55.2998 65.2503 55.2881 65.2362 55.274 65.2221C54.9647 64.901 54.674 64.5964 54.3154 64.5378C53.8092 64.4253 53.5045 64.6198 53.2795 64.8682C53.317 64.5987 53.3381 64.3245 53.3615 64.0479C53.4389 64.0198 53.5209 63.9987 53.6006 63.9729C54.1514 63.8089 54.6787 63.6495 55.0772 62.9534C55.1006 62.9276 55.1147 62.8971 55.1311 62.869C55.1334 63.6542 55.1686 64.4862 55.3115 65.2667ZM55.0584 67.1956C54.749 67.0221 54.4022 66.8206 53.6123 66.8206C53.4155 66.8206 53.1834 66.837 52.9256 66.8627C52.9889 66.5721 53.0545 66.2815 53.1061 65.9862C53.2701 65.8338 53.4037 65.6628 53.5139 65.5127C53.7694 65.1612 53.8748 65.044 54.203 65.1143C54.3858 65.1471 54.6248 65.3909 54.8498 65.6323C55.0631 65.8573 55.2975 66.0893 55.5764 66.2674C55.6279 66.4385 55.6842 66.6026 55.724 66.7713C55.7826 66.9565 55.8154 67.1299 55.8412 67.2846C55.8553 67.3643 55.8694 67.4393 55.8881 67.5143C55.4709 67.4252 55.2647 67.3151 55.0584 67.1956ZM56.0615 65.8573C56.0029 65.6581 55.942 65.4565 55.9022 65.2503C55.7147 64.3081 55.7147 63.2393 55.71 62.2573C55.6772 61.9878 55.6725 61.6432 55.6795 61.2706C55.9889 60.8768 56.324 60.612 56.6475 60.3518C56.9545 60.1081 57.2498 59.8714 57.5029 59.5503C57.6951 59.7612 57.8873 59.9675 58.0772 60.1714C57.7795 61.1534 58.4498 61.73 59.0053 62.2057C59.535 62.6581 60.0295 63.087 59.992 63.8253C59.9685 64.1487 59.6498 64.5542 59.1225 64.9338C58.192 65.6088 56.8139 66.0565 56.1693 65.8995C56.1342 65.8924 56.099 65.8713 56.0615 65.8573ZM57.1654 67.362C56.8772 67.362 56.6029 67.4065 56.3358 67.4674L56.2233 67.3151C56.2397 67.3034 56.2912 67.2893 56.3615 67.3151C56.4272 67.3409 56.46 67.3831 56.4693 67.3995C56.4553 67.369 56.4365 67.2659 56.4225 67.1815C56.392 67.0151 56.3615 66.8088 56.2865 66.6026C56.2795 66.5698 56.2654 66.5346 56.2561 66.4971C57.1795 66.5932 58.5881 66.0448 59.467 65.4096C59.9451 65.0674 60.5287 64.5167 60.5779 63.8651C60.6295 62.8362 59.9428 62.2432 59.3896 61.7651C58.9326 61.3737 58.635 61.0854 58.5975 60.7128C58.8225 60.9448 59.0381 61.1721 59.2561 61.3971C59.8068 61.9667 60.3389 62.5151 60.831 63.0471C60.531 64.7862 60.3928 66.9963 61.0701 68.8596C60.067 68.2104 58.6561 67.362 57.1654 67.362ZM61.5693 60.0964C61.4967 60.3143 61.2154 61.1698 60.9646 62.337C60.5521 61.8964 60.1279 61.4534 59.6779 60.9917C59.3803 60.6847 59.0732 60.3659 58.7662 60.0495C58.7756 60.0331 58.7779 60.0214 58.785 60.0073C59.024 59.6018 59.3662 59.2925 59.7295 58.9714C60.0037 58.7276 60.2967 58.4604 60.5475 58.1417C60.9553 58.5097 61.349 58.8893 61.724 59.2784L61.5693 60.0964ZM61.8576 58.5893C61.5365 58.2659 61.2107 57.9542 60.8685 57.6401C61.0139 57.3659 61.1146 57.0472 61.1615 56.6722C61.2037 56.1542 61.1099 55.7323 61.0232 55.3526C60.892 54.755 60.7865 54.2839 61.2201 53.5831C61.3045 53.4355 61.3912 53.3089 61.4779 53.1894C61.8717 53.6839 62.2467 54.1878 62.5935 54.7128L62.5982 54.7105L61.8576 58.5893ZM62.8279 53.5222L62.7974 53.6745C62.5396 53.3089 62.2631 52.9433 61.9818 52.5964C61.9935 52.5894 61.9982 52.58 62.0076 52.573C62.3568 52.198 62.6943 51.8324 62.8443 51.2488C62.8396 51.6003 62.8467 51.9449 62.8537 52.2613C62.8678 52.7675 62.8818 53.2386 62.8279 53.5222ZM62.917 50.1894C62.9146 50.1566 62.9146 50.1331 62.9123 50.0956C62.8724 49.73 62.7717 49.423 62.6756 49.1253C62.5303 48.6894 62.4154 48.3167 62.5232 47.8222C62.5631 47.4871 62.7037 47.1707 62.8677 46.8449C63.1256 47.2105 63.4045 47.5738 63.6998 47.9253C63.231 48.6121 63.0107 49.4019 62.917 50.1894ZM64.1873 47.3136C63.8474 46.9058 63.5427 46.4839 63.2498 46.0621C63.3529 45.823 63.442 45.5746 63.4959 45.2863C63.5545 44.6324 63.4138 44.1988 63.2896 43.8168C63.1935 43.5215 63.1092 43.2683 63.1092 42.9238C63.1092 42.4832 63.3576 42.0379 63.6013 41.6043C63.6927 41.4473 63.7795 41.2808 63.8615 41.1191C64.3256 41.8035 64.8412 42.4504 65.474 42.9566C65.3826 44.766 65.1623 46.1699 64.1873 47.3136ZM65.542 41.3488L65.5279 41.7262C65.5232 41.8926 65.5162 42.0543 65.5091 42.2183C64.9748 41.7121 64.5365 41.0933 64.0959 40.4254C64.3115 39.4527 64.0724 38.6441 63.8357 37.8613C63.6177 37.1395 63.4138 36.4598 63.5873 35.6863L63.5967 35.6231C63.5967 35.5434 63.6552 35.4613 63.756 35.3301C63.8943 35.152 64.0818 34.9082 64.0818 34.552C64.0818 34.2824 63.9576 34.0645 63.8474 33.8723C63.7654 33.7246 63.6927 33.6004 63.6904 33.5184C63.7068 33.3895 63.7162 33.2582 63.7256 33.1317C63.7467 32.8364 63.7654 32.5598 63.8849 32.4614C63.8896 32.4567 63.899 32.4543 63.9037 32.452L63.9084 32.4731C63.9224 32.5364 65.6334 38.7426 65.542 41.3488ZM69.2685 30.4973L64.7779 31.6364L64.8881 31.5426C64.8318 31.4746 64.7615 31.4161 64.7006 31.3528C64.5435 31.0786 64.3748 30.87 64.2412 30.7059C63.9435 30.345 63.817 30.1926 63.9857 29.6301C64.0256 29.3254 64.1779 29.1051 64.3537 28.852C64.567 28.5497 64.8013 28.2075 64.8646 27.6473C64.8646 27.3825 64.7263 27.1669 64.6138 26.9934C64.5646 26.9114 64.5201 26.8458 64.4943 26.7872C64.942 26.8012 65.392 26.8223 65.8396 26.8575C66.2334 26.8575 66.6576 26.7989 67.1052 26.7356C67.1498 26.7309 67.1896 26.7239 67.2341 26.7192C67.1896 26.8669 67.1709 27.0239 67.2037 27.1833C67.2388 27.5723 67.3326 27.9169 67.4193 28.252C67.5927 28.8848 67.7404 29.4309 67.506 30.1856L68.0638 30.3567C68.3451 29.4379 68.1599 28.7583 67.9841 28.0973C67.8974 27.7739 67.8154 27.4645 67.7802 27.0989C67.7521 26.9676 67.8037 26.834 67.881 26.6419C68.4037 26.5926 68.9029 26.588 69.3177 26.738C69.4138 26.7708 69.4958 26.7942 69.5755 26.82C69.6763 26.8528 69.8029 26.888 69.8685 26.9184C69.8872 26.9676 69.9107 27.0122 69.9318 27.059C69.9833 27.1669 70.0466 27.2723 70.124 27.3754C69.5263 28.3036 69.3318 29.752 69.2685 30.4973ZM69.9365 23.3255C70.1474 23.5012 70.1146 23.7895 69.9107 24.5676C69.7912 25.0083 69.6669 25.5262 69.6786 26.0606C69.6388 26.0489 69.599 26.0348 69.5615 26.0231C69.0998 25.8567 68.5865 25.8333 68.0732 25.8637C68.0732 25.7887 68.0732 25.7114 68.0591 25.627C68.0052 25.4161 67.8623 25.1794 67.7146 24.9262C67.574 24.6942 67.3865 24.3801 67.3865 24.2372C67.3865 23.9958 67.506 23.8153 67.6607 23.588C67.8388 23.3161 68.0685 22.9763 68.0685 22.4864C68.0685 22.1442 67.8365 21.9169 67.6373 21.72C67.4193 21.502 67.288 21.3567 67.2857 21.1739C67.3232 20.9559 67.4873 20.7474 67.6607 20.5294C67.7966 20.363 67.9349 20.1778 68.0404 19.9528C68.1998 19.8825 68.3521 19.7981 68.4857 19.7091C68.7107 21.5466 69.3599 22.845 69.9365 23.3255ZM69.5497 13.0224C69.4583 12.999 69.3693 12.9732 69.2732 12.9615C69.388 12.7833 69.4841 12.6076 69.5287 12.4201C69.6247 11.8412 69.5474 11.4099 69.4771 11.0279C69.4701 10.9974 69.4654 10.9716 69.4607 10.9412C69.5193 10.9412 69.5802 10.9435 69.6365 10.9435C69.9552 10.9482 70.2669 10.9529 70.5599 10.9435C70.1521 11.6607 69.8216 12.3521 69.5497 13.0224ZM73.1755 7.2193C72.3224 8.22242 71.6169 9.19507 71.031 10.1302C70.6372 10.1935 70.0958 10.1865 69.6505 10.1794C69.5708 10.1794 69.4888 10.1771 69.4091 10.1771C69.4232 10.013 69.4513 9.83726 69.5169 9.63804C69.5755 9.45523 69.6622 9.31226 69.7537 9.16226C69.9224 8.88101 70.1146 8.56226 70.1146 7.98805C70.1146 7.82398 70.0513 7.65289 69.9669 7.47711C70.3677 7.37164 70.7685 7.27321 71.174 7.19118C71.9075 7.02711 72.6552 6.9404 73.3935 6.9193C73.3279 7.02946 73.2552 7.13493 73.1755 7.2193ZM73.7005 6.14821C72.8052 6.14821 71.8982 6.24899 71.0122 6.44821C70.5833 6.53493 70.1568 6.6404 69.7302 6.75524C69.7419 6.28415 69.8685 5.89978 69.9997 5.49665C70.0372 5.39118 70.0654 5.28572 70.1052 5.1779C71.3732 5.05369 72.5943 4.98806 73.82 4.974C73.8388 5.39118 73.7919 5.79431 73.7005 6.14821Z" fill="#202020"/>
</svg>
