<svg width="50" height="69" viewBox="0 0 50 69" fill="none" xmlns="http://www.w3.org/2000/svg">
<path d="M46.1387 47.7871C46.6712 47.9508 47.2364 47.6529 47.4011 47.1204L49.5444 40.1774C49.6388 39.8712 49.5824 39.5382 49.3921 39.2802C49.2018 39.0224 48.9003 38.8701 48.5798 38.8701H34.5854V30.8826C35.472 31.0871 36.7212 31.2965 38.1174 31.2965C39.6497 31.2965 41.3588 31.0441 42.958 30.2552C47.3067 28.1101 49.0019 22.909 49.0719 22.6886C49.236 22.1719 48.9627 21.6177 48.4528 21.4335C48.2353 21.3549 43.0766 19.5341 38.7279 21.6792C36.9059 22.5778 35.5512 24.0128 34.5852 25.3933C34.5852 25.3919 34.5852 25.3926 34.5852 25.3933V12.1515C34.5854 5.45109 29.1343 0 22.434 0C15.7338 0 10.2826 5.45109 10.2826 12.1515V14.9338L2.23621 20.6506C-0.153979 22.3485 -0.71743 25.6745 0.980469 28.0649C2.6785 30.455 6.00436 31.0184 8.39468 29.3206L9.14046 28.7908L9.65782 29.5191C10.6924 30.9756 12.3286 31.7597 13.9954 31.7597C14.9742 31.7597 15.9637 31.4892 16.8478 30.9256C17.3178 30.6259 17.4561 30.002 17.1564 29.5319C16.8567 29.062 16.2329 28.9237 15.7627 29.2233C14.2809 30.1679 12.3223 29.784 11.3036 28.35L10.5378 27.272C10.0302 26.5571 9.03575 26.3891 8.32123 26.8966L7.22559 27.6748C5.74264 28.7283 3.6794 28.3786 2.62621 26.8959C2.11599 26.1776 1.916 25.3037 2.06317 24.4348C2.21033 23.5661 2.68699 22.8066 3.40529 22.2964L11.1747 16.7766L16.6819 24.5296C17.096 25.1124 17.3065 25.7969 17.2909 26.5089C17.2786 27.0661 17.7205 27.528 18.2778 27.5402C18.8364 27.5521 19.2969 27.1106 19.3091 26.5533C19.3345 25.4039 18.9951 24.2999 18.3278 23.3606L12.572 15.2576C12.4937 15.1474 12.402 15.0504 12.3015 14.9652V12.1515C12.3015 6.56425 16.847 2.01877 22.4342 2.01877C28.0214 2.01877 32.5669 6.56425 32.5669 12.1515V16.719C31.6067 15.3416 30.2613 13.912 28.4517 13.0115C24.1106 10.8515 18.9455 12.6544 18.7277 12.732C18.2171 12.9144 17.9419 13.4677 18.1043 13.9849C18.1736 14.2055 19.8507 19.4127 24.1919 21.5728C25.8056 22.3758 27.5327 22.6311 29.0778 22.6311C30.4564 22.6311 31.6895 22.4277 32.5669 22.2283V38.8704H18.5721C18.2516 38.8704 17.9502 39.0226 17.7599 39.2805C17.5696 39.5384 17.5131 39.8713 17.6076 40.1776L23.9658 60.7745H20.6746C20.2964 60.7745 19.9499 60.986 19.777 61.3222C19.6041 61.6586 19.6335 62.0633 19.8534 62.3709L24.2898 68.5775C24.4792 68.8426 24.785 69 25.111 69H42.0411C42.3669 69 42.6727 68.8427 42.8623 68.5775L47.2986 62.3711C47.5186 62.0634 47.5481 61.6587 47.3751 61.3223C47.202 60.986 46.8557 60.7746 46.4775 60.7746H43.1863L46.1942 51.0305C46.3587 50.4978 46.06 49.9327 45.5276 49.7682C44.9946 49.6035 44.4298 49.9022 44.2652 50.4348L41.0735 60.7746H26.0788L19.9402 40.8895H47.212L45.4722 46.5253C45.3076 47.0575 45.6061 47.6227 46.1387 47.7871ZM39.621 23.4897C42.1706 22.2322 45.213 22.6834 46.7589 23.0493C46.1083 24.4988 44.6141 27.1874 42.0649 28.4448C39.515 29.7025 36.4721 29.2511 34.927 28.8853C35.5778 27.4356 37.0718 24.7471 39.621 23.4897ZM25.0909 19.7651C22.5443 18.4981 21.0594 15.8014 20.4146 14.3511C21.9574 13.9887 24.9943 13.5461 27.552 14.8187C30.0984 16.0856 31.5831 18.7817 32.2282 20.2327C30.6854 20.5953 27.6485 21.0377 25.0909 19.7651ZM44.5152 62.7929L41.522 66.9806H25.6301L22.6369 62.7929H44.5152Z" fill="#202020"/>
</svg>
