<svg width="68" height="72" viewBox="0 0 68 72" fill="none" xmlns="http://www.w3.org/2000/svg">
<path d="M8.36615 44.2212H10.7565V46.6115H8.36615V44.2212Z" fill="#202020"/>
<path d="M13.1468 44.2212H17.9274V46.6115H13.1468V44.2212Z" fill="#202020"/>
<path d="M5.97583 49.0017H17.9275V51.392H5.97583V49.0017Z" fill="#202020"/>
<path d="M5.97583 53.7823H17.9275V56.1727H5.97583V53.7823Z" fill="#202020"/>
<path d="M5.97583 58.563H15.5371V60.9533H5.97583V58.563Z" fill="#202020"/>
<path d="M29.8791 44.2212H32.2694V46.6115H29.8791V44.2212Z" fill="#202020"/>
<path d="M34.6597 44.2212H39.4404V46.6115H34.6597V44.2212Z" fill="#202020"/>
<path d="M27.4887 49.0017H39.4404V51.392H27.4887V49.0017Z" fill="#202020"/>
<path d="M27.4887 53.7823H39.4404V56.1727H27.4887V53.7823Z" fill="#202020"/>
<path d="M27.4887 58.563H37.05V60.9533H27.4887V58.563Z" fill="#202020"/>
<path d="M35.8549 4.78064C18.7206 4.78064 4.78064 18.7206 4.78064 35.8549H7.17097C7.16635 28.3933 10.0794 21.2256 15.2879 15.8827L16.768 21.8027C16.789 21.8874 16.8194 21.9695 16.8585 22.0475L19.2488 26.8281C19.3418 27.0141 19.4817 27.1726 19.6547 27.288L22.7081 29.3235V34.4066L21.221 37.7609L23.4062 38.7295L24.9958 35.1441C25.0635 34.9916 25.0984 34.8266 25.0984 34.6597V28.6839C25.0984 28.4872 25.0498 28.2935 24.957 28.12C24.8642 27.9465 24.73 27.7987 24.5663 27.6895L21.2448 25.4752L19.0551 21.0958L17.285 14.0133C19.8637 11.8144 22.8114 10.0897 25.9916 8.91889L27.5177 15.7962C27.567 16.0182 27.6786 16.2215 27.8394 16.3824L32.3236 20.8666L33.4725 31.2064C33.4938 31.3964 33.5604 31.5785 33.6667 31.7374L36.057 35.3229C36.1551 35.47 36.2846 35.5935 36.4362 35.6845C36.5878 35.7755 36.7577 35.8318 36.9337 35.8492C36.973 35.8531 37.0122 35.855 37.0514 35.855C37.2083 35.855 37.3638 35.8241 37.5088 35.7641C37.6538 35.704 37.7855 35.616 37.8965 35.505L42.6772 30.7243C42.86 30.5415 42.9786 30.3043 43.0151 30.0483L44.1356 22.211L46.8831 20.3793L53.588 21.4969C53.8592 21.5417 54.1376 21.492 54.3766 21.3561L58.891 18.7808C60.0188 20.2982 60.9939 21.9232 61.8023 23.6322L52.1962 26.9569C51.9966 27.026 51.8189 27.1467 51.6812 27.3068C51.5434 27.4668 51.4506 27.6606 51.412 27.8682L50.2169 34.3221C50.1699 34.5762 50.2066 34.8387 50.3214 35.0703L51.5644 37.5801L53.7064 36.5194L52.6402 34.3663L53.6361 28.9881L62.7342 25.8387C64.1702 29.6939 64.7609 33.8128 64.4663 37.9162C64.1716 42.0197 62.9985 46.0119 61.0264 49.6224L63.1224 50.7716C65.6208 46.1967 66.9298 41.0675 66.9291 35.8549C66.9291 18.7206 52.9892 4.78064 35.8549 4.78064ZM53.5594 19.069L46.8078 17.9436C46.5083 17.8937 46.201 17.9597 45.9483 18.1282L42.3628 20.5185C42.2229 20.6117 42.1043 20.7334 42.0147 20.8756C41.9251 21.0179 41.8665 21.1774 41.8428 21.3438L40.704 29.3157L37.2357 32.7838L35.8154 30.6532L34.6524 20.1857C34.6223 19.916 34.5015 19.6646 34.3097 19.4726L29.7752 14.9382L28.2775 8.1888C33.4548 6.7708 38.9262 6.83543 44.0685 8.37531C49.2107 9.91519 53.8171 12.8684 57.3629 16.8985L53.5594 19.069Z" fill="#202020"/>
<path d="M59.7582 54.9779H58.563V41.8311C58.563 40.8802 58.1852 39.9682 57.5128 39.2958C56.8404 38.6234 55.9284 38.2456 54.9775 38.2456C54.0266 38.2456 53.1146 38.6234 52.4422 39.2958C51.7698 39.9682 51.392 40.8802 51.392 41.8311V49.0021C51.3917 49.3189 51.2656 49.6227 51.0416 49.8468C50.8175 50.0708 50.5137 50.1969 50.1968 50.1972H45.4162V39.4408C45.4162 39.1238 45.2903 38.8198 45.0661 38.5957C44.842 38.3715 44.538 38.2456 44.221 38.2456H27.4888C27.3318 38.2456 27.1764 38.2765 27.0314 38.3366C26.8864 38.3966 26.7546 38.4847 26.6436 38.5956L22.7081 42.5313L18.7726 38.5956C18.6616 38.4847 18.5298 38.3966 18.3848 38.3366C18.2398 38.2765 18.0844 38.2456 17.9274 38.2456H1.19516C0.878186 38.2456 0.574192 38.3715 0.350055 38.5957C0.125919 38.8198 0 39.1238 0 39.4408V70.515C0 70.832 0.125919 71.136 0.350055 71.3601C0.574192 71.5843 0.878186 71.7102 1.19516 71.7102H44.221C44.538 71.7102 44.842 71.5843 45.0661 71.3601C45.2903 71.136 45.4162 70.832 45.4162 70.515V52.5876H50.1968C51.1474 52.5865 52.0588 52.2083 52.731 51.5362C53.4031 50.864 53.7812 49.9527 53.7823 49.0021V41.8311C53.7823 41.5141 53.9083 41.2101 54.1324 40.986C54.3565 40.7618 54.6605 40.6359 54.9775 40.6359C55.2945 40.6359 55.5985 40.7618 55.8226 40.986C56.0467 41.2101 56.1727 41.5141 56.1727 41.8311V54.9779H54.9775C54.0269 54.979 53.1155 55.3571 52.4434 56.0292C51.7712 56.7014 51.3931 57.6128 51.392 58.5634V68.1247C51.3931 69.0753 51.7712 69.9866 52.4434 70.6588C53.1155 71.331 54.0269 71.7091 54.9775 71.7102H59.7582C60.7088 71.7091 61.6201 71.331 62.2923 70.6588C62.9645 69.9866 63.3426 69.0753 63.3436 68.1247V58.5634C63.3426 57.6128 62.9645 56.7014 62.2923 56.0292C61.6201 55.3571 60.7088 54.979 59.7582 54.9779ZM27.9837 40.6359H43.0259V64.5392H27.4888C27.3318 64.5392 27.1764 64.5701 27.0314 64.6302C26.8864 64.6902 26.7546 64.7782 26.6436 64.8892L23.9033 67.6297V44.7165L27.9837 40.6359ZM17.4325 40.6359L21.5129 44.7165V67.6297L18.7726 64.8892C18.6616 64.7782 18.5298 64.6902 18.3848 64.6302C18.2398 64.5701 18.0844 64.5392 17.9274 64.5392H2.39033V40.6359H17.4325ZM2.39033 66.9295H17.4325L19.8228 69.3198H2.39033V66.9295ZM25.5935 69.3198L27.9838 66.9295H43.0259V69.3198H25.5935ZM60.9533 68.1247C60.953 68.4415 60.8269 68.7453 60.6029 68.9694C60.3788 69.1935 60.075 69.3195 59.7582 69.3198H54.9775C54.6606 69.3195 54.3568 69.1935 54.1328 68.9694C53.9087 68.7453 53.7827 68.4415 53.7823 68.1247V58.5634C53.7827 58.2465 53.9087 57.9427 54.1328 57.7187C54.3568 57.4946 54.6606 57.3686 54.9775 57.3682H59.7582C60.075 57.3686 60.3788 57.4946 60.6029 57.7187C60.8269 57.9427 60.953 58.2465 60.9533 58.5634V68.1247Z" fill="#202020"/>
<path d="M56.1727 59.7579H58.563V62.1483H56.1727V59.7579Z" fill="#202020"/>
<path d="M65.8584 21.0159L68 19.9543C67.6173 19.182 67.2013 18.4141 66.7638 17.6719L64.7047 18.886C65.1129 19.5785 65.5011 20.2951 65.8584 21.0159Z" fill="#202020"/>
<path d="M62.9702 16.2382L64.9056 14.8357C61.5841 10.2391 57.2183 6.4971 52.1676 3.91782C47.117 1.33855 41.526 -0.00423702 35.8549 1.00433e-05V2.39034C41.1483 2.38603 46.367 3.63928 51.0812 6.04685C55.7954 8.45442 59.8703 11.9474 62.9702 16.2382Z" fill="#202020"/>
</svg>
