<svg width="65" height="66" viewBox="0 0 65 66" fill="none" xmlns="http://www.w3.org/2000/svg">
<path d="M47.9499 49.7764C47.766 49.7764 47.5856 49.8264 47.428 49.9211L47.4192 49.9262C47.1898 50.0673 47.0258 50.2937 46.9633 50.5557C46.9008 50.8177 46.9449 51.0938 47.086 51.3233C47.2271 51.5527 47.4535 51.7167 47.7155 51.7792C47.9775 51.8417 48.2536 51.7976 48.4831 51.6565L48.502 51.6451H48.5008C48.7237 51.501 48.8815 51.2755 48.9403 51.0167C48.9991 50.7579 48.9544 50.4863 48.8157 50.2601C48.7254 50.1115 48.5982 49.9889 48.4465 49.9042C48.2948 49.8194 48.1237 49.7754 47.9499 49.7764Z" fill="#202020"/>
<path d="M15.2666 11.6902C15.3457 11.6897 15.4245 11.6804 15.5015 11.6623C15.7444 11.6055 15.9579 11.4613 16.1013 11.2572C16.2447 11.0532 16.308 10.8034 16.2791 10.5557C16.2502 10.3079 16.1312 10.0795 15.9446 9.91388C15.7581 9.74827 15.5172 9.65709 15.2678 9.65772C15.1887 9.65817 15.11 9.66754 15.033 9.68565C14.7902 9.74242 14.5767 9.88657 14.4333 10.0906C14.2899 10.2947 14.2266 10.5444 14.2554 10.7921C14.2843 11.0399 14.4033 11.2683 14.5898 11.434C14.7763 11.5996 15.0172 11.6908 15.2666 11.6902Z" fill="#202020"/>
<path d="M44.4181 51.7963C44.2521 51.797 44.0887 51.8379 43.942 51.9156C40.2738 53.8719 36.4472 55.5154 32.5027 56.8285L32.5002 56.8298C31.6483 56.5594 24.0517 54.0814 16.6772 49.3601C12.366 46.6027 8.9472 43.608 6.51344 40.4571C3.54167 36.608 2.03338 32.5088 2.03211 28.275C2.03085 21.7358 5.80633 15.8606 11.8847 12.942C12.1276 12.8255 12.3143 12.6173 12.4037 12.3631C12.4931 12.109 12.4779 11.8297 12.3614 11.5868C12.2449 11.3439 12.0367 11.1572 11.7825 11.0678C11.5284 10.9784 11.2491 10.9936 11.0062 11.1101C7.77701 12.6513 5.03098 15.0466 3.06549 18.0365C1.06682 21.0772 0.00153452 24.6363 0.000918452 28.275C-0.00162054 32.976 1.64873 37.4928 4.90626 41.6999C6.9094 44.2872 9.52837 46.7741 12.687 49.091C15.4171 51.067 18.3009 52.8215 21.3107 54.3378C24.7157 56.08 28.2488 57.5595 31.8793 58.7633L32.5001 58.9499L33.1031 58.7696L33.117 58.7645C37.1805 57.4169 41.1218 55.7253 44.898 53.7081C45.098 53.6015 45.2567 53.431 45.3486 53.2238C45.4406 53.0165 45.4606 52.7845 45.4054 52.5646C45.3502 52.3447 45.223 52.1496 45.0441 52.0104C44.8652 51.8711 44.6448 51.7958 44.4181 51.7963Z" fill="#202020"/>
<path d="M61.6185 17.5694C60.9074 16.5504 60.0996 15.6023 59.2065 14.7384C57.3976 12.9878 55.2718 11.5979 52.9428 10.643C50.5135 9.64617 47.9122 9.13592 45.2864 9.14118H45.2839C42.821 9.13847 40.3786 9.58814 38.0782 10.4678L36.9698 10.8905L39.3261 15.0101L32.2206 21.1011L32.2169 21.1037L34.0887 24.3751H27.2896L25.6968 21.5924L34.0717 15.1548L34.0781 15.1497L33.1857 14.3334C31.374 12.6699 29.2655 11.362 26.9702 10.478C24.6573 9.58816 22.1994 9.1349 19.7211 9.14118H19.7137C19.5523 9.14118 19.4052 9.14245 19.2655 9.14626C19.1298 9.14546 18.9953 9.17188 18.8699 9.22396C18.7446 9.27604 18.6309 9.35272 18.5357 9.44947C18.4405 9.54622 18.3656 9.66107 18.3156 9.78725C18.2655 9.91342 18.2412 10.0483 18.2442 10.1841C18.2472 10.3198 18.2773 10.4535 18.3329 10.5774C18.3884 10.7012 18.4682 10.8127 18.5676 10.9052C18.6669 10.9977 18.7838 11.0693 18.9113 11.1159C19.0388 11.1624 19.1744 11.1829 19.31 11.1762C19.4483 11.1736 19.584 11.1724 19.7137 11.1724C23.8535 11.1736 27.7166 12.5117 30.8877 15.0405L23.0575 21.0592L23.0524 21.063L24.9489 24.3751H22.3438C20.4583 24.3751 18.6501 25.1241 17.3169 26.4574C15.9836 27.7906 15.2346 29.5989 15.2346 31.4843C15.2346 33.3698 15.9836 35.1781 17.3169 36.5113C18.6501 37.8445 20.4583 38.5935 22.3438 38.5935H28.0065L22.8951 43.7049L34.531 54.0477V44.0822L40.0194 38.5935H46.7182C48.6036 38.5935 50.4119 37.8445 51.7451 36.5113C53.0783 35.1781 53.8273 33.3698 53.8273 31.4843C53.8273 29.5989 53.0783 27.7906 51.7451 26.4574C50.4119 25.1241 48.6036 24.3751 46.7182 24.3751H36.43L34.8143 21.5531L41.9184 15.4633L41.9222 15.4595L39.9304 11.976C41.6655 11.4418 43.4709 11.1709 45.2864 11.1724C49.9515 11.1505 54.4402 12.9538 57.7935 16.197C61.1297 19.4317 62.9667 23.7214 62.968 28.275C62.9667 32.0848 61.7442 35.7917 59.3372 39.293C57.306 42.2446 54.4152 45.0794 50.7453 47.7174C50.5266 47.8748 50.3794 48.1126 50.3361 48.3786C50.3146 48.5102 50.3193 48.6448 50.3499 48.7747C50.3804 48.9046 50.4363 49.0271 50.5142 49.1354C50.5922 49.2437 50.6907 49.3356 50.8041 49.4058C50.9175 49.476 51.0437 49.5232 51.1754 49.5446C51.4413 49.588 51.7136 49.5239 51.9322 49.3665C53.6645 48.1286 55.3067 46.7694 56.8465 45.299C58.3924 43.8232 59.7872 42.197 61.0104 40.4444C63.6586 36.6042 65.0003 32.5088 64.9992 28.275C65.0025 25.7095 64.472 23.1713 63.4415 20.8218C62.9422 19.6804 62.3316 18.591 61.6185 17.5694ZM32.4998 43.2405V49.5245L25.8547 43.6178L30.879 38.5935H37.1469L32.4998 43.2405ZM35.8395 26.4063H46.7182C48.0649 26.4063 49.3565 26.9413 50.3088 27.8937C51.2611 28.846 51.7962 30.1376 51.7962 31.4843C51.7962 32.8311 51.2611 34.1227 50.3088 35.075C49.3565 36.0273 48.0649 36.5623 46.7182 36.5623H22.3438C20.997 36.5623 19.7054 36.0273 18.7531 35.075C17.8008 34.1227 17.2658 32.8311 17.2658 31.4843C17.2658 30.1376 17.8008 28.846 18.7531 27.8937C19.7054 26.9413 20.997 26.4063 22.3438 26.4063H35.8395Z" fill="#202020"/>
<path d="M39.609 35.5467C39.8783 35.5467 40.1367 35.4397 40.3271 35.2492C40.5176 35.0587 40.6246 34.8004 40.6246 34.5311V28.4375C40.6246 28.1681 40.5176 27.9098 40.3271 27.7193C40.1367 27.5289 39.8783 27.4219 39.609 27.4219C39.3396 27.4219 39.0813 27.5289 38.8908 27.7193C38.7004 27.9098 38.5934 28.1681 38.5934 28.4375V34.5311C38.5934 34.8004 38.7004 35.0587 38.8908 35.2492C39.0813 35.4397 39.3396 35.5467 39.609 35.5467Z" fill="#202020"/>
<path d="M29.453 35.5467C29.7224 35.5467 29.9807 35.4397 30.1712 35.2492C30.3616 35.0587 30.4686 34.8004 30.4686 34.5311V28.4375C30.4686 28.1681 30.3616 27.9098 30.1712 27.7193C29.9807 27.5289 29.7224 27.4219 29.453 27.4219C29.1837 27.4219 28.9254 27.5289 28.7349 27.7193C28.5444 27.9098 28.4374 28.1681 28.4374 28.4375V34.5311C28.4374 34.8004 28.5444 35.0587 28.7349 35.2492C28.9254 35.4397 29.1837 35.5467 29.453 35.5467Z" fill="#202020"/>
<path d="M21.8921 28.6088C21.8368 28.5721 21.7781 28.5406 21.7169 28.5149C21.6555 28.4897 21.5917 28.4706 21.5265 28.4577C21.3954 28.4311 21.2603 28.4311 21.1292 28.4577C21.0643 28.4704 21.001 28.4895 20.94 28.5149C20.8785 28.5401 20.8198 28.5716 20.7648 28.6088C20.6528 28.6818 20.5572 28.7773 20.4842 28.8894C20.4473 28.9445 20.4158 29.0032 20.3903 29.0646C20.3651 29.1261 20.3455 29.1899 20.3319 29.255C20.3065 29.3858 20.3065 29.5203 20.3319 29.6511C20.3455 29.7162 20.3651 29.7799 20.3903 29.8415C20.4158 29.9028 20.4473 29.9615 20.4842 30.0167C20.5572 30.1287 20.6528 30.2243 20.7648 30.2972C20.8198 30.3345 20.8785 30.366 20.94 30.3912C21.001 30.4166 21.0643 30.4357 21.1292 30.4483C21.1947 30.462 21.2615 30.4688 21.3285 30.4686C21.395 30.4688 21.4614 30.462 21.5265 30.4483C21.5917 30.4355 21.6555 30.4164 21.7169 30.3912C21.7781 30.3654 21.8368 30.334 21.8921 30.2972C21.9477 30.261 21.9992 30.2188 22.0457 30.1716C22.1403 30.0773 22.2153 29.9653 22.2665 29.842C22.3177 29.7187 22.3441 29.5865 22.3441 29.453C22.3441 29.3195 22.3177 29.1873 22.2665 29.064C22.2153 28.9407 22.1403 28.8287 22.0457 28.7345C21.9992 28.6872 21.9477 28.6451 21.8921 28.6088Z" fill="#202020"/>
<path d="M26.3278 29.0646C26.2775 28.9409 26.2029 28.8287 26.1083 28.7345C26.0617 28.6872 26.0102 28.6451 25.9547 28.6088C25.8994 28.5721 25.8407 28.5406 25.7795 28.5149C25.718 28.4897 25.6542 28.4706 25.5891 28.4577C25.458 28.4311 25.3228 28.4311 25.1917 28.4577C25.1269 28.4704 25.0635 28.4895 25.0026 28.5149C24.9411 28.5401 24.8824 28.5716 24.8274 28.6088C24.7716 28.6454 24.7197 28.6875 24.6724 28.7345C24.6254 28.7821 24.5829 28.8339 24.5454 28.8894C24.5094 28.9449 24.4784 29.0035 24.4529 29.0646C24.4276 29.1261 24.4081 29.1899 24.3945 29.255C24.3691 29.3858 24.3691 29.5203 24.3945 29.6511C24.4081 29.7162 24.4276 29.7799 24.4529 29.8415C24.4784 29.9025 24.5094 29.9612 24.5454 30.0167C24.5829 30.0721 24.6254 30.1239 24.6724 30.1716C24.8638 30.3608 25.1217 30.4675 25.3909 30.4686C25.4574 30.4688 25.5238 30.462 25.5889 30.4483C25.6541 30.4355 25.7179 30.4164 25.7794 30.3912C25.8406 30.3654 25.8992 30.334 25.9546 30.2972C26.1219 30.1863 26.2519 30.0275 26.3277 29.8415C26.3535 29.7802 26.3731 29.7164 26.3861 29.6511C26.4133 29.5204 26.4133 29.3856 26.3861 29.255C26.3731 29.1897 26.3536 29.1259 26.3278 29.0646Z" fill="#202020"/>
<path d="M26.3278 33.1271C26.2775 33.0034 26.2029 32.8912 26.1083 32.797C26.0617 32.7497 26.0102 32.7076 25.9547 32.6713C25.8994 32.6346 25.8407 32.6031 25.7795 32.5774C25.718 32.5522 25.6542 32.5331 25.5891 32.5202C25.458 32.4936 25.3228 32.4936 25.1917 32.5202C25.1269 32.5329 25.0635 32.552 25.0026 32.5774C24.9411 32.6026 24.8824 32.6341 24.8274 32.6713C24.7716 32.7079 24.7197 32.75 24.6724 32.797C24.6254 32.8446 24.5829 32.8964 24.5454 32.9519C24.5094 33.0074 24.4784 33.066 24.4529 33.1271C24.4276 33.1886 24.4081 33.2524 24.3945 33.3175C24.3691 33.4483 24.3691 33.5828 24.3945 33.7136C24.4081 33.7787 24.4276 33.8424 24.4529 33.904C24.4784 33.965 24.5094 34.0237 24.5454 34.0792C24.5829 34.1346 24.6254 34.1864 24.6724 34.2341C24.8638 34.4233 25.1217 34.53 25.3909 34.5311C25.4574 34.5313 25.5238 34.5245 25.5889 34.5108C25.6541 34.498 25.7179 34.4789 25.7794 34.4537C25.8406 34.4279 25.8992 34.3965 25.9546 34.3597C26.1219 34.2488 26.2519 34.09 26.3277 33.904C26.3535 33.8427 26.3731 33.7789 26.3861 33.7136C26.4133 33.5829 26.4133 33.4481 26.3861 33.3175C26.3731 33.2522 26.3536 33.1884 26.3278 33.1271Z" fill="#202020"/>
<path d="M22.2653 33.1271C22.2151 33.0034 22.1404 32.8912 22.0459 32.797C21.9993 32.7497 21.9478 32.7076 21.8922 32.6713C21.8369 32.6346 21.7783 32.6031 21.7171 32.5774C21.6556 32.5522 21.5918 32.5331 21.5266 32.5202C21.3955 32.4936 21.2604 32.4936 21.1293 32.5202C21.0645 32.5329 21.0011 32.552 20.9401 32.5774C20.8786 32.6026 20.8199 32.6341 20.7649 32.6713C20.6529 32.7443 20.5573 32.8398 20.4844 32.9519C20.4474 33.007 20.4159 33.0657 20.3904 33.1271C20.3652 33.1886 20.3456 33.2524 20.332 33.3175C20.3066 33.4483 20.3066 33.5828 20.332 33.7136C20.3456 33.7787 20.3652 33.8424 20.3904 33.904C20.4159 33.9653 20.4474 34.024 20.4844 34.0792C20.5209 34.1349 20.563 34.1868 20.6099 34.2341C20.6575 34.2807 20.7094 34.3228 20.7649 34.3597C20.8201 34.3968 20.8788 34.4282 20.9401 34.4537C21.0011 34.4791 21.0645 34.4982 21.1293 34.5108C21.1948 34.5245 21.2616 34.5313 21.3286 34.5311C21.3951 34.5313 21.4615 34.5245 21.5266 34.5108C21.5918 34.498 21.6556 34.4789 21.7171 34.4537C21.7783 34.4279 21.8369 34.3965 21.8922 34.3597C22.0596 34.2488 22.1896 34.09 22.2653 33.904C22.2917 33.8428 22.3113 33.779 22.3237 33.7136C22.351 33.5829 22.351 33.4481 22.3237 33.3175C22.3113 33.2521 22.2917 33.1882 22.2653 33.1271Z" fill="#202020"/>
<path d="M42.7335 29.8415C42.759 29.9028 42.7904 29.9615 42.8274 30.0167C42.864 30.0724 42.9061 30.1243 42.953 30.1716C43.0006 30.2182 43.0525 30.2603 43.108 30.2972C43.1632 30.3343 43.2218 30.3657 43.2832 30.3912C43.3442 30.4166 43.4075 30.4357 43.4724 30.4483C43.5379 30.462 43.6047 30.4688 43.6717 30.4686C43.9404 30.4673 44.1979 30.3606 44.3889 30.1716C44.4835 30.0774 44.5581 29.9651 44.6084 29.8415C44.6343 29.7802 44.6539 29.7164 44.6668 29.6511C44.7004 29.4872 44.6925 29.3176 44.644 29.1576C44.5955 28.9975 44.5078 28.8521 44.3889 28.7345C44.3424 28.6872 44.2909 28.6451 44.2353 28.6088C44.18 28.5721 44.1213 28.5406 44.0601 28.5149C43.9987 28.4897 43.9349 28.4706 43.8697 28.4577C43.7386 28.4311 43.6035 28.4311 43.4724 28.4577C43.4075 28.4704 43.3442 28.4895 43.2832 28.5149C43.2218 28.5403 43.1632 28.5718 43.108 28.6088C43.0522 28.6454 43.0003 28.6875 42.953 28.7345C42.8353 28.8529 42.7485 28.9984 42.7 29.1582C42.6516 29.318 42.643 29.4872 42.6751 29.6511C42.6887 29.7162 42.7083 29.7799 42.7335 29.8415Z" fill="#202020"/>
<path d="M46.7959 29.8415C46.8214 29.9028 46.8528 29.9615 46.8898 30.0167C46.9264 30.0724 46.9684 30.1243 47.0154 30.1716C47.063 30.2182 47.1149 30.2603 47.1704 30.2972C47.2254 30.3345 47.2841 30.366 47.3456 30.3912C47.4067 30.416 47.4701 30.4351 47.5347 30.4483C47.6004 30.4613 47.6671 30.4681 47.734 30.4686C47.8006 30.4681 47.8669 30.4613 47.9321 30.4483C47.9971 30.4349 48.0608 30.4158 48.1225 30.3912C48.1837 30.3654 48.2424 30.334 48.2977 30.2972C48.353 30.2606 48.4044 30.2185 48.4513 30.1716C48.5459 30.0773 48.6209 29.9653 48.6721 29.842C48.7233 29.7187 48.7496 29.5865 48.7496 29.453C48.7496 29.3195 48.7233 29.1873 48.6721 29.064C48.6209 28.9407 48.5459 28.8287 48.4513 28.7345C48.4048 28.6872 48.3533 28.6451 48.2977 28.6088C48.2424 28.5721 48.1837 28.5406 48.1225 28.5149C48.061 28.4897 47.9973 28.4706 47.9321 28.4577C47.801 28.4311 47.6658 28.4311 47.5347 28.4577C47.4699 28.4704 47.4065 28.4895 47.3456 28.5149C47.2841 28.5401 47.2254 28.5716 47.1704 28.6088C47.0583 28.6818 46.9628 28.7773 46.8898 28.8894C46.8528 28.9445 46.8214 29.0032 46.7959 29.0646C46.7705 29.126 46.7513 29.1897 46.7388 29.255C46.7117 29.3856 46.7117 29.5204 46.7388 29.6511C46.7513 29.7163 46.7705 29.7801 46.7959 29.8415Z" fill="#202020"/>
<path d="M46.7959 33.904C46.8214 33.9653 46.8528 34.024 46.8898 34.0791C46.9264 34.1349 46.9684 34.1867 47.0154 34.234C47.063 34.2807 47.1149 34.3228 47.1704 34.3597C47.2254 34.397 47.2841 34.4284 47.3456 34.4537C47.4065 34.479 47.4699 34.4982 47.5347 34.5108C47.6003 34.5244 47.6671 34.5312 47.734 34.5311C47.8006 34.5312 47.867 34.5244 47.9321 34.5108C47.9973 34.498 48.061 34.4788 48.1225 34.4537C48.1837 34.4279 48.2424 34.3964 48.2977 34.3597C48.4651 34.2488 48.5951 34.0899 48.6708 33.904C48.6972 33.8428 48.7168 33.779 48.7292 33.7135C48.743 33.6484 48.7499 33.582 48.7496 33.5155C48.7484 33.2461 48.6413 32.988 48.4513 32.797C48.4048 32.7497 48.3533 32.7076 48.2977 32.6713C48.2424 32.6345 48.1837 32.6031 48.1225 32.5773C48.0609 32.5523 47.9971 32.5328 47.9321 32.5189C47.7682 32.4872 47.599 32.496 47.4393 32.5444C47.2796 32.5929 47.134 32.6795 47.0154 32.797C46.9684 32.8442 46.9264 32.8961 46.8898 32.9518C46.8528 33.007 46.8214 33.0657 46.7959 33.127C46.7705 33.1884 46.7513 33.2522 46.7388 33.3175C46.7117 33.4481 46.7117 33.5829 46.7388 33.7135C46.7513 33.7788 46.7705 33.8426 46.7959 33.904Z" fill="#202020"/>
<path d="M43.108 34.3597C43.1632 34.3968 43.2218 34.4282 43.2832 34.4537C43.3442 34.4791 43.4075 34.4982 43.4724 34.5108C43.5379 34.5245 43.6047 34.5313 43.6717 34.5311C43.822 34.5318 43.9706 34.4989 44.1066 34.4349C44.2426 34.3709 44.3627 34.2773 44.458 34.1611C44.5533 34.0448 44.6215 33.9088 44.6576 33.7629C44.6938 33.6169 44.6969 33.4648 44.6668 33.3175C44.6539 33.2522 44.6343 33.1884 44.6084 33.1271C44.5581 33.0034 44.4835 32.8912 44.3889 32.797C44.3424 32.7497 44.2909 32.7076 44.2353 32.6713C44.18 32.6346 44.1213 32.6031 44.0601 32.5774C43.9987 32.5522 43.9349 32.5331 43.8697 32.5202C43.7386 32.4936 43.6035 32.4936 43.4724 32.5202C43.4075 32.5329 43.3442 32.552 43.2832 32.5774C43.2218 32.6028 43.1632 32.6343 43.108 32.6713C42.996 32.7443 42.9004 32.8398 42.8274 32.9519C42.7904 33.007 42.759 33.0657 42.7335 33.1271C42.7083 33.1886 42.6887 33.2524 42.6751 33.3175C42.643 33.4813 42.6516 33.6506 42.7 33.8103C42.7485 33.9701 42.8353 34.1156 42.953 34.2341C43.0003 34.2811 43.0522 34.3232 43.108 34.3597Z" fill="#202020"/>
<path d="M59.9212 6.09438C60.0544 6.0947 60.1864 6.06862 60.3095 6.01763C60.4327 5.96664 60.5444 5.89176 60.6385 5.79732L64.7021 1.73366C64.8925 1.54308 64.9994 1.28466 64.9993 1.01527C64.9991 0.745869 64.892 0.487559 64.7014 0.29716C64.5108 0.106761 64.2524 -0.000130816 63.983 1.2015e-07C63.7136 0.000131056 63.4553 0.107274 63.2649 0.297858L59.2025 4.36025C59.0603 4.5023 58.9635 4.68334 58.9242 4.88046C58.885 5.07759 58.9051 5.28193 58.982 5.46761C59.059 5.65329 59.1893 5.81196 59.3565 5.92353C59.5237 6.03511 59.7202 6.09457 59.9212 6.09438Z" fill="#202020"/>
<path d="M53.8276 6.09448C53.961 6.09486 54.0931 6.06868 54.2162 6.01745C54.3394 5.96623 54.4511 5.891 54.5449 5.79615L58.6073 1.73503C58.7978 1.54461 58.9049 1.28629 58.9051 1.0169C58.9052 0.747499 58.7982 0.489094 58.6078 0.298527C58.4174 0.10796 58.1591 0.000839645 57.8897 0.000732502C57.6203 0.000625359 57.3619 0.10754 57.1713 0.297956L53.1089 4.36035C52.9186 4.55079 52.8117 4.80901 52.8117 5.07825C52.8117 5.34749 52.9186 5.60571 53.1089 5.79615C53.2029 5.89112 53.3148 5.96642 53.4382 6.01765C53.5616 6.06887 53.694 6.09499 53.8276 6.09448Z" fill="#202020"/>
<path d="M63.9836 6.09424C63.8502 6.0938 63.7179 6.11982 63.5946 6.17081C63.4712 6.2218 63.3592 6.29674 63.265 6.39131L59.2026 10.4537C59.012 10.6441 58.9049 10.9024 58.9048 11.1718C58.9047 11.4412 59.0116 11.6996 59.202 11.8902C59.3924 12.0808 59.6507 12.1879 59.9201 12.188C60.1895 12.1881 60.4479 12.0812 60.6385 11.8908L64.7022 7.82838C64.8444 7.68634 64.9412 7.50531 64.9805 7.3082C65.0197 7.11108 64.9996 6.90676 64.9227 6.72108C64.8457 6.53541 64.7154 6.37673 64.5483 6.26515C64.3811 6.15356 64.1846 6.09409 63.9836 6.09424Z" fill="#202020"/>
<path d="M5.07891 58.9055C4.94543 58.9051 4.81319 58.9311 4.68983 58.9821C4.56647 59.0331 4.45445 59.108 4.36025 59.2026L0.297856 63.265C0.203496 63.3593 0.128631 63.4712 0.0775357 63.5944C0.0264401 63.7176 0.000114163 63.8497 6.11155e-05 63.9831C8.0678e-06 64.1165 0.0262289 64.2486 0.0772266 64.3719C0.128224 64.4951 0.203 64.6071 0.297284 64.7015C0.391569 64.7958 0.503515 64.8707 0.626733 64.9218C0.74995 64.9729 0.882025 64.9992 1.01542 64.9993C1.14881 64.9993 1.2809 64.9731 1.40416 64.9221C1.52742 64.8711 1.63942 64.7963 1.73378 64.702L5.79618 60.6397C5.93829 60.4977 6.03512 60.3168 6.07442 60.1198C6.11371 59.9228 6.0937 59.7186 6.01693 59.5329C5.94015 59.3473 5.81005 59.1886 5.64309 59.077C5.47612 58.9653 5.27978 58.9056 5.07891 58.9055Z" fill="#202020"/>
<path d="M11.1725 58.9055C11.039 58.9051 10.9068 58.9311 10.7834 58.9821C10.6601 59.0331 10.5481 59.108 10.4538 59.2026L6.39146 63.265C6.29346 63.3584 6.21514 63.4705 6.1611 63.5947C6.10706 63.7188 6.0784 63.8525 6.07679 63.9879C6.07519 64.1233 6.10067 64.2577 6.15175 64.3831C6.20283 64.5085 6.27846 64.6224 6.37421 64.7182C6.46997 64.8139 6.58389 64.8895 6.7093 64.9406C6.83471 64.9917 6.96906 65.0171 7.10446 65.0155C7.23985 65.0139 7.37356 64.9852 7.49771 64.9312C7.62186 64.8771 7.73395 64.7988 7.82738 64.7008L11.8898 60.6397C12.0319 60.4977 12.1287 60.3168 12.168 60.1198C12.2073 59.9228 12.1873 59.7186 12.1105 59.5329C12.0338 59.3473 11.9037 59.1886 11.7367 59.077C11.5697 58.9653 11.3734 58.9056 11.1725 58.9055Z" fill="#202020"/>
<path d="M1.01652 58.9055C1.14978 58.9058 1.28177 58.8798 1.40488 58.8288C1.528 58.7778 1.63978 58.7029 1.73379 58.6085L5.79618 54.5461C5.98675 54.3556 6.09387 54.0973 6.09398 53.8279C6.09408 53.5585 5.98717 53.3001 5.79675 53.1096C5.60634 52.919 5.34802 52.8119 5.07862 52.8118C4.80923 52.8117 4.55082 52.9186 4.36025 53.109L0.297862 57.1714C0.155659 57.3134 0.0588017 57.4945 0.0195525 57.6916C-0.0196968 57.8887 0.000427486 58.0931 0.0773773 58.2787C0.154327 58.4644 0.284642 58.6231 0.451823 58.7347C0.619003 58.8462 0.815532 58.9057 1.01652 58.9055Z" fill="#202020"/>
</svg>
