<svg width="74" height="74" viewBox="0 0 74 74" fill="none" xmlns="http://www.w3.org/2000/svg">
<path d="M7.40001 64.1333C7.40001 64.8144 7.95224 65.3666 8.63334 65.3666H30.8333C31.5144 65.3666 32.0667 64.8144 32.0667 64.1333V57.9913C32.0601 55.2398 30.239 52.8219 27.5958 52.0565L23.4333 50.8677V49.3013C24.9804 48.1463 25.8946 46.3306 25.9 44.3999V43.1666C26.5811 43.1666 27.1333 42.6144 27.1333 41.9333V40.6999C27.1333 36.6133 23.82 33.2999 19.7333 33.2999C15.6467 33.2999 12.3333 36.6133 12.3333 40.6999V41.9333C12.3333 42.6144 12.8856 43.1666 13.5667 43.1666V44.3999C13.5721 46.3306 14.4863 48.1463 16.0333 49.3013V50.8677L11.872 52.0565C9.22833 52.8213 7.40603 55.2392 7.40001 57.9913V64.1333ZM19.7333 35.7666C22.4451 35.7666 24.6486 37.955 24.6667 40.6668C24.3126 40.5807 24.0145 40.3428 23.8525 40.0164L23.3039 38.9168C23.1461 38.5994 22.8594 38.3657 22.5174 38.2748C22.1747 38.1833 21.8104 38.2441 21.5153 38.4404L19.6803 39.6641C18.6674 40.3404 17.4768 40.7011 16.2592 40.6999H14.8C14.8 37.9755 17.0089 35.7666 19.7333 35.7666ZM16.2592 43.1666C17.964 43.1684 19.6304 42.6631 21.048 41.7165L21.7237 41.266C22.1121 41.9513 22.7119 42.4921 23.4333 42.8077V44.3999C23.4333 46.4432 21.7767 48.0999 19.7333 48.0999C17.69 48.0999 16.0333 46.4432 16.0333 44.3999V43.1666H16.2592ZM19.7333 50.5666C20.1477 50.5672 20.5608 50.5256 20.9667 50.4431V51.7999C20.9709 52.151 21.1257 52.4834 21.3924 52.7129L19.7333 53.9583L18.0742 52.7129C18.341 52.4834 18.4958 52.151 18.5 51.7999V50.4431C18.9059 50.5256 19.319 50.5672 19.7333 50.5666ZM9.86668 57.9913C9.86969 56.3394 10.9627 54.8881 12.5489 54.428L15.2318 53.6638L18.9932 56.4864C19.4316 56.8158 20.0351 56.8158 20.4735 56.4864L24.2349 53.6638L26.919 54.4292C28.5046 54.8887 29.597 56.34 29.6 57.9913V62.8999H27.1333V57.9666H24.6667V62.8999H14.8V57.9666H12.3333V62.8999H9.86668V57.9913Z" fill="#202020"/>
<path d="M65.3667 57.9667C67.41 57.9667 69.0667 56.31 69.0667 54.2667V39.4667C69.0667 37.4234 67.41 35.7667 65.3667 35.7667H40.7C38.6567 35.7667 37 37.4234 37 39.4667V54.2667C37 56.31 38.6567 57.9667 40.7 57.9667H49.3333V62.9001H46.8667V65.3667H59.2V62.9001H56.7333V57.9667H65.3667ZM40.7 55.5001C40.0189 55.5001 39.4667 54.9478 39.4667 54.2667V39.4667C39.4667 38.7856 40.0189 38.2334 40.7 38.2334H65.3667C66.0478 38.2334 66.6 38.7856 66.6 39.4667V54.2667C66.6 54.9478 66.0478 55.5001 65.3667 55.5001H56.7333V49.3334C56.7333 48.6523 56.1811 48.1001 55.5 48.1001H50.5667C49.8856 48.1001 49.3333 48.6523 49.3333 49.3334V55.5001H40.7ZM51.8 62.9001V50.5667H54.2667V62.9001H51.8Z" fill="#202020"/>
<path d="M24.6667 24.6667H32.0667V30.8333C32.0667 31.332 32.3672 31.7818 32.8279 31.9727C33.2886 32.1636 33.8191 32.0576 34.172 31.7053L41.2107 24.6667H56.7333C58.7766 24.6667 60.4333 23.01 60.4333 20.9667V3.7C60.4333 1.65669 58.7766 0 56.7333 0H24.6667C22.6233 0 20.9667 1.65669 20.9667 3.7V20.9667C20.9667 23.01 22.6233 24.6667 24.6667 24.6667ZM23.4333 3.7C23.4333 3.0189 23.9856 2.46667 24.6667 2.46667H56.7333C57.4144 2.46667 57.9667 3.0189 57.9667 3.7V20.9667C57.9667 21.6478 57.4144 22.2 56.7333 22.2H40.7C40.373 22.2 40.0592 22.3301 39.828 22.5613L34.5333 27.856V23.4333C34.5333 22.7522 33.9811 22.2 33.3 22.2H24.6667C23.9856 22.2 23.4333 21.6478 23.4333 20.9667V3.7Z" fill="#202020"/>
<path d="M74 66.6001H0V69.0668H2.46667V72.7668C2.46667 73.4479 3.0189 74.0001 3.7 74.0001H70.3C70.9811 74.0001 71.5333 73.4479 71.5333 72.7668V69.0668H74V66.6001ZM69.0667 71.5334H4.93333V69.0668H69.0667V71.5334Z" fill="#202020"/>
<path d="M29.6 6.16663H51.8V8.63329H29.6V6.16663Z" fill="#202020"/>
<path d="M29.6 11.1001H51.8V13.5668H29.6V11.1001Z" fill="#202020"/>
<path d="M29.6 16.0334H51.8V18.5001H29.6V16.0334Z" fill="#202020"/>
<path d="M1.23333 41.9335H7.4V39.4668H2.46667V12.3335H8.63333V9.86682H1.23333C0.55223 9.86682 0 10.4191 0 11.1002V40.7002C0 41.3813 0.55223 41.9335 1.23333 41.9335Z" fill="#202020"/>
<path d="M11.1 9.86682H13.5667V12.3335H11.1V9.86682Z" fill="#202020"/>
<path d="M16.0333 9.86682H18.5V12.3335H16.0333V9.86682Z" fill="#202020"/>
<path d="M66.6 23.4335H69.0667V11.1002C69.0667 10.4191 68.5145 9.86682 67.8334 9.86682H62.9V12.3335H66.6V23.4335Z" fill="#202020"/>
<path d="M66.6 25.8999H69.0666V28.3666H66.6V25.8999Z" fill="#202020"/>
<path d="M66.6 30.8334H69.0666V33.3H66.6V30.8334Z" fill="#202020"/>
</svg>
