<svg width="54" height="70" viewBox="0 0 54 70" fill="none" xmlns="http://www.w3.org/2000/svg">
<g filter="url(#filter0_d)">
<path d="M19.1294 48.8145L17.0391 51.9506C16.4729 52.7964 15.3669 53.0901 14.4554 52.637L12.5066 51.6668C12.1703 51.4989 11.7691 51.5268 11.4593 51.7397C11.1495 51.953 10.9801 52.3177 11.0166 52.6919C11.1665 54.2221 11.2365 55.5385 11.2365 56.8332C11.2365 62 15.1697 62 24.6699 62C34.1705 62 38.1032 62 38.1032 56.8332C38.1032 49.1617 40.1453 43.09 42.1211 37.207C43.7743 32.2843 45.3367 27.6354 45.3367 22.7335C45.3514 19.9034 44.4767 17.1409 42.8372 14.8345C42.6353 14.5421 42.2975 14.3742 41.9428 14.3893C41.588 14.4045 41.2659 14.6008 41.0899 14.9087L40.3662 16.1788C39.949 16.903 39.1032 17.2639 38.2915 17.0643L32.9232 15.7209C32.2089 15.5426 31.4549 15.6187 30.7903 15.9361L31.83 14.3766C32.1753 13.8615 32.7898 13.5951 33.4019 13.6959L36.7868 14.2602C37.3634 14.3567 37.9547 14.2162 38.4268 13.8709C38.8989 13.5261 39.2115 13.0048 39.2938 12.4258L39.4126 11.599C39.4608 11.2617 39.3402 10.9226 39.089 10.6917L38.5394 10.1898C37.3076 9.07068 36.0366 7.91319 36.0366 7.23346C35.9661 6.09537 36.4164 4.98755 37.2603 4.22125C37.7977 3.76857 38.1065 3.10114 38.1032 2.39822C38.1023 1.07423 37.029 0.000946045 35.705 0H13.6352C12.3112 0.000946045 11.2379 1.07423 11.2365 2.39822C11.2337 3.10114 11.5426 3.76857 12.0799 4.22125C12.9238 4.98755 13.3741 6.09537 13.3036 7.23346C13.3036 7.9113 12.0388 9.06358 10.815 10.1771C8.10274 12.6481 4.00352 16.3812 4.00352 22.7335C4.00352 27.6387 5.56355 32.2937 7.21582 37.2226C8.44568 40.6709 9.46457 44.1907 10.2663 47.7625C10.3302 48.0723 10.5327 48.3358 10.815 48.4777L14.1219 50.1309C14.5765 50.3584 15.103 50.3963 15.585 50.2355C16.0675 50.0746 16.4662 49.7293 16.6938 49.2743L17.593 47.4763C17.8891 46.8789 18.4979 46.5009 19.1644 46.5H22.7357L21.0371 47.2233C20.2599 47.5567 19.5967 48.1097 19.1294 48.8145ZM6.20213 25.0182C6.17281 24.7358 6.14774 24.46 6.12787 24.1913C6.10327 23.8257 6.09097 23.4595 6.08435 23.0939C12.21 24.2604 18.4345 24.8318 24.6699 24.8001C30.9057 24.8337 37.1298 24.2632 43.2554 23.0972C43.2492 23.4619 43.2369 23.8266 43.2124 24.1904C43.1925 24.46 43.1669 24.7381 43.1367 25.0234C43.1315 25.0655 43.1263 25.109 43.1225 25.1516C37.0427 26.3275 30.8622 26.9017 24.6699 26.8667C18.478 26.9017 12.2975 26.3275 6.21774 25.1516L6.20213 25.0182ZM12.2062 11.7054C13.9739 10.0957 15.3703 8.82471 15.3703 7.23346C15.4464 5.4828 14.7241 3.79222 13.4067 2.6371C13.3381 2.57703 13.3003 2.48952 13.3036 2.39822C13.3036 2.21516 13.4521 2.06664 13.6352 2.06664H35.705C35.793 2.06664 35.8772 2.10164 35.9396 2.1636C36.0016 2.22604 36.0366 2.31024 36.0366 2.39822C36.0399 2.48952 36.0021 2.57703 35.9335 2.6371C34.6161 3.79222 33.8938 5.4828 33.97 7.23346C33.97 8.82565 35.3711 10.1019 37.1454 11.7191L37.2859 11.8473L37.2447 12.1335L37.1236 12.2224L33.7387 11.6581C32.3243 11.4263 30.9053 12.0413 30.1073 13.2319L26.9101 18.0264C26.6499 18.4162 26.684 18.9327 26.9943 19.2842C27.3046 19.6361 27.8126 19.735 28.2322 19.5249L31.6607 17.8107C31.8953 17.6929 32.1644 17.6636 32.4189 17.727L37.7925 19.0704C39.3979 19.4649 41.0795 18.8197 42.0085 17.4522C42.5799 18.5657 42.9612 19.7667 43.1367 21.0055C37.0531 22.189 30.8674 22.7675 24.6699 22.7335C18.4704 22.767 12.2828 22.1876 6.1974 21.0036C6.82652 16.6149 9.77771 13.9177 12.2062 11.7054ZM21.8511 49.1267L28.1773 46.4163C28.6281 46.2228 28.8807 45.7394 28.7819 45.2588C28.6835 44.7782 28.2606 44.4334 27.7701 44.4334H19.1644C17.7127 44.4282 16.3844 45.2489 15.7402 46.5497L14.9133 48.2133L12.1906 46.8524C11.3813 43.3695 10.3766 39.9354 9.18123 36.5656C8.09044 33.5453 7.20825 30.4541 6.54034 27.3133C12.5198 28.4178 18.5896 28.9603 24.6699 28.9334C30.752 28.9613 36.8232 28.4187 42.8041 27.3133C42.1353 30.4485 41.2526 33.5345 40.1618 36.549C38.2286 42.3024 36.0366 48.824 36.0366 56.8332C36.0366 59.7267 34.4652 59.9334 24.6699 59.9334C14.875 59.9334 13.3036 59.7267 13.3036 56.8332C13.3036 56.0201 13.2776 55.2008 13.2227 54.3318L13.533 54.4856C15.3764 55.4046 17.6157 54.8101 18.7604 53.0977L20.8469 49.9616C21.0929 49.5912 21.442 49.3012 21.8511 49.1267Z" fill="#202020"/>
<path d="M5.96532 48.5851C5.45777 48.5085 4.94265 48.6636 4.56186 49.008C4.18155 49.3524 3.97579 49.85 4.00228 50.3627L4.08884 52.1101C4.13378 53.0197 4.88446 53.734 5.79503 53.7335C5.86882 53.733 5.94261 53.7283 6.01593 53.7188C8.16251 53.4336 9.48792 52.7487 9.95621 51.681C10.1606 51.2331 10.1393 50.7142 9.89945 50.2842C9.61327 49.7663 8.89286 49.0246 5.96532 48.5851ZM6.13892 51.6139L6.09351 50.6995C6.65215 50.7875 7.20038 50.9304 7.73064 51.1262C7.22782 51.3717 6.68999 51.5363 6.13608 51.6139H6.13892Z" fill="#202020"/>
<path d="M49.3533 8.45909C49.5089 7.73915 49.2251 6.99508 48.6296 6.56179L45.9471 4.61578C45.0644 4.00227 43.8563 4.18344 43.1922 5.0292C41.9429 6.27845 40.6989 9.47277 41.635 10.7674C41.897 11.135 42.3204 11.3526 42.7717 11.3521C43.0763 11.3459 43.3748 11.2674 43.643 11.1227C45.0147 10.5342 46.4513 10.1114 47.9229 9.86207C48.6395 9.72631 49.2034 9.17241 49.3533 8.45909ZM45.3354 5.45208L44.7281 6.28791L45.3354 5.45208ZM43.4344 8.95576C43.6378 7.97377 44.1141 7.0684 44.8085 6.34468L47.0052 7.94113C45.7895 8.1819 44.5952 8.52153 43.4344 8.95576Z" fill="#202020"/>
</g>
<defs>
<filter id="filter0_d" x="0" y="0" width="53.3954" height="70" filterUnits="userSpaceOnUse" color-interpolation-filters="sRGB">
<feFlood flood-opacity="0" result="BackgroundImageFix"/>
<feColorMatrix in="SourceAlpha" type="matrix" values="0 0 0 0 0 0 0 0 0 0 0 0 0 0 0 0 0 0 127 0"/>
<feOffset dy="4"/>
<feGaussianBlur stdDeviation="2"/>
<feColorMatrix type="matrix" values="0 0 0 0 0 0 0 0 0 0 0 0 0 0 0 0 0 0 0.25 0"/>
<feBlend mode="normal" in2="BackgroundImageFix" result="effect1_dropShadow"/>
<feBlend mode="normal" in="SourceGraphic" in2="effect1_dropShadow" result="shape"/>
</filter>
</defs>
</svg>
