<svg width="66" height="60" viewBox="0 0 66 60" fill="none" xmlns="http://www.w3.org/2000/svg">
<path d="M50.4549 24.8436C50.4534 24.8314 50.4525 24.819 50.4507 24.8069C50.4421 24.7466 50.4306 24.6864 50.4143 24.627C50.4142 24.6264 50.4139 24.6258 50.4137 24.625C50.3985 24.5695 50.3791 24.5147 50.3571 24.4605C50.3508 24.445 50.344 24.43 50.3373 24.4148C50.3199 24.3757 50.3007 24.3372 50.2798 24.2992C50.2707 24.2826 50.2618 24.2661 50.252 24.2498C50.2468 24.241 50.2426 24.2319 50.2371 24.2231C50.215 24.188 50.1908 24.155 50.1663 24.1223C50.1617 24.1162 50.1579 24.1097 50.1533 24.1038C50.116 24.0554 50.0756 24.0104 50.0334 23.9679C50.0255 23.9598 50.0168 23.9524 50.0086 23.9446C49.9719 23.9092 49.9338 23.8761 49.8941 23.8448C49.8839 23.8369 49.8741 23.829 49.8636 23.8214C49.8105 23.782 49.7557 23.7452 49.6985 23.7134L27.6999 11.2089L40.366 3.23314L61.6003 15.303L52.6574 20.9343C51.9595 21.3736 51.75 22.2956 52.1894 22.9934C52.6287 23.6913 53.5506 23.9008 54.2486 23.4614L65.3021 16.5011C65.7465 16.2215 66.0112 15.7288 65.9993 15.2038C65.9875 14.6788 65.701 14.1989 65.2443 13.9394L41.0645 0.195076C40.5862 -0.0769855 39.9968 -0.0635466 39.531 0.229569L24.0082 10.0042C24.0051 10.0062 24.0018 10.0082 23.9987 10.0102L16.2419 14.8946C16.2384 14.8968 16.2348 14.8991 16.2313 14.9013L0.698021 24.6827C0.253644 24.9624 -0.0111001 25.455 0.000845544 25.98C0.0126418 26.505 0.299187 26.9849 0.755808 27.2444L24.9358 40.9887C25.1649 41.1191 25.4193 41.1839 25.6736 41.1839C25.9503 41.1839 26.2265 41.107 26.4692 40.9542L37.5228 33.9938C38.2207 33.5545 38.4302 32.6325 37.9907 31.9347C37.5516 31.2368 36.6294 31.0271 35.9316 31.4667L25.6343 37.9508L4.39997 25.8807L17.0662 17.9047L39.7136 30.7779V47.8276C39.7136 48.3714 40.0091 48.8721 40.4851 49.1349C40.7101 49.2591 40.9586 49.3208 41.2068 49.3208C41.4836 49.3208 41.7599 49.2439 42.0024 49.0911L49.7691 44.2005C50.2033 43.9271 50.4667 43.45 50.4667 42.9369V25.0185C50.4667 25.0097 50.4652 25.0013 50.4649 24.9925C50.464 24.9429 50.4607 24.8934 50.4549 24.8436ZM42.7 45.123V29.9093C42.7 29.3722 42.4115 28.8766 41.9446 28.6113L19.9331 16.0996L24.8328 13.0142L46.067 25.0842L44.2078 26.2549C43.5099 26.6942 43.3004 27.6162 43.7398 28.314C44.0236 28.7649 44.5087 29.0118 45.0049 29.0118C45.2766 29.0118 45.552 28.9376 45.799 28.782L47.4802 27.7234V42.1128L42.7 45.123Z" fill="#202020"/>
<path d="M63.711 19.9467L52.6575 26.907C51.9595 27.3463 51.7501 28.2683 52.1895 28.9661C52.4732 29.417 52.9583 29.6639 53.4545 29.6639C53.7263 29.6639 54.0016 29.5897 54.2486 29.4341L65.3022 22.4738C66.0001 22.0345 66.2096 21.1125 65.7702 20.4147C65.3309 19.7168 64.4088 19.5071 63.711 19.9467Z" fill="#202020"/>
<path d="M35.9314 37.4393L25.6341 43.9234L2.23131 30.6209C1.51487 30.2136 0.602821 30.4638 0.195326 31.1812C-0.212169 31.8981 0.0385397 32.8097 0.755575 33.2171L24.9356 46.9615C25.1646 47.0918 25.4191 47.1566 25.6734 47.1566C25.9501 47.1566 26.2263 47.0797 26.4689 46.927L37.5225 39.9666C38.2204 39.5273 38.4299 38.6052 37.9905 37.9074C37.5513 37.2094 36.6291 36.9997 35.9314 37.4393Z" fill="#202020"/>
<path d="M63.711 25.9196L52.6575 32.8798C51.9595 33.3191 51.7501 34.2412 52.1895 34.939C52.4732 35.3899 52.9583 35.6367 53.4545 35.6367C53.7263 35.6367 54.0016 35.5625 54.2486 35.4069L65.3022 28.4467C66.0001 28.0074 66.2096 27.0853 65.7702 26.3875C65.3309 25.6895 64.4088 25.48 63.711 25.9196Z" fill="#202020"/>
<path d="M35.9314 43.4123L25.6341 49.8964L2.23131 36.5939C1.51487 36.1866 0.602821 36.4368 0.195326 37.1542C-0.212169 37.8711 0.0385397 38.7827 0.755575 39.1902L24.9356 52.9345C25.1646 53.0648 25.4191 53.1296 25.6734 53.1296C25.9501 53.1296 26.2263 53.0527 26.4689 52.9L37.5225 45.9396C38.2204 45.5003 38.4299 44.5782 37.9905 43.8805C37.5513 43.1822 36.6291 42.9727 35.9314 43.4123Z" fill="#202020"/>
<path d="M63.711 31.8925L52.6575 38.8527C51.9595 39.292 51.7501 40.2141 52.1895 40.9119C52.4732 41.3628 52.9583 41.6096 53.4545 41.6096C53.7263 41.6096 54.0016 41.5354 54.2486 41.3798L65.3022 34.4196C66.0001 33.9803 66.2096 33.0582 65.7702 32.3604C65.3309 31.6625 64.4088 31.453 63.711 31.8925Z" fill="#202020"/>
<path d="M35.9314 49.3849L25.6341 55.869L2.23131 42.5665C1.51487 42.1592 0.602821 42.4095 0.195326 43.1268C-0.212169 43.8437 0.0385397 44.7553 0.755575 45.1628L24.9356 58.9071C25.1646 59.0375 25.4191 59.1023 25.6734 59.1023C25.9501 59.1023 26.2263 59.0254 26.4689 58.8726L37.5225 51.9122C38.2204 51.4729 38.4299 50.5508 37.9905 49.8531C37.5513 49.155 36.6291 48.9454 35.9314 49.3849Z" fill="#202020"/>
</svg>
