<svg width="67" height="65" viewBox="0 0 67 65" fill="none" xmlns="http://www.w3.org/2000/svg">
<path d="M40.9138 39.2789C46.9684 36.8199 50.8926 30.8961 50.7953 24.3619C50.7953 15.3812 43.0364 8.07498 33.4995 8.07498C23.9626 8.07498 16.2037 15.3812 16.2037 24.3619C16.1064 30.8961 20.0304 36.8199 26.0852 39.2789L26.2193 39.3515L27.1349 40.854C25.5002 41.8002 24.9421 43.8924 25.8882 45.527C26.0126 45.7419 26.16 45.9427 26.3279 46.1257C25.046 47.531 25.1459 49.7093 26.5511 50.9913C27.1894 51.5736 28.0234 51.8947 28.8873 51.891H38.1117C40.0138 51.8993 41.5625 50.3641 41.5709 48.462C41.5746 47.5979 41.2535 46.7639 40.6712 46.1257C41.9481 44.7338 41.8547 42.5704 40.4628 41.2937C40.2797 41.1258 40.0791 40.9784 39.8641 40.854L40.7797 39.3515L40.9138 39.2789ZM38.1116 49.5849H28.8871C28.2504 49.5849 27.7341 49.0686 27.7341 48.4318C27.7341 47.7951 28.2504 47.2788 28.8871 47.2788H38.1116C38.7483 47.2788 39.2646 47.7951 39.2646 48.4318C39.2646 49.0686 38.7483 49.5849 38.1116 49.5849ZM38.1116 44.9727H28.8871C28.2504 44.9727 27.7341 44.4564 27.7341 43.8196C27.7341 43.1828 28.2504 42.6666 28.8871 42.6666H38.1116C38.7483 42.6666 39.2646 43.1828 39.2646 43.8196C39.2646 44.4564 38.7483 44.9727 38.1116 44.9727ZM39.8671 37.2229L39.406 37.4734C39.2276 37.5706 39.0778 37.7132 38.9719 37.8866L37.4641 40.3605H36.9585V31.6134L42.3859 26.186L40.7555 24.5554L34.9902 30.3207C34.7741 30.5369 34.6525 30.83 34.6524 31.1359V40.3603H32.3463V31.1359C32.3462 30.83 32.2247 30.5369 32.0085 30.3207L26.2432 24.5554L24.6128 26.1858L30.0402 31.6133V40.3603H29.5346L28.0268 37.8864C27.9209 37.713 27.7711 37.5705 27.5927 37.4732L27.1316 37.2227C27.0946 37.203 27.0567 37.1851 27.0179 37.1692C21.8048 35.072 18.4223 29.9802 18.5097 24.3619C18.5097 16.6531 25.2337 10.3811 33.4994 10.3811C41.765 10.3811 48.489 16.6531 48.489 24.3619C48.5764 29.9802 45.1938 35.072 39.9808 37.1692C39.942 37.1852 39.904 37.2031 39.8671 37.2229Z" fill="#202020"/>
<path d="M9.80052 8.19703L8.76917 10.2597L15.6875 13.7189L16.7188 11.6562L9.80052 8.19703Z" fill="#202020"/>
<path d="M57.3429 8.64016L50.0053 11.0876L50.735 13.2753L58.0725 10.8279L57.3429 8.64016Z" fill="#202020"/>
<path d="M11.5917 23.0648H4.673V25.3711H11.5917V23.0648Z" fill="#202020"/>
<path d="M62.3261 23.0648H55.4073V25.3711H62.3261V23.0648Z" fill="#202020"/>
<path d="M15.6876 37.0218L8.76929 40.481L9.80064 42.5437L16.7189 39.0845L15.6876 37.0218Z" fill="#202020"/>
<path d="M51.3102 37.026L50.2788 39.0887L57.1971 42.5479L58.2285 40.4852L51.3102 37.026Z" fill="#202020"/>
<path d="M34.6525 0.00366211H32.3463V5.76926H34.6525V0.00366211Z" fill="#202020"/>
<path d="M66.9379 54.1971V51.891C51.8947 51.891 35.9091 55.5275 35.806 62.2685H31.1926C31.0896 55.5275 15.104 51.891 0.060791 51.891V54.1971C16.9529 54.1971 28.7483 58.4366 28.8809 62.2685H0.060791V64.5746H66.9379V62.2685H38.1177C38.2503 58.4366 50.0458 54.1971 66.9379 54.1971Z" fill="#202020"/>
<path d="M0.121301 57.6593L0 59.9621L21.9119 61.1163L22.0332 58.8134L0.121301 57.6593Z" fill="#202020"/>
<path d="M66.8785 57.6573L44.9666 58.8137L45.0881 61.1165L67 59.9602L66.8785 57.6573Z" fill="#202020"/>
</svg>
