<svg width="57" height="69" viewBox="0 0 57 69" fill="none" xmlns="http://www.w3.org/2000/svg">
<path d="M55.8948 54.0405C55.406 52.6657 54.103 51.7485 52.6438 51.752H49.8623L45.7445 44.5468V32.204C45.7445 29.6638 43.6852 27.6045 41.145 27.6045V12.656C41.3783 5.90364 36.0936 0.240613 29.3412 0.00733049C29.0596 -0.0024435 28.7779 -0.0024435 28.4963 0.00733049C20.5897 0.00733049 16.0776 6.50186 15.8476 12.6123C15.8476 12.6273 15.8557 12.6411 15.8557 12.656H15.8476V27.6045C13.3074 27.6045 11.2481 29.6638 11.2481 32.204V44.5468L7.13036 51.752H4.34894C2.44818 51.7481 0.904178 53.2856 0.900154 55.1864C0.897135 56.6452 1.81417 57.9474 3.18871 58.4363C1.52785 60.3136 1.70335 63.182 3.58081 64.8428C4.25924 65.4431 5.10196 65.8265 6.00017 65.9438L28.3412 68.9899C28.4447 69.0034 28.5493 69.0034 28.6528 68.9899L50.9939 65.9438C53.4793 65.6191 55.231 63.3411 54.9063 60.8556C54.7891 59.9574 54.4056 59.1147 53.8053 58.4363C55.5961 57.7995 56.5317 55.8315 55.8948 54.0405ZM28.4964 2.30724C33.9584 2.05369 38.5918 6.27591 38.8454 11.738C38.8596 12.0439 38.8596 12.3503 38.8454 12.6562H36.5456C33.3719 12.6524 30.7999 10.0804 30.7962 6.90676C30.7961 6.27174 30.2812 5.75702 29.646 5.75717C29.3412 5.75717 29.049 5.87834 28.8334 6.0938C25.9827 8.95542 22.276 10.8086 18.2763 11.3718C18.9086 6.20476 23.2908 2.31802 28.4964 2.30724ZM26.1967 28.7545V23.8365C26.9463 24.042 27.7193 24.1491 28.4964 24.155C29.2741 24.1484 30.0474 24.0388 30.7962 23.8296V28.7545C30.7962 29.3895 31.3111 29.9044 31.9461 29.9044H34.2459V31.3751L28.4964 33.2919L22.747 31.3751V29.9044H25.0468C25.6818 29.9044 26.1967 29.3895 26.1967 28.7545ZM19.5182 13.4829C22.9323 12.8514 26.1342 11.3758 28.8322 9.19043C29.8477 12.605 32.9833 14.9487 36.5456 14.9559H37.047C35.6096 18.8138 31.9645 21.8552 28.4964 21.8552C24.5029 21.8552 20.4691 17.9847 19.5182 13.4829ZM33.096 27.6046V22.9074C35.6346 21.4786 37.6494 19.2749 38.8454 16.6187V27.6046H35.3957H33.096ZM18.1475 16.6221C19.3363 19.2839 21.3528 21.4907 23.8969 22.9143V27.6046H18.1475V16.6221ZM20.4473 29.9044V32.2042C20.4477 32.6989 20.7644 33.1379 21.2338 33.2942V33.2954L28.1331 35.5952C28.3692 35.6745 28.6248 35.6745 28.861 35.5952L35.7602 33.2954C36.2295 33.1386 36.5459 32.699 36.5456 32.2042V29.9044H39.6721L34.4977 50.6023H22.4952L17.3207 29.9044H20.4473ZM22.1261 52.902H34.8668L39.487 58.2915L28.4964 59.791L17.5059 58.2961L22.1261 52.902ZM14.7991 57.9224L12.6775 57.6338L19.8815 49.6283L20.3415 51.4555L14.7991 57.9224ZM36.6606 51.4555L37.1206 49.6283L44.3246 57.6338L42.1984 57.9224L36.6606 51.4555ZM3.19905 55.2018C3.19905 54.5668 3.71391 54.0519 4.34894 54.0519H7.79858C8.21024 54.0528 8.59085 53.8334 8.79668 53.477L13.3962 45.4278C13.4964 45.2527 13.5487 45.0545 13.548 44.8528V32.2042C13.548 31.2648 14.1193 30.4198 14.9911 30.07L17.1 38.5044L19.2077 46.9387L10.7365 56.3517H4.34894C3.71377 56.3517 3.19905 55.8368 3.19905 55.2018ZM28.4964 66.6902L6.31063 63.6638C5.06905 63.4998 4.19557 62.3604 4.35957 61.1188C4.50906 59.9872 5.47625 59.1431 6.61765 59.1482C6.71999 59.1482 6.82219 59.1555 6.92352 59.17L15.1003 60.2854L28.094 62.0574L34.2493 65.9049L28.4964 66.6902ZM50.6823 63.6638L37.8105 65.4196L31.7978 61.6618L41.8845 60.282L50.0602 59.1666C51.301 58.9925 52.4479 59.8574 52.622 61.0982C52.6368 61.2037 52.6441 61.3102 52.644 61.4169C52.6399 62.5495 51.804 63.5069 50.6823 63.6638ZM52.644 56.3517H46.2564L37.784 46.9376L39.8918 38.5032L42.0007 30.0688C42.8733 30.4185 43.4452 31.2641 43.4449 32.2042V44.8528C43.4442 45.0545 43.4965 45.2527 43.5967 45.4278L48.1962 53.477C48.402 53.8334 48.7827 54.0528 49.1943 54.0519H52.644C53.279 54.0519 53.7938 54.5668 53.7938 55.2018C53.7938 55.8368 53.279 56.3517 52.644 56.3517Z" fill="#202020"/>
</svg>
