<svg width="50" height="59" viewBox="0 0 50 59" fill="none" xmlns="http://www.w3.org/2000/svg">
<path d="M28.3962 34.54L18.6587 32.1056C18.2718 32.0089 17.987 31.6912 17.933 31.296L17.1057 25.2278C17.042 24.7612 16.6105 24.4347 16.1458 24.4982C15.6793 24.5619 15.3525 24.9916 15.4162 25.4581L16.2436 31.5265C16.3923 32.6163 17.178 33.493 18.2451 33.7598L24.6744 35.3671L18.2407 36.9754C17.1761 37.2415 16.3921 38.1178 16.2436 39.2079L14.5215 51.8373L12.7993 39.2084C12.6506 38.1183 11.8666 37.242 10.802 36.9758L4.36806 35.3675L10.8023 33.7589C11.8666 33.4926 12.6505 32.6163 12.7991 31.5265L14.5212 18.8967L14.919 21.8138C14.9827 22.2803 15.4133 22.6071 15.8789 22.5432C16.3454 22.4795 16.6721 22.0499 16.6085 21.5832L15.3659 12.4718C15.3083 12.0494 14.9475 11.7344 14.5211 11.7344C14.0948 11.7344 13.7339 12.0494 13.6763 12.4718L11.1094 31.296C11.0555 31.6913 10.7724 32.0088 10.3883 32.1047L0.645769 34.5406C0.266219 34.6355 0 34.9765 0 35.3676C0 35.7588 0.266219 36.0998 0.645769 36.1947L10.3882 38.63C10.7724 38.7261 11.0556 39.0436 11.1095 39.4388L13.6763 58.2625C13.7339 58.6849 14.0947 58.9998 14.5211 58.9998C14.9475 58.9998 15.3083 58.6848 15.3659 58.2625L17.9329 39.4385C17.9867 39.0431 18.2698 38.7257 18.654 38.6298L28.396 36.1943C28.7756 36.0994 29.0418 35.7583 29.0418 35.3672C29.0418 34.976 28.7758 34.6349 28.3962 34.54Z" fill="#202020"/>
<path d="M42.0563 15.4028L35.5646 13.8448C35.4245 13.8111 35.3183 13.7047 35.3007 13.5801L33.5895 1.53242C33.5297 1.11217 33.1698 0.799805 32.7453 0.799805C32.3209 0.799805 31.961 1.11217 31.9012 1.53242L30.8658 8.82219C30.7996 9.28836 31.1239 9.71986 31.59 9.78613C32.0547 9.85217 32.4876 9.52809 32.5539 9.06192L32.7453 7.71457L33.6124 13.8198C33.7295 14.6435 34.3396 15.3041 35.1668 15.5026L38.2042 16.2315L35.1638 16.9612C34.3383 17.1593 33.7295 17.8196 33.6126 18.6435L32.7454 24.7487L31.8782 18.6437C31.7612 17.8198 31.1522 17.1593 30.3269 16.9613L27.2864 16.2317L30.3273 15.5018C31.1523 15.3036 31.7612 14.6434 31.8784 13.8195L32.0365 12.7065C32.1026 12.2403 31.7783 11.8087 31.3123 11.7425C30.8474 11.6766 30.4146 12.0006 30.3483 12.4667L30.1902 13.5798C30.1723 13.7066 30.0698 13.8102 29.9293 13.8439L23.4343 15.4029C23.051 15.4949 22.7806 15.8377 22.7806 16.2319C22.7806 16.6261 23.051 16.9688 23.4343 17.0609L29.9292 18.6194C30.0697 18.6532 30.1723 18.7569 30.1902 18.8836L31.9015 30.9307C31.9612 31.3509 32.3211 31.6633 32.7457 31.6633C33.1702 31.6633 33.53 31.3509 33.5898 30.9307L35.3011 18.8833C35.3186 18.7568 35.4211 18.6532 35.5616 18.6194L42.0563 17.0608C42.4396 16.9687 42.7099 16.626 42.7099 16.2318C42.7099 15.8376 42.4396 15.4948 42.0563 15.4028Z" fill="#202020"/>
<path d="M49.3491 45.4732L44.1557 44.2072C44.1102 44.1961 44.0761 44.1636 44.0709 44.1263L42.7019 34.3377C42.6429 33.9166 42.2828 33.6032 41.8576 33.6032C41.4325 33.6032 41.0722 33.9166 41.0132 34.3377L39.6442 44.1262C39.6388 44.1643 39.6065 44.1957 39.5618 44.2068L34.3656 45.4734C33.9838 45.5665 33.7149 45.9087 33.7149 46.3017C33.7149 46.6948 33.9837 47.037 34.3656 47.1301L39.5618 48.3965C39.6065 48.4074 39.6388 48.439 39.6442 48.477C39.7093 48.9434 40.1422 49.2676 40.6066 49.2032C41.073 49.138 41.3981 48.707 41.3329 48.2408C41.2301 47.5062 40.6932 46.917 39.9654 46.7398L38.1677 46.3017L39.9656 45.8635C40.6934 45.6862 41.2301 45.0972 41.3329 44.3627L41.8576 40.6111L42.3822 44.3627C42.4849 45.097 43.0227 45.6864 43.7519 45.8641L45.5471 46.3017L43.7495 46.7398C43.0217 46.9173 42.4851 47.5063 42.3823 48.2408L41.8577 51.9924L41.8098 51.6506C41.7446 51.1843 41.314 50.8598 40.8474 50.9243C40.381 50.9896 40.0559 51.4204 40.1211 51.8868L41.0133 58.2654C41.0723 58.6864 41.4326 58.9998 41.8577 58.9998C42.2829 58.9998 42.6431 58.6864 42.7021 58.2654L44.071 48.477C44.0763 48.4389 44.1087 48.4073 44.1534 48.3964L49.3493 47.13C49.7312 47.0369 50 46.6947 50 46.3016C50 45.9085 49.7309 45.5663 49.3491 45.4732Z" fill="#202020"/>
</svg>
