<svg width="56" height="49" viewBox="0 0 56 49" fill="none" xmlns="http://www.w3.org/2000/svg">
<path d="M11.4508 25.3189C11.1762 25.3189 10.9042 25.198 10.7211 24.966C6.4904 19.6067 2.93443 17.6812 0.695614 17.0099C0.203917 16.8626 -0.0740727 16.3449 0.0723721 15.8541C0.218817 15.3632 0.73478 15.0818 1.22818 15.2317C4.85695 16.3198 8.54063 19.2078 12.1783 23.8157C12.4959 24.218 12.427 24.8021 12.0242 25.1188C11.8556 25.2534 11.6526 25.3189 11.4508 25.3189Z" fill="#202020"/>
<path d="M5.57299 48.3797H3.34865C2.8429 48.3797 2.43039 47.9757 2.42017 47.47C2.41676 47.2622 1.9902 26.6165 0.777774 21.6284C0.389951 20.0342 0.12601 18.0942 0.0344818 16.1649C0.0102162 15.6523 0.406554 15.2177 0.918685 15.1934C0.932734 15.193 0.947208 15.1921 0.962533 15.1921C1.45508 15.1921 1.86547 15.5795 1.88888 16.0767C1.97317 17.8652 2.22605 19.7285 2.58151 21.1891C3.70667 25.8149 4.16005 42.3921 4.25669 46.5236H4.60577L4.09024 33.9622C4.08896 33.0384 4.19411 25.2031 7.83948 22.7723C8.54361 22.3019 10.034 21.7992 12.0834 23.7119C12.458 24.0614 12.478 24.6489 12.1285 25.0235C11.7794 25.399 11.1928 25.4203 10.8161 25.069C10.2311 24.5233 9.42142 23.9516 8.86885 24.3168C6.46997 25.9162 5.94549 31.7944 5.94549 33.9238L6.50062 47.4134C6.51083 47.6658 6.41803 47.9119 6.24264 48.0941C6.06809 48.2767 5.82629 48.3797 5.57299 48.3797Z" fill="#202020"/>
<path d="M30.5384 47.9447C29.306 47.9447 28.2319 47.8804 27.3865 47.7335C20.6751 46.5658 16.7249 34.8434 16.3878 33.8068C16.1196 33.2257 13.4027 27.4398 10.8161 25.0244C10.782 24.992 10.7501 24.9579 10.7211 24.9213C7.35502 20.6578 3.98211 17.9959 0.695615 17.0099C0.318434 16.8967 0.0532158 16.5578 0.0340588 16.1644C-0.170709 11.8401 0.554704 8.1236 2.02511 5.96737C4.19582 2.78177 8.24987 0.246235 8.42101 0.139382C8.64408 0.00145082 8.91355 -0.0360118 9.16472 0.0355078C9.41589 0.106602 9.62534 0.280718 9.74199 0.514434C16.5725 14.23 28.3963 36.5173 31.0429 37.9353C32.0114 38.4543 32.8488 38.585 33.5299 38.3261C34.5597 37.9362 35.0144 36.7736 35.019 36.7625C35.031 36.7306 35.0437 36.6999 35.0591 36.6697L36.4494 33.8885C36.5627 33.662 36.7628 33.4922 37.0041 33.4173C37.2438 33.3423 37.5065 33.3679 37.7287 33.4905C37.8207 33.5416 47.0101 38.5884 53.8853 40.0711C53.8994 40.0741 53.9138 40.0779 53.9287 40.0818C54.0509 40.1141 55.1373 40.4313 55.6273 41.5215C56.0028 42.3534 55.9104 43.3398 55.354 44.4526C55.2238 44.7118 54.9802 44.8957 54.6959 44.9498C53.9594 45.089 38.7564 47.9447 30.5384 47.9447ZM12.1366 23.7174C15.0987 26.5263 17.9782 32.8166 18.0991 33.0844C18.1145 33.1184 18.1272 33.152 18.1392 33.187C18.1762 33.304 21.9374 44.9013 27.7045 45.9042C33.3268 46.8817 50.7436 43.7863 53.87 43.2137C54.0096 42.8242 54.0335 42.5019 53.9351 42.284C53.8168 42.0192 53.512 41.897 53.4583 41.8779C47.4954 40.5837 40.1608 36.8813 37.6823 35.5731L36.7372 37.4645C36.6006 37.7987 35.859 39.4287 34.1885 40.0622C32.979 40.5181 31.6266 40.3538 30.1672 39.5714C29.4337 39.1788 27.4865 38.135 17.4806 19.4973C13.5181 12.1168 9.83011 4.8286 8.55383 2.28625C7.2984 3.17002 4.94507 4.97972 3.55895 7.01377C2.39761 8.71705 1.77565 11.8358 1.86547 15.4403C5.30054 16.663 8.75263 19.4437 12.1366 23.7174Z" fill="#202020"/>
</svg>
