<svg width="57" height="60" viewBox="0 0 57 60" fill="none" xmlns="http://www.w3.org/2000/svg">
<path d="M15.9874 27.8802H15.334V22.582C15.334 21.9541 14.8251 21.445 14.197 21.445H14.0993V10.6054C14.0993 10.1748 13.8562 9.78112 13.4708 9.58843L4.67178 5.18771C4.31946 5.01155 3.90089 5.0302 3.56554 5.23744C3.2302 5.44453 3.02614 5.8105 3.02614 6.20466V21.445H2.92851C2.30042 21.445 1.79149 21.9541 1.79149 22.582V27.8802H1.13702C0.50893 27.8802 0 28.3893 0 29.0172V58.8631C0 59.491 0.50893 60.0001 1.13702 60.0001H15.9871C16.6152 60.0001 17.1241 59.491 17.1241 58.8631V29.0172C17.1244 28.3893 16.6155 27.8802 15.9874 27.8802ZM5.30048 8.04466L11.8255 11.3081V21.445H5.30048V8.04466ZM4.06598 23.719H13.0601V27.8802H4.06598V23.719ZM14.8504 57.726H2.27434V30.1542H14.8504V57.726Z" fill="#202020"/>
<path d="M55.8627 46.4838H18.9317C18.3036 46.4838 17.7947 46.9929 17.7947 47.6208C17.7947 48.2488 18.3036 48.7578 18.9317 48.7578H54.0536L53.7936 49.2983C52.3654 52.2661 49.3144 54.1838 46.0208 54.1838H18.9317C18.3036 54.1838 17.7947 54.6929 17.7947 55.3209C17.7947 55.9488 18.3036 56.4579 18.9317 56.4579H46.0208C50.1828 56.4579 54.0382 54.0347 55.8427 50.2843L56.8872 48.1138C57.0569 47.7615 57.0335 47.3467 56.8254 47.0158C56.6172 46.6848 56.2537 46.4838 55.8627 46.4838Z" fill="#202020"/>
<path d="M16.3064 8.71541C20.546 4.79041 26.0649 2.62871 31.8469 2.62871C44.4623 2.62871 54.7258 12.8922 54.7258 25.5077C54.7258 32.309 51.7288 38.7132 46.5035 43.0779C46.0214 43.4806 45.9571 44.1975 46.3598 44.6795C46.5846 44.9487 46.9075 45.0876 47.233 45.0876C47.49 45.0876 47.7486 45.0009 47.9613 44.8232C53.7057 40.0251 57 32.9849 57 25.5075C56.9999 11.6383 45.7162 0.354675 31.8469 0.354675C25.4903 0.354675 19.4227 2.73135 14.7614 7.04687C14.3007 7.47348 14.2729 8.19283 14.6996 8.6537C15.126 9.11427 15.8454 9.14202 16.3064 8.71541Z" fill="#202020"/>
<path d="M31.8463 7.35769C41.8545 7.35769 49.9967 15.5 49.9967 25.5082C49.9967 35.5163 41.8545 43.6586 31.8463 43.6586C27.3468 43.6586 23.031 42.0004 19.6933 38.9897C19.2273 38.5692 18.5083 38.606 18.0874 39.0723C17.6669 39.5385 17.7039 40.2576 18.1702 40.6781C21.9263 44.0666 26.7832 45.9327 31.8463 45.9327C43.1084 45.9327 52.2708 36.7703 52.2708 25.5082C52.2708 14.2461 43.1084 5.08365 31.8463 5.08365C25.3781 5.08365 19.2249 8.19757 15.3865 13.4135C15.0141 13.9192 15.1225 14.631 15.6283 15.0032C16.134 15.3752 16.8455 15.2671 17.218 14.7614C20.6296 10.1255 26.0982 7.35769 31.8463 7.35769Z" fill="#202020"/>
<path d="M44.3548 16.5509L23.6053 37.3004C23.1612 37.7445 23.1612 38.4644 23.6053 38.9083C23.8274 39.1303 24.1185 39.2414 24.4094 39.2414C24.7003 39.2414 24.9914 39.1304 25.2135 38.9083L45.9629 18.1588C46.4069 17.7147 46.4069 16.9948 45.9629 16.5509C45.5187 16.1068 44.7989 16.1068 44.3548 16.5509Z" fill="#202020"/>
<path d="M29.9238 37.441C29.4797 37.885 29.4797 38.605 29.9238 39.0489C30.1459 39.2708 30.4369 39.3819 30.7279 39.3819C31.0188 39.3819 31.3099 39.271 31.532 39.0489L47.1106 23.4702C47.5547 23.0262 47.5547 22.3062 47.1106 21.8623C46.6664 21.4183 45.9466 21.4183 45.5026 21.8623L29.9238 37.441Z" fill="#202020"/>
</svg>
