<svg width="63" height="63" viewBox="0 0 63 63" fill="none" xmlns="http://www.w3.org/2000/svg">
<path d="M35.5512 50.5478C36.3208 49.6209 36.7443 48.455 36.7494 47.2502C36.7494 44.3505 34.3987 42.0003 31.4995 42.0003C28.5997 42.0003 26.2496 44.3505 26.2496 47.2502C26.2547 48.455 26.6782 49.6209 27.4477 50.5478C26.1178 50.9431 25.2047 52.1628 25.1996 53.5501V61.95C25.1996 62.5298 25.6697 63 26.2496 63C26.8294 63 27.2996 62.5298 27.2996 61.95V53.5501C27.2996 52.9703 27.7697 52.5001 28.3495 52.5001H34.6494C35.2293 52.5001 35.6994 52.9703 35.6994 53.5501V61.95C35.6994 62.5298 36.1695 63 36.7494 63C37.3292 63 37.7994 62.5298 37.7994 61.95V53.5501C37.7943 52.1628 36.8806 50.9431 35.5512 50.5478ZM31.4995 44.1003C33.239 44.1003 34.6494 45.5102 34.6494 47.2502C34.6494 48.9898 33.239 50.4002 31.4995 50.4002C29.7599 50.4002 28.3495 48.9898 28.3495 47.2502C28.3495 45.5102 29.7599 44.1003 31.4995 44.1003Z" fill="#202020"/>
<path d="M58.7832 37.0703C61.3476 35.8614 62.9882 33.2852 62.999 30.4505V28.3505C62.9954 25.4523 60.6468 23.1037 57.7491 23.1006H41.9993C40.8396 23.1006 39.8994 24.0404 39.8994 25.2006V30.4505C39.9101 33.2852 41.5507 35.8614 44.1152 37.0703C44.1936 38.9339 44.9806 40.6971 46.3146 42.0003H45.1493C42.251 42.0034 39.9029 44.352 39.8994 47.2502V61.95C39.8994 62.5299 40.3695 63 40.9493 63C41.5292 63 41.9993 62.5299 41.9993 61.95V53.5501H44.0993V61.95C44.0993 62.5299 44.5694 63 45.1493 63C45.7291 63 46.1993 62.5299 46.1993 61.95V52.5002C46.1993 51.9203 45.7291 51.4502 45.1493 51.4502H41.9993V47.2502C41.9993 45.5102 43.4097 44.1003 45.1493 44.1003H47.2492C47.2492 46.4197 49.1293 48.3002 51.4492 48.3002C53.7686 48.3002 55.6491 46.4197 55.6491 44.1003H57.7491C59.4886 44.1003 60.899 45.5102 60.899 47.2502V51.4502H57.7491C57.1692 51.4502 56.6991 51.9203 56.6991 52.5002V61.95C56.6991 62.5299 57.1692 63 57.7491 63C58.3289 63 58.799 62.5299 58.799 61.95V53.5501H60.899V61.95C60.899 62.5299 61.3691 63 61.949 63C62.5288 63 62.999 62.5299 62.999 61.95V47.2502C62.9954 44.352 60.6468 42.0034 57.7491 42.0003H56.5822C57.9172 40.6971 58.7042 38.9339 58.7832 37.0703ZM46.1993 36.7504V31.5005H51.4492C52.029 31.5005 52.4991 31.0304 52.4991 30.4505C52.4991 29.8707 52.029 29.4005 51.4492 29.4005H45.1493C44.5694 29.4005 44.0993 29.8707 44.0993 30.4505V34.6438C42.7791 33.6538 42.0014 32.1003 41.9993 30.4505V25.2006H57.7491C59.4886 25.2006 60.899 26.6105 60.899 28.3505V30.4505C60.897 32.1003 60.1192 33.6538 58.799 34.6438V30.4505C58.799 29.8707 58.3289 29.4005 57.7491 29.4005H55.6491C55.0692 29.4005 54.5991 29.8707 54.5991 30.4505C54.5991 31.0304 55.0692 31.5005 55.6491 31.5005H56.6991V36.7504C56.6991 39.6497 54.3484 42.0003 51.4492 42.0003C48.5494 42.0003 46.1993 39.6497 46.1993 36.7504ZM51.4492 46.2003C50.2895 46.2003 49.3492 45.26 49.3492 44.1003H53.5491C53.5491 45.26 52.6089 46.2003 51.4492 46.2003Z" fill="#202020"/>
<path d="M17.8497 42.0003H16.6828C18.1009 40.6212 18.9002 38.7279 18.8997 36.7504V30.4505C18.8997 29.8707 18.4296 29.4005 17.8497 29.4005H15.7497C15.1699 29.4005 14.6998 29.8707 14.6998 30.4505C14.6998 31.0304 15.1699 31.5005 15.7497 31.5005H16.7997V36.7504C16.7997 39.6497 14.4491 42.0003 11.5498 42.0003C8.65005 42.0003 6.2999 39.6497 6.2999 36.7504V31.5005H11.5498C12.1297 31.5005 12.5998 31.0304 12.5998 30.4505C12.5998 29.8707 12.1297 29.4005 11.5498 29.4005H5.24991C4.67007 29.4005 4.19993 29.8707 4.19993 30.4505V36.7504C4.19942 38.7273 4.99819 40.6212 6.41525 42.0003H5.24991C2.3517 42.0034 0.00358881 44.352 0 47.2502V61.95C0 62.5299 0.470134 63 1.04998 63C1.62983 63 2.09997 62.5299 2.09997 61.95V53.5501H4.19993V61.95C4.19993 62.5299 4.67007 63 5.24991 63C5.82976 63 6.2999 62.5299 6.2999 61.95V52.5002C6.2999 51.9203 5.82976 51.4502 5.24991 51.4502H2.09997V47.2502C2.09997 45.5102 3.51037 44.1003 5.24991 44.1003H7.34988V46.2003C7.34937 46.4787 7.46011 46.7463 7.65749 46.9437L10.4998 49.786V54.6001C10.4998 55.18 10.97 55.6501 11.5498 55.6501C12.1297 55.6501 12.5998 55.18 12.5998 54.6001V49.786L15.4421 46.9437C15.639 46.7463 15.7497 46.4787 15.7497 46.2003V44.1003H17.8497C19.5893 44.1003 20.9997 45.5102 20.9997 47.2502V51.4502H17.8497C17.2699 51.4502 16.7997 51.9203 16.7997 52.5002V61.95C16.7997 62.5299 17.2699 63 17.8497 63C18.4296 63 18.8997 62.5299 18.8997 61.95V53.5501H20.9997V61.95C20.9997 62.5299 21.4698 63 22.0496 63C22.6295 63 23.0996 62.5299 23.0996 61.95V47.2502C23.096 44.352 20.7474 42.0034 17.8497 42.0003ZM13.6498 45.7655L11.5498 47.8655L9.44985 45.7655V44.1003H13.6498V45.7655Z" fill="#202020"/>
<path d="M11.5498 21.0007C5.17404 21.0079 0.00717762 26.1747 0 32.5505V39.9004C0 40.4802 0.470134 40.9504 1.04998 40.9504C1.62983 40.9504 2.09997 40.4802 2.09997 39.9004V32.5505C2.09997 27.3314 6.33066 23.1007 11.5498 23.1007C16.769 23.1007 20.9997 27.3314 20.9997 32.5505V39.9004C20.9997 40.4802 21.4698 40.9504 22.0496 40.9504C22.6295 40.9504 23.0996 40.4802 23.0996 39.9004V32.5505C23.0919 26.1747 17.9256 21.0079 11.5498 21.0007Z" fill="#202020"/>
<path d="M5.33193 18.5552L6.29989 18.1055V18.9007C6.29989 19.4806 6.77002 19.9507 7.34987 19.9507C7.92972 19.9507 8.39985 19.4806 8.39985 18.9007V17.1304L30.1573 7.02842C31.0083 6.63263 31.9906 6.63263 32.8412 7.02842L54.5991 17.1304V18.9007C54.5991 19.4806 55.0692 19.9507 55.6491 19.9507C56.2289 19.9507 56.6991 19.4806 56.6991 18.9007V18.1055L57.667 18.5552C59.2451 19.2878 61.1184 18.6023 61.8511 17.0243C62.5837 15.4462 61.8987 13.5729 60.3202 12.8402L33.7256 0.492179C32.3141 -0.16406 30.6848 -0.16406 29.2734 0.492179L2.67826 12.8402C1.10021 13.5729 0.414752 15.4462 1.14738 17.0243C1.88001 18.6023 3.75337 19.2878 5.33193 18.5552ZM3.02176 15.337C3.11712 15.075 3.31297 14.8623 3.56573 14.7449L30.1573 2.39784C31.0083 2.00204 31.9906 2.00204 32.8412 2.39784L59.4363 14.7449C59.9623 14.9889 60.191 15.6139 59.9464 16.1399C59.7024 16.6664 59.0774 16.8951 58.5509 16.6505L33.7256 5.12277C32.3141 4.46653 30.6848 4.46653 29.2734 5.12277L4.44755 16.6505C4.19479 16.7679 3.90564 16.7802 3.64417 16.6844C3.38218 16.589 3.16942 16.3932 3.05201 16.1399C2.93358 15.8877 2.92179 15.5985 3.01869 15.337H3.02176Z" fill="#202020"/>
<path d="M36.7494 13.6508H26.2496C25.6697 13.6508 25.1996 14.1209 25.1996 14.7008V23.1006C25.1996 23.6805 25.6697 24.1506 26.2496 24.1506C26.8294 24.1506 27.2996 23.6805 27.2996 23.1006V19.9507H30.4495V23.1006C30.4495 23.6805 30.9196 24.1506 31.4995 24.1506C32.0793 24.1506 32.5495 23.6805 32.5495 23.1006V19.9507H35.6994V23.1006C35.6994 23.6805 36.1695 24.1506 36.7494 24.1506C37.3292 24.1506 37.7994 23.6805 37.7994 23.1006V14.7008C37.7994 14.1209 37.3292 13.6508 36.7494 13.6508ZM27.2996 17.8507V15.7508H30.4495V17.8507H27.2996ZM32.5495 17.8507V15.7508H35.6994V17.8507H32.5495Z" fill="#202020"/>
</svg>
