<svg width="72" height="72" viewBox="0 0 72 72" fill="none" xmlns="http://www.w3.org/2000/svg">
<path d="M71.6562 35.1777L65.9663 29.4877C64.5319 28.0577 62.8585 26.8894 61.0218 26.0354C62.1299 23.6188 62.7047 20.9917 62.7067 18.3331V10.4519C62.7067 9.81059 62.1868 9.29066 61.5455 9.29066H53.6643C51.0054 9.29225 48.3779 9.86648 45.9608 10.9744C45.1068 9.13767 43.9385 7.46435 42.5085 6.02995L36.8185 0.339983C36.3651 -0.113328 35.63 -0.113328 35.1765 0.339983L29.4866 6.02995C28.0565 7.46435 26.8882 9.13767 26.0343 10.9744C23.6178 9.86691 20.9912 9.29254 18.3331 9.29066H10.4519C9.81059 9.29066 9.29066 9.81059 9.29066 10.4519V18.3331C9.29225 20.992 9.86648 23.6194 10.9744 26.0366C9.13767 26.8905 7.46435 28.0588 6.02995 29.4889L0.339983 35.1789C-0.113328 35.6323 -0.113328 36.3674 0.339983 36.8208L6.02995 42.5108C7.46435 43.9408 9.13767 45.1092 10.9744 45.9631C9.86691 48.3796 9.29254 51.0061 9.29066 53.6643V61.5455C9.29066 62.1868 9.81059 62.7067 10.4519 62.7067H18.3331C20.992 62.7051 23.6195 62.1309 26.0366 61.0229C26.8905 62.8597 28.0589 64.533 29.4889 65.9674L35.1789 71.6574C35.6323 72.1107 36.3674 72.1107 36.8208 71.6574L42.5108 65.9674C43.9408 64.533 45.1092 62.8597 45.9631 61.0229C48.3796 62.1306 51.0061 62.7048 53.6643 62.7067H61.5455C62.1868 62.7067 62.7067 62.1868 62.7067 61.5455V53.6643C62.7051 51.0054 62.1309 48.378 61.0229 45.9608C62.8597 45.1068 64.533 43.9385 65.9674 42.5085L71.6574 36.8185C72.1097 36.3649 72.1091 35.6307 71.6562 35.1777ZM46.8154 13.1389C48.9593 12.1356 51.2973 11.6148 53.6643 11.6131H60.3843V18.3331C60.3833 20.7008 59.8627 23.0395 58.8596 25.1843C57.1732 24.6559 55.4164 24.3869 53.6492 24.3865H53.1847C50.7437 24.3858 48.33 24.9002 46.1013 25.8961C47.0972 23.6674 47.6116 21.2537 47.6109 18.8126V18.3482C47.6112 16.5815 47.3429 14.825 46.8154 13.1389ZM53.1847 26.7089H53.6492C55.0209 26.7117 56.3858 26.9008 57.7065 27.271C57.0976 28.1906 56.3972 29.0466 55.6163 29.8256L55.3701 30.0718C52.3274 33.13 48.188 34.8443 43.8741 34.8328L38.8019 34.8375L42.5085 31.1309C45.3339 28.2901 49.1782 26.6978 53.1847 26.7089ZM45.2884 18.3482V18.8126C45.2993 22.8187 43.707 26.6628 40.8665 29.4877L37.1599 33.1955V28.1175C37.1484 23.8036 38.8627 19.6641 41.9209 16.6214L42.1671 16.3752C42.9461 15.5943 43.8021 14.8941 44.7218 14.2851C45.0941 15.6075 45.2847 16.9744 45.2884 18.3482ZM31.1309 7.67192L35.9987 2.80409L40.8665 7.67192C42.1369 8.94664 43.1685 10.4388 43.9124 12.0776C42.6854 12.8293 41.5496 13.7204 40.5274 14.7333L40.2813 14.9795C38.3843 16.8778 36.923 19.1661 35.9987 21.6855C35.0745 19.1665 33.6137 16.8788 31.7173 14.9806L31.4711 14.7344C30.4486 13.7211 29.3124 12.8296 28.085 12.0776C28.8289 10.439 29.8605 8.94679 31.1309 7.67192ZM26.7089 18.3482C26.7117 16.9765 26.9008 15.6116 27.271 14.2909C28.1907 14.8998 29.0466 15.6001 29.8256 16.3811L30.0718 16.6272C33.13 19.6699 34.8443 23.8094 34.8328 28.1233V33.2013L31.1262 29.4947C28.2857 26.6673 26.695 22.8204 26.7089 18.8126V18.3482ZM29.4877 31.1309L33.1955 34.8375H28.1175C23.8036 34.8489 19.6641 33.1347 16.6214 30.0765L16.3753 29.8303C15.5943 29.0513 14.8941 28.1953 14.2851 27.2756C15.6075 26.9034 16.9744 26.7129 18.3482 26.7089H18.8126C22.8189 26.698 26.6628 28.2904 29.4877 31.1309ZM11.6131 11.6131H18.3331C20.7008 11.6141 23.0395 12.1346 25.1843 13.1378C24.6559 14.8242 24.3869 16.5809 24.3865 18.3482V18.8126C24.3858 21.2537 24.9002 23.6674 25.8961 25.8961C23.6674 24.9002 21.2537 24.3858 18.8126 24.3865H18.3482C16.5815 24.3864 14.825 24.6544 13.1389 25.1819C12.1356 23.038 11.6148 20.7001 11.6131 18.3331V11.6131ZM7.67192 40.8665L2.80409 35.9987L7.67192 31.1309C8.94665 29.8605 10.4388 28.8289 12.0776 28.085C12.8293 29.3119 13.7204 30.4478 14.7333 31.4699L14.9795 31.7161C16.8778 33.6131 19.1661 35.0743 21.6855 35.9987C19.1665 36.9229 16.8788 38.3837 14.9806 40.2801L14.7344 40.5263C13.7211 41.5487 12.8296 42.685 12.0776 43.9124C10.439 43.1685 8.94679 42.1369 7.67192 40.8665ZM25.1819 58.8584C23.038 59.8617 20.7001 60.3825 18.3331 60.3843H11.6131V53.6643C11.6141 51.2966 12.1346 48.9579 13.1378 46.8131C14.8242 47.3415 16.5809 47.6104 18.3482 47.6109H18.8126C21.2537 47.6116 23.6674 47.0972 25.8961 46.1013C24.9002 48.3299 24.3858 50.7437 24.3865 53.1847V53.6492C24.3864 55.4158 24.6546 57.1723 25.1819 58.8584ZM18.8126 45.2884H18.3482C16.9765 45.2855 15.6116 45.0965 14.2909 44.7264C14.8998 43.8067 15.6001 42.9507 16.3811 42.1717L16.6272 41.9255C19.6699 38.8673 23.8094 37.1531 28.1233 37.1645L33.1955 37.1599L29.4889 40.8665C26.6636 43.7073 22.8191 45.2996 18.8126 45.2884ZM26.7089 53.6492V53.1847C26.698 49.1787 28.2904 45.3346 31.1309 42.5096L34.8375 38.8019V43.8799C34.8489 48.1938 33.1347 52.3333 30.0765 55.3759L29.8303 55.6221C29.0513 56.403 28.1953 57.1034 27.2756 57.7123C26.9034 56.39 26.7129 55.0231 26.7089 53.6492ZM40.8665 64.3254L35.9987 69.1933L31.1309 64.3254C29.8611 63.0523 28.8295 61.5623 28.085 59.9256C29.3122 59.1721 30.4481 58.279 31.4699 57.2641L31.7161 57.0179C33.613 55.1196 35.0744 52.8313 35.9987 50.3119C36.9229 52.8308 38.3837 55.1186 40.2801 57.0167L40.5263 57.2629C41.5484 58.2778 42.6847 59.1709 43.9124 59.9244C43.168 61.5616 42.1364 63.052 40.8665 64.3254ZM45.2884 53.6492C45.2855 55.0209 45.0965 56.3858 44.7264 57.7065C43.8067 57.0976 42.9508 56.3972 42.1717 55.6163L41.9255 55.3701C38.8673 52.3274 37.1531 48.188 37.1645 43.8741V38.8019L40.8712 42.5085C43.7102 45.3344 45.3009 49.1788 45.2884 53.1847V53.6492ZM42.5096 40.8665L38.8019 37.1599H43.8799C48.1938 37.1484 52.3333 38.8627 55.3759 41.9209L55.6221 42.1671C56.403 42.9461 57.1033 43.8021 57.7123 44.7218C56.3898 45.0939 55.0231 45.2847 53.6492 45.2884H53.1847C49.1787 45.2993 45.3347 43.707 42.5096 40.8665ZM60.3843 60.3843H53.6643C51.2966 60.3833 48.9579 59.8627 46.8131 58.8596C47.3415 57.1732 47.6104 55.4164 47.6109 53.6492V53.1847C47.6116 50.7437 47.0972 48.3299 46.1013 46.1013C48.33 47.0972 50.7437 47.6116 53.1847 47.6109H53.6492C55.4159 47.611 57.1723 47.3429 58.8584 46.8154C59.8617 48.9593 60.3825 51.2973 60.3843 53.6643V60.3843ZM64.3254 40.8665C63.0523 42.1363 61.5623 43.1679 59.9256 43.9124C59.1721 42.6851 58.279 41.5492 57.2641 40.5274L57.0179 40.2813C55.1196 38.3844 52.8313 36.923 50.3119 35.9987C52.8308 35.0745 55.1186 33.6137 57.0167 31.7173L57.2629 31.4711C58.2778 30.4489 59.1709 29.3127 59.9244 28.085C61.5612 28.8295 63.0513 29.8611 64.3243 31.1309L69.1933 35.9987L64.3254 40.8665Z" fill="#202020"/>
</svg>
