<svg width="83" height="57" viewBox="0 0 83 57" fill="none" xmlns="http://www.w3.org/2000/svg">
<path d="M80.5158 29.9303C79.9518 28.7873 67.8841 8.89513 67.5783 8.39838C65.3256 4.74255 61.4208 2.56007 57.133 2.56007C56.5213 2.56007 55.9205 2.60645 55.3325 2.6934C55.332 2.69227 55.3304 2.68986 55.3299 2.68921C54.2908 1.00542 52.4924 0 50.5192 0C47.4038 0 44.869 2.53463 44.869 5.65023V15.5227H37.5738V5.65023C37.5738 2.53479 35.0391 0 31.9236 0C29.9539 0 28.1589 1.00171 27.1106 2.6934C26.5227 2.60645 25.9217 2.56007 25.3098 2.56007C21.0219 2.56007 17.1172 4.74271 14.8643 8.3987C14.8333 8.4491 14.7387 8.60271 12.468 12.4094C12.0777 13.0638 12.2919 13.9108 12.9461 14.3011C13.6005 14.6912 14.4475 14.4776 14.8378 13.823C16.7063 10.6908 17.1613 9.93145 17.214 9.84595C18.9604 7.01166 21.9869 5.31949 25.3099 5.31949C30.5508 5.31949 34.8144 9.58317 34.8144 14.8239V14.8247V28.4212C31.5086 23.03 25.561 19.4259 18.787 19.4259C15.7277 19.4259 12.8372 20.1614 10.2823 21.4639C10.9385 20.363 11.6317 19.2 12.3273 18.0336C12.7174 17.379 12.5033 16.532 11.8487 16.1419C11.1942 15.7517 10.3474 15.9659 9.95706 16.6204C7.02551 21.537 2.41145 28.9144 1.82856 30.1323C0.656966 32.581 0 35.3216 0 38.213C0 48.5722 8.42784 57 18.787 57C29.1461 57 37.5738 48.5722 37.5738 38.213V34.5471H44.869V38.213C44.869 48.5722 53.2968 57 63.6558 57C74.0149 57 82.4428 48.5722 82.4428 38.213C82.4429 35.2419 81.7494 32.4301 80.5158 29.9303ZM34.8144 7.08412C33.5397 5.52173 31.8886 4.27897 30.0003 3.49432C30.5227 3.02575 31.1999 2.75942 31.9237 2.75942C33.5177 2.75942 34.8144 4.05612 34.8144 5.65007V7.08412ZM18.787 54.2403C9.94933 54.2403 2.75942 47.0505 2.75942 38.2129C2.75942 29.3752 9.94933 22.1853 18.787 22.1853C27.6246 22.1853 34.8144 29.3752 34.8144 38.2129C34.8144 47.0505 27.6245 54.2403 18.787 54.2403ZM37.5736 26.4897V18.282H44.8688V26.4897H37.5736ZM44.869 31.7876H37.5738V29.2493H44.869V31.7876ZM47.6284 5.65023C47.6284 4.05628 48.9251 2.75958 50.5191 2.75958C51.2451 2.75958 51.9246 3.02768 52.4442 3.49384C50.5553 4.27849 48.9034 5.52157 47.6284 7.08428V5.65023ZM47.6284 14.8247V14.8239C47.6284 9.58301 51.8921 5.31949 57.1328 5.31949C60.456 5.31949 63.4824 7.01182 65.2288 9.84595C65.3944 10.1147 68.8428 15.8978 72.1605 21.4639C69.6054 20.1613 66.7149 19.4257 63.6557 19.4257C56.8817 19.4257 50.934 23.03 47.6283 28.421V14.8247H47.6284ZM63.656 54.2403C54.8183 54.2403 47.6286 47.0503 47.6286 38.2127C47.6286 29.3751 54.8185 22.1852 63.656 22.1852C72.4936 22.1852 79.6835 29.3751 79.6835 38.2127C79.6835 47.0503 72.4934 54.2403 63.656 54.2403Z" fill="#202020"/>
<path d="M75.752 33.8653C75.4941 33.1484 74.7041 32.776 73.9869 33.0337C73.2701 33.2915 72.8976 34.0818 73.1554 34.7989C73.548 35.8911 73.7472 37.0398 73.7472 38.213C73.7472 43.7774 69.2204 48.3043 63.6558 48.3043C58.0914 48.3043 53.5645 43.7774 53.5645 38.213C53.5645 32.6486 58.0914 28.1216 63.6558 28.1216C66.4484 28.1216 69.1416 29.2948 71.0452 31.3403C71.5644 31.8981 72.4373 31.9295 72.9954 31.4103C73.5531 30.8912 73.5845 30.0183 73.0654 29.4602C70.6419 26.8559 67.2121 25.3621 63.6558 25.3621C56.5698 25.3621 50.8051 31.1268 50.8051 38.2128C50.8051 45.2989 56.5698 51.0636 63.6558 51.0636C70.7419 51.0636 76.5066 45.2989 76.5066 38.2128C76.5068 36.7208 76.2528 35.2579 75.752 33.8653Z" fill="#202020"/>
<path d="M18.787 25.3622C11.7009 25.3622 5.93622 31.127 5.93622 38.213C5.93622 45.2991 11.7009 51.0638 18.787 51.0638C25.873 51.0638 31.6378 45.2991 31.6378 38.213C31.6378 31.127 25.8729 25.3622 18.787 25.3622ZM18.787 48.3042C13.2226 48.3042 8.69564 43.7774 8.69564 38.2129C8.69564 32.6484 13.2224 28.1215 18.787 28.1215C24.3516 28.1215 28.8783 32.6483 28.8783 38.2129C28.8783 43.7774 24.3512 48.3042 18.787 48.3042Z" fill="#202020"/>
</svg>
