<svg width="54" height="52" viewBox="0 0 54 52" fill="none" xmlns="http://www.w3.org/2000/svg">
<path d="M52.3369 24.0847C53.4233 23.0257 53.8069 21.4714 53.3381 20.0285C52.8693 18.5856 51.6454 17.5537 50.144 17.3357L37.0154 15.428C36.7577 15.3906 36.535 15.2287 36.4196 14.9951L30.5484 3.09877C29.8771 1.73822 28.5175 0.893066 27.0002 0.893066C25.483 0.893066 24.1234 1.73822 23.452 3.09877L17.5808 14.9952C17.4654 15.2287 17.2427 15.3906 16.9849 15.4281L3.85661 17.3357C2.35521 17.5537 1.13142 18.5856 0.662432 20.0285C0.193447 21.4714 0.57712 23.0257 1.66368 24.0847L11.1635 33.3448C11.3499 33.5266 11.4351 33.7886 11.3911 34.0453L9.14845 47.1206C8.89205 48.6161 9.49509 50.0988 10.7225 50.9906C11.9499 51.8827 13.547 51.9979 14.8897 51.2921L26.632 45.1187C26.8626 44.9974 27.1379 44.9974 27.3687 45.1187L39.1111 51.2921C39.6952 51.5991 40.3272 51.7508 40.9561 51.7507C41.7729 51.7507 42.5845 51.4948 43.2779 50.9905C44.5054 50.0986 45.1085 48.6157 44.852 47.1205L42.6094 34.0452C42.5654 33.7884 42.6505 33.5265 42.837 33.3447L52.3369 24.0847ZM39.4897 34.5805L41.7323 47.6561C41.8073 48.0937 41.5372 48.3431 41.4176 48.43C41.2978 48.5167 40.977 48.6968 40.5841 48.4901L28.8417 42.3168C28.2653 42.0138 27.6329 41.8622 27.0005 41.8622C26.368 41.8622 25.7355 42.0138 25.1592 42.3167L13.4169 48.4899C13.0238 48.6965 12.7031 48.5166 12.5835 48.4297C12.4638 48.3429 12.1936 48.0934 12.2687 47.6558L14.5113 34.5805C14.7315 33.2967 14.3062 31.9875 13.3733 31.0782L3.87349 21.8182C3.55556 21.5081 3.62751 21.1475 3.67333 21.0069C3.71892 20.8662 3.87279 20.5321 4.31212 20.4683L17.4403 18.5606C18.7292 18.3734 19.8431 17.5643 20.4197 16.396L26.2909 4.49963C26.4874 4.10155 26.8526 4.05854 27.0006 4.05854C27.1484 4.05854 27.5135 4.10143 27.7101 4.49963V4.49975L33.5814 16.3962C34.1578 17.5644 35.2716 18.3735 36.5605 18.5607L49.6889 20.4684C50.1283 20.5322 50.282 20.8663 50.3277 21.007C50.3734 21.1478 50.4455 21.5085 50.1274 21.8183L40.6276 31.0784C39.6948 31.9875 39.2695 33.2967 39.4897 34.5805Z" fill="#202020"/>
</svg>
