<svg width="58" height="60" viewBox="0 0 58 60" fill="none" xmlns="http://www.w3.org/2000/svg">
<path d="M28.5825 34.483C27.9993 34.2055 27.3014 34.4529 27.0237 35.0361L26.8297 35.4437C26.5521 36.0269 26.7998 36.7248 27.3828 37.0025C27.5452 37.0798 27.7163 37.1165 27.8849 37.1165C28.3219 37.1165 28.7412 36.8704 28.9417 36.4494L29.1356 36.0418C29.4134 35.4584 29.1656 34.7606 28.5825 34.483Z" fill="#202020"/>
<path d="M15.4746 27.7042C15.0179 27.2474 14.2773 27.2474 13.8206 27.7042C12.851 28.6739 11.2731 28.6739 10.3033 27.7042C9.84659 27.2474 9.10603 27.2474 8.64929 27.7042C8.19256 28.1609 8.19256 28.9015 8.64929 29.3582C9.59015 30.299 10.8261 30.7695 12.062 30.7695C13.2979 30.7695 14.5337 30.2991 15.4745 29.3582C15.9312 28.9016 15.9312 28.161 15.4746 27.7042Z" fill="#202020"/>
<path d="M54.8997 3.20712C50.7792 -0.913344 44.0833 -0.925277 39.9464 3.16875C38.655 2.52763 37.284 1.97765 35.8384 1.52489C31.0961 0.0394416 27.2164 0.0945449 26.88 0.101915C20.5354 0.106127 15.0012 2.76829 12.434 7.05173C12.0952 7.61703 11.8129 8.20293 11.5864 8.80579C10.3773 9.95711 4.92075 15.5963 4.92075 23.5922C4.92075 28.9179 2.35909 31.6985 0.832224 32.882C0.261653 33.3242 -0.0473236 34.0187 0.00590787 34.7396C0.0591394 35.4608 0.466858 36.1027 1.09663 36.4566C1.672 36.7799 2.31908 37.0903 2.94475 37.3905C3.49801 37.656 4.2842 38.0332 4.66758 38.2786V40.3618C4.66758 40.6468 4.61318 40.9251 4.5059 41.1894L4.21588 41.9033C3.81869 42.8806 3.96493 43.9996 4.59528 44.8418V45.0983C4.59528 45.8572 4.92941 46.5597 5.48594 47.0362V48.4094C5.48594 51.3524 7.88007 53.7465 10.823 53.7465H14.2764C14.9223 53.7465 15.446 53.2229 15.446 52.5769C15.446 51.931 14.9223 51.4074 14.2764 51.4074H10.823C9.17003 51.4074 7.82497 50.0624 7.82497 48.4093V46.3914C7.82497 45.9228 7.54524 45.4996 7.11424 45.3157L7.0637 45.2942C6.98508 45.2606 6.93431 45.1837 6.93431 45.0983V44.4381C6.93431 44.1758 6.8461 43.921 6.68395 43.7149L6.47757 43.4526C6.32852 43.2633 6.29237 43.0068 6.38304 42.7836L6.67306 42.0696C6.89441 41.5246 7.00673 40.95 7.00673 40.3618V37.8718C7.00673 36.7448 5.85868 36.194 3.95662 35.2815C3.45718 35.0419 2.94358 34.7954 2.4893 34.5524C4.37031 33.0172 7.26002 29.6684 7.26002 23.5921C7.26002 19.1953 9.21718 15.5316 10.9151 13.1798C11.0079 15.2177 11.6243 17.3488 12.7651 19.4826C15.7668 25.0967 20.994 27.4499 25.1941 29.3405C29.1903 31.1394 31.4522 32.2718 31.4703 34.6256C31.4835 36.3542 31.086 37.626 30.2887 38.4055C29.3682 39.3057 28.1463 39.2826 28.1389 39.2825C27.7464 39.255 27.3785 39.4264 27.1395 39.7386C26.9003 40.0507 26.8459 40.4629 26.9747 40.8343C27.009 40.9333 27.8376 43.2825 29.7344 45.5717C32.1051 48.4327 35.0976 49.9424 38.4344 49.9762L41.577 59.19C41.7428 59.6764 42.1972 59.9824 42.6838 59.9824C42.8089 59.9824 42.9364 59.9622 43.0614 59.9194C43.6728 59.7109 43.9993 59.0463 43.7907 58.435L40.6958 49.3609C46.5306 46.2342 50.6329 41.3838 52.5886 35.2752C54.1475 30.4058 54.222 24.9421 52.9048 19.7673C53.6265 19.3285 54.2954 18.8048 54.8996 18.2005C59.0334 14.0669 59.0334 7.34093 54.8997 3.20712ZM50.361 34.5623C48.5257 40.2956 44.5852 44.8095 38.958 47.6297C36.1127 47.7574 33.6309 46.5817 31.5792 44.1317C30.752 43.1441 30.1532 42.1274 29.7611 41.3578C30.4285 41.1491 31.1949 40.7772 31.8849 40.1163C33.1804 38.8755 33.8279 37.0222 33.8094 34.608C33.779 30.6398 30.0754 28.9728 26.1544 27.2077C22.076 25.3719 17.4536 23.2912 14.8279 18.38C13.1968 15.3289 12.8128 12.4279 13.6822 9.88434C13.6858 9.87463 13.6892 9.86481 13.6926 9.85509C13.8832 9.30406 14.1318 8.76941 14.4407 8.25406C16.5895 4.66836 21.3619 2.44083 26.8954 2.44083C26.9066 2.44083 26.9178 2.44071 26.9291 2.44036C26.9655 2.43919 30.6517 2.35109 35.1394 3.75675C41.1115 5.62758 45.5108 9.11336 48.2148 14.1174C51.6322 20.4421 52.4346 28.085 50.361 34.5623ZM52.2058 17.4295C51.684 15.909 51.0401 14.4259 50.2725 13.0055C48.3525 9.45264 45.5787 6.53556 42.1 4.36921C45.343 1.65043 50.1979 1.81304 53.2458 4.86104C56.4676 8.08278 56.4676 13.325 53.2458 16.5467C52.9215 16.8711 52.5739 17.1658 52.2058 17.4295Z" fill="#202020"/>
<path d="M30.003 54.8884L26.3387 48.5415L26.2148 44.2078C26.1112 40.5785 23.3039 37.6196 19.685 37.3251C17.0239 37.1082 14.4689 38.584 13.326 40.9967L13.2682 41.1186C11.7532 44.3166 12.8462 48.1853 15.8107 50.1178L19.4584 52.4955L23.4434 59.3976C23.6599 59.7728 24.053 59.9826 24.4572 59.9824C24.6555 59.9824 24.8568 59.9319 25.0409 59.8256C25.6003 59.5027 25.792 58.7874 25.469 58.2279L21.9289 52.0963L23.3394 51.282L24.7498 50.4676L27.9772 56.0575C28.3 56.6168 29.0153 56.8084 29.5748 56.4855C30.1344 56.163 30.326 55.4477 30.003 54.8884ZM20.3687 50.2968L17.0882 48.1584C15.0991 46.8618 14.3657 44.2658 15.3823 42.1199L15.4401 41.998C16.1217 40.5594 17.5908 39.6433 19.1661 39.6433C19.2755 39.6433 19.3854 39.6478 19.4955 39.6568C21.9237 39.8543 23.8072 41.8397 23.8767 44.2748L23.9892 48.2065L20.3687 50.2968Z" fill="#202020"/>
<path d="M31.7559 58.0033C31.5384 57.7856 31.2366 57.6606 30.929 57.6606C30.6203 57.6606 30.3197 57.7858 30.1021 58.0033C29.8845 58.2207 29.7594 58.5226 29.7594 58.8302C29.7594 59.1377 29.8846 59.4395 30.1021 59.6571C30.3196 59.8745 30.6203 59.9997 30.929 59.9997C31.2366 59.9997 31.5383 59.8745 31.7559 59.6571C31.9734 59.4396 32.0986 59.1377 32.0986 58.8302C32.0986 58.5226 31.9734 58.2209 31.7559 58.0033Z" fill="#202020"/>
<path d="M22.1713 6.95602C21.9173 6.36228 21.2301 6.08642 20.636 6.34041C18.5733 7.22218 17.0856 8.70856 16.447 10.5259C15.807 12.3469 16.0473 14.3917 17.1419 16.4389C17.3526 16.8331 17.7566 17.0573 18.1744 17.0573C18.3605 17.0573 18.5492 17.0127 18.7247 16.9188C19.2943 16.6143 19.5092 15.9057 19.2047 15.3359C18.4164 13.8615 18.2311 12.504 18.6538 11.3011C19.0725 10.1098 20.103 9.11172 21.5555 8.49096C22.1494 8.23732 22.425 7.55011 22.1713 6.95602Z" fill="#202020"/>
<path d="M25.024 5.48187L24.9585 5.48199C24.3127 5.48573 23.7919 6.01243 23.7958 6.65846C23.7995 7.30204 24.3225 7.82113 24.9653 7.82113C24.9676 7.82113 24.9699 7.82113 24.9723 7.82113L25.024 7.82102C25.6699 7.82102 26.1936 7.29736 26.1936 6.65144C26.1936 6.00553 25.6699 5.48187 25.024 5.48187Z" fill="#202020"/>
</svg>
