<svg width="57" height="63" viewBox="0 0 57 63" fill="none" xmlns="http://www.w3.org/2000/svg">
<path d="M56.8264 27.5358C56.5007 24.927 55.4105 22.8494 54.9528 22.0704C55.2839 16.6425 54.2078 12.5555 51.7529 9.91871C49.8392 7.86342 47.6035 7.28192 46.4682 7.11778C44.7368 3.45764 41.7933 2.74953 40.0043 2.92163C36.6546 -0.19805 33.5563 -0.272169 31.5143 0.23712C30.1678 0.573678 29.1136 1.20448 28.4595 1.68005C27.8058 1.20385 26.751 0.573678 25.4048 0.23712C23.3628 -0.273124 20.2645 -0.198686 16.9148 2.92163C15.1238 2.74889 12.1817 3.45764 10.4509 7.11778C9.31553 7.2816 7.07987 7.8631 5.16614 9.91871C2.71067 12.5555 1.63515 16.6425 1.9663 22.0704C1.50855 22.8488 0.419028 24.927 0.0926503 27.5358C-0.276036 30.492 0.287014 34.6608 4.90911 38.0432C4.37342 41.2052 4.88048 46.6483 9.93043 49.3249C9.7208 50.4751 9.58179 52.4703 10.6086 54.1757C11.416 55.5171 12.7498 56.3996 14.5777 56.8029C15.5005 58.2271 18.6816 62.638 22.6512 62.638C22.6763 62.638 22.7021 62.638 22.7272 62.6373C24.8554 62.6068 26.7783 61.349 28.4592 58.8929C30.1407 61.3484 32.0637 62.6068 34.1912 62.6373C38.1901 62.6959 41.4122 58.236 42.3411 56.8029C44.1689 56.3996 45.5031 55.5175 46.3101 54.1757C47.3373 52.4703 47.1976 50.4748 46.9883 49.3249C52.0389 46.6483 52.546 41.2052 52.0103 38.0432C56.6327 34.6608 57.1961 30.4923 56.8264 27.5358ZM50.1993 36.6604C49.8176 36.9149 49.6369 37.3819 49.7482 37.8272C49.822 38.1224 51.4822 45.0781 45.3008 47.727C44.7813 47.9497 44.5195 48.5328 44.6983 49.0685C44.7059 49.0917 45.4379 51.4161 44.4495 53.0566C43.9138 53.947 42.9178 54.5192 41.4911 54.7569C41.173 54.8097 40.895 55.0018 40.7321 55.2798C39.8831 56.7288 37.0758 60.4666 34.2666 60.4666C34.251 60.4666 34.2345 60.4666 34.2182 60.4666C32.5288 60.4405 30.9185 59.0462 29.4326 56.3226C29.2421 55.9739 28.8355 55.757 28.4379 55.757C28.0403 55.757 27.6751 55.9736 27.4845 56.3226C25.9993 59.0462 24.389 60.4405 22.6989 60.4666C19.8866 60.5117 17.0392 56.7374 16.1851 55.2798C16.0222 55.0018 15.7435 54.8097 15.4261 54.7569C14.0038 54.5196 13.01 53.9501 12.4731 53.0652C11.4726 51.4158 12.2129 49.0885 12.2195 49.0682C12.3977 48.5325 12.1365 47.9494 11.617 47.7267C5.46802 45.0915 7.09832 38.1202 7.17022 37.8269C7.28155 37.3819 7.10087 36.9149 6.71914 36.6601C-1.38114 31.2599 3.75502 23.2814 3.97642 22.9465C4.11003 22.7461 4.17301 22.5068 4.15615 22.2667C3.8021 17.316 4.66608 13.6714 6.72359 11.4329C8.7019 9.28091 11.0963 9.22556 11.1901 9.22428C11.6342 9.22428 12.0331 8.95389 12.1982 8.54194C13.4134 5.50498 15.3659 5.07108 16.3813 5.07108C16.708 5.07108 16.9383 5.11625 17.0144 5.13406C17.3846 5.22631 17.7756 5.11847 18.0453 4.8484C20.2549 2.63978 22.5259 1.79139 24.7956 2.32454C26.5324 2.73267 27.6633 3.82664 27.6709 3.83428C27.8745 4.03786 28.151 4.15238 28.4385 4.15238H28.4799C28.7678 4.15238 29.0439 4.03786 29.2475 3.83428C29.2583 3.82346 30.3507 2.76639 32.0408 2.34394C34.3372 1.77008 36.6365 2.61147 38.8731 4.8484C39.1368 5.11275 39.5278 5.21932 39.8939 5.13661C40.218 5.06217 43.1138 4.52648 44.7202 8.54226C44.8831 8.94944 45.2826 9.21919 45.7213 9.2246C45.8221 9.22619 48.2165 9.28091 50.1948 11.4332C52.252 13.6717 53.1157 17.3166 52.7623 22.267C52.7454 22.5068 52.8084 22.7464 52.942 22.9468C52.956 22.9675 54.3258 25.0485 54.6706 27.8059C55.1201 31.4034 53.6158 34.3827 50.1993 36.6604Z" fill="#202020"/>
<path d="M46.7182 7.79567C46.5283 7.22658 45.9122 6.91993 45.3446 7.10888C38.5922 9.35981 38.5143 15.0027 38.5143 15.2416C38.5143 15.8384 38.9959 16.3197 39.5923 16.3235C39.5952 16.3235 39.5977 16.3235 39.5999 16.3235C40.1932 16.3235 40.6777 15.8425 40.6856 15.2489C40.6885 15.0724 40.8056 10.9106 46.0311 9.16894C46.6002 8.97935 46.9075 8.36477 46.7182 7.79567Z" fill="#202020"/>
<path d="M51.6237 36.9047C51.2601 36.4282 50.5797 36.3356 50.1019 36.6995C48.3326 38.0477 46.7325 38.528 45.3494 38.1294C42.885 37.4197 41.6434 34.1737 41.6317 34.1407C41.4233 33.5792 40.7982 33.292 40.2381 33.5006C39.6756 33.708 39.3878 34.3328 39.5958 34.8952C39.6604 35.0702 41.2181 39.1897 44.7355 40.2124C45.26 40.3651 45.7947 40.4411 46.3387 40.4411C47.9576 40.4411 49.6601 39.7673 51.4186 38.4265C51.8954 38.0632 51.987 37.3812 51.6237 36.9047Z" fill="#202020"/>
<path d="M33.2655 37.8104C32.8421 37.3864 32.1537 37.3864 31.7303 37.8104C31.3063 38.2344 31.3063 38.9219 31.7303 39.3456C35.2559 42.8712 34.5246 46.2775 34.487 46.4387C34.3458 47.0186 34.6992 47.6036 35.2785 47.7487C35.3663 47.7703 35.455 47.7811 35.5422 47.7811C36.0286 47.7811 36.4717 47.4516 36.5948 46.9582C36.6428 46.7683 37.7076 42.2524 33.2655 37.8104Z" fill="#202020"/>
<path d="M50.1118 27.6347C49.9076 27.0723 49.2851 26.7812 48.722 26.9839C48.5022 27.0625 43.325 28.8728 40.5753 25.213C39.147 23.3123 38.5334 21.6845 38.04 20.3768C37.4346 18.7726 36.8636 17.2568 34.9655 17.1003C34.3732 17.0503 33.8432 17.4954 33.7945 18.0931C33.7452 18.6902 34.1896 19.2147 34.7874 19.2641C35.2419 19.301 35.4127 19.5647 36.0079 21.1425C36.5217 22.5037 37.2247 24.3678 38.8391 26.5166C40.7312 29.0347 43.3708 29.6671 45.5473 29.6671C47.6545 29.6671 49.3271 29.0738 49.4648 29.0242C50.0272 28.819 50.3161 28.1975 50.1118 27.6347Z" fill="#202020"/>
<path d="M28.4392 1.98041C27.8399 1.98041 27.3535 2.46679 27.3535 3.06611V56.8412C27.3535 57.4405 27.8399 57.9269 28.4392 57.9269C29.0385 57.9269 29.5249 57.4411 29.5249 56.8415V3.06611C29.5249 2.46679 29.0385 1.98041 28.4392 1.98041Z" fill="#202020"/>
<path d="M36.3782 11.3346C36.3696 10.7353 35.8943 10.2489 35.2766 10.2645C34.6766 10.2731 34.1979 10.7668 34.2065 11.3661C34.2074 11.4339 34.2666 18.2038 30.8813 22.4973C30.5101 22.9684 30.5902 23.6511 31.0617 24.0223C31.2608 24.1798 31.4975 24.2558 31.7332 24.2558C32.0542 24.2558 32.3723 24.1143 32.586 23.8423C36.4437 18.9504 36.3823 11.6435 36.3782 11.3346Z" fill="#202020"/>
<path d="M38.5855 44.5943C33.7993 44.5943 31.5605 51.1454 31.4676 51.4247C31.278 51.9932 31.585 52.6065 32.1534 52.797C32.2673 52.8355 32.3837 52.8533 32.4976 52.8533C32.9515 52.8533 33.3749 52.5667 33.5276 52.1122C34.0277 50.625 35.9115 46.7657 38.5859 46.7657C39.1852 46.7657 39.6716 46.2793 39.6716 45.68C39.6716 45.0807 39.1849 44.5943 38.5855 44.5943Z" fill="#202020"/>
<path d="M39.8086 2.75277C39.3286 2.3949 38.6479 2.49447 38.2897 2.97577L35.6847 6.4759C35.3268 6.95624 35.4267 7.63667 35.9077 7.99486C36.102 8.14024 36.3289 8.2099 36.5547 8.2099C36.8865 8.2099 37.2138 8.05912 37.4266 7.77187L40.0316 4.27173C40.3895 3.79139 40.2896 3.11128 39.8086 2.75277Z" fill="#202020"/>
<path d="M17.5797 9.77054C15.1849 9.77054 13.2365 11.7189 13.2365 14.1137C13.2365 16.5084 15.1849 18.4568 17.5797 18.4568C19.9744 18.4568 21.9228 16.5084 21.9228 14.1137C21.9228 11.7189 19.9744 9.77054 17.5797 9.77054ZM17.5797 16.2854C16.382 16.2854 15.4079 15.3113 15.4079 14.1137C15.4079 12.916 16.382 11.9419 17.5797 11.9419C18.7773 11.9419 19.7514 12.916 19.7514 14.1137C19.7511 15.3113 18.777 16.2854 17.5797 16.2854Z" fill="#202020"/>
<path d="M9.97877 23.8858C7.58406 23.8858 5.63565 25.8342 5.63565 28.229C5.63565 30.6237 7.58406 32.5721 9.97877 32.5721C12.3735 32.5721 14.3219 30.6237 14.3219 28.229C14.3222 25.8342 12.3735 23.8858 9.97877 23.8858ZM9.97877 30.4007C8.78109 30.4007 7.80705 29.4266 7.80705 28.229C7.80705 27.0313 8.78109 26.0572 9.97877 26.0572C11.1764 26.0572 12.1505 27.0313 12.1505 28.229C12.1505 29.4266 11.1764 30.4007 9.97877 30.4007Z" fill="#202020"/>
<path d="M20.8371 33.6582C18.4424 33.6582 16.494 35.6066 16.494 38.0013C16.494 40.396 18.4424 42.3444 20.8371 42.3444C23.2318 42.3444 25.1802 40.396 25.1802 38.0013C25.1802 35.6066 23.2318 33.6582 20.8371 33.6582ZM20.8371 40.173C19.6394 40.173 18.6654 39.1989 18.6654 38.0013C18.6654 36.8036 19.6394 35.8296 20.8371 35.8296C22.0347 35.8296 23.0088 36.8036 23.0088 38.0013C23.0088 39.1989 22.0344 40.173 20.8371 40.173Z" fill="#202020"/>
<path d="M20.8371 45.6021C18.4424 45.6021 16.494 47.5505 16.494 49.9452C16.494 52.3399 18.4424 54.2883 20.8371 54.2883C23.2318 54.2883 25.1802 52.3399 25.1802 49.9452C25.1802 47.5505 23.2318 45.6021 20.8371 45.6021ZM20.8371 52.1169C19.6394 52.1169 18.6654 51.1429 18.6654 49.9452C18.6654 48.7475 19.6394 47.7735 20.8371 47.7735C22.0347 47.7735 23.0088 48.7475 23.0088 49.9452C23.0085 51.1429 22.0344 52.1169 20.8371 52.1169Z" fill="#202020"/>
<path d="M17.5797 16.2854C16.9803 16.2854 16.494 16.7718 16.494 17.3711V28.229C16.494 28.8283 16.9803 29.3147 17.5797 29.3147C18.1796 29.3147 18.6654 28.829 18.6654 28.229V17.3711C18.6654 16.7718 18.179 16.2854 17.5797 16.2854Z" fill="#202020"/>
<path d="M20.8371 27.1433H13.2362C12.6369 27.1433 12.1505 27.6297 12.1505 28.229C12.1505 28.8283 12.6369 29.3147 13.2362 29.3147H20.8367C21.4367 29.3147 21.9224 28.8283 21.9224 28.229C21.9228 27.6297 21.4364 27.1433 20.8371 27.1433Z" fill="#202020"/>
<path d="M20.8371 27.1433C20.2378 27.1433 19.7514 27.6297 19.7514 28.229V34.7439C19.7514 35.3432 20.2378 35.8296 20.8371 35.8296C21.437 35.8296 21.9228 35.3438 21.9228 34.7439V28.229C21.9228 27.6297 21.4364 27.1433 20.8371 27.1433Z" fill="#202020"/>
<path d="M20.8371 40.173C20.2378 40.173 19.7514 40.6594 19.7514 41.2587V46.6878C19.7514 47.2871 20.2378 47.7735 20.8371 47.7735C21.437 47.7735 21.9228 47.2878 21.9228 46.6878V41.2587C21.9228 40.6594 21.4364 40.173 20.8371 40.173Z" fill="#202020"/>
</svg>
