<svg width="35" height="35" viewBox="0 0 35 35" fill="none" xmlns="http://www.w3.org/2000/svg">
<path d="M29.1544 3.96655C29.1499 3.94633 29.1376 3.93038 29.1316 3.9113C29.1217 3.87854 29.1086 3.84692 29.0926 3.81673C29.0744 3.78198 29.0524 3.74951 29.0274 3.71932C29.0072 3.69425 28.9849 3.6709 28.9607 3.64925C28.9314 3.62447 28.8992 3.60311 28.865 3.58516C28.8363 3.56779 28.8058 3.55298 28.7742 3.54073C28.7363 3.52877 28.697 3.52079 28.6574 3.5168C28.6332 3.50968 28.6084 3.50399 28.5833 3.5H25.6422C25.4918 1.46944 24.5496 0 23.3333 0C22.1171 0 21.1749 1.46944 21.0245 3.5H19.8088C19.6584 1.46944 18.7162 0 17.5 0C16.2838 0 15.3416 1.46944 15.1912 3.5H13.9755C13.8251 1.46944 12.8829 0 11.6667 0C10.4504 0 9.50822 1.46944 9.35783 3.5H8.14217C7.99178 1.46944 7.04956 0 5.83333 0C4.61711 0 3.67489 1.46944 3.5245 3.5H0.583333C0.26119 3.5 0 3.76119 0 4.08333V34.4167C0 34.7388 0.26119 35 0.583333 35H28.5833C28.9055 35 29.1667 34.7388 29.1667 34.4167V32.6667H34.4167C34.5918 32.6667 34.7576 32.5878 34.8681 32.4522C34.9789 32.3163 35.0228 32.1383 34.9878 31.9666L29.1544 3.96655ZM23.3333 1.16667C23.7546 1.16667 24.3425 2.06047 24.4721 3.5H22.1969C22.3242 2.06047 22.9121 1.16667 23.3333 1.16667ZM17.5 1.16667C17.9213 1.16667 18.5092 2.06047 18.6388 3.5H16.3635C16.4908 2.06047 17.0787 1.16667 17.5 1.16667ZM11.6667 1.16667C12.0879 1.16667 12.6758 2.06047 12.8054 3.5H10.5302C10.6575 2.06047 11.2454 1.16667 11.6667 1.16667ZM5.83333 1.16667C6.2546 1.16667 6.84249 2.06047 6.97209 3.5H4.69686C4.82418 2.06047 5.41207 1.16667 5.83333 1.16667ZM1.16667 4.66667H3.5245C3.67489 6.69722 4.61711 8.16667 5.83333 8.16667C6.15548 8.16667 6.41667 7.90548 6.41667 7.58333C6.41667 7.26119 6.15548 7 5.83333 7C5.41207 7 4.82418 6.1062 4.69458 4.66667H9.35783C9.51021 6.69722 10.4504 8.16667 11.6667 8.16667C11.9888 8.16667 12.25 7.90548 12.25 7.58333C12.25 7.26119 11.9888 7 11.6667 7C11.2454 7 10.6575 6.1062 10.5279 4.66667H15.1912C15.3435 6.69722 16.2838 8.16667 17.5 8.16667C17.8221 8.16667 18.0833 7.90548 18.0833 7.58333C18.0833 7.26119 17.8221 7 17.5 7C17.0787 7 16.4908 6.1062 16.3612 4.66667H21.0245C21.1769 6.69722 22.1171 8.16667 23.3333 8.16667C23.6555 8.16667 23.9167 7.90548 23.9167 7.58333C23.9167 7.26119 23.6555 7 23.3333 7C22.9121 7 22.3242 6.1062 22.1946 4.66667H28V10.5H1.16667V4.66667ZM28 33.8333H1.16667V11.6667H28V33.8333ZM29.1667 31.5V9.74178L33.6997 31.5H29.1667Z" fill="#202020"/>
<path d="M12.8333 21H10.5C10.1778 21 9.91666 21.2612 9.91666 21.5833V23.9167C9.91666 24.2388 10.1778 24.5 10.5 24.5H12.8333C13.1555 24.5 13.4167 24.2388 13.4167 23.9167V21.5833C13.4167 21.2612 13.1555 21 12.8333 21ZM12.25 23.3333H11.0833V22.1667H12.25V23.3333Z" fill="#202020"/>
<path d="M18.6667 21H16.3333C16.0112 21 15.75 21.2612 15.75 21.5833V23.9167C15.75 24.2388 16.0112 24.5 16.3333 24.5H18.6667C18.9888 24.5 19.25 24.2388 19.25 23.9167V21.5833C19.25 21.2612 18.9888 21 18.6667 21ZM18.0833 23.3333H16.9167V22.1667H18.0833V23.3333Z" fill="#202020"/>
<path d="M6.99998 21H4.66665C4.3445 21 4.08331 21.2612 4.08331 21.5833V23.9167C4.08331 24.2388 4.3445 24.5 4.66665 24.5H6.99998C7.32212 24.5 7.58331 24.2388 7.58331 23.9167V21.5833C7.58331 21.2612 7.32212 21 6.99998 21ZM6.41665 23.3333H5.24998V22.1667H6.41665V23.3333Z" fill="#202020"/>
<path d="M12.8333 26.8335H10.5C10.1778 26.8335 9.91666 27.0947 9.91666 27.4168V29.7502C9.91666 30.0723 10.1778 30.3335 10.5 30.3335H12.8333C13.1555 30.3335 13.4167 30.0723 13.4167 29.7502V27.4168C13.4167 27.0947 13.1555 26.8335 12.8333 26.8335ZM12.25 29.1668H11.0833V28.0002H12.25V29.1668Z" fill="#202020"/>
<path d="M18.6667 26.8335H16.3333C16.0112 26.8335 15.75 27.0947 15.75 27.4168V29.7502C15.75 30.0723 16.0112 30.3335 16.3333 30.3335H18.6667C18.9888 30.3335 19.25 30.0723 19.25 29.7502V27.4168C19.25 27.0947 18.9888 26.8335 18.6667 26.8335ZM18.0833 29.1668H16.9167V28.0002H18.0833V29.1668Z" fill="#202020"/>
<path d="M6.99998 26.8335H4.66665C4.3445 26.8335 4.08331 27.0947 4.08331 27.4168V29.7502C4.08331 30.0723 4.3445 30.3335 4.66665 30.3335H6.99998C7.32212 30.3335 7.58331 30.0723 7.58331 29.7502V27.4168C7.58331 27.0947 7.32212 26.8335 6.99998 26.8335ZM6.41665 29.1668H5.24998V28.0002H6.41665V29.1668Z" fill="#202020"/>
<path d="M12.8333 15.1667H10.5C10.1778 15.1667 9.91666 15.4279 9.91666 15.7501V18.0834C9.91666 18.4056 10.1778 18.6667 10.5 18.6667H12.8333C13.1555 18.6667 13.4167 18.4056 13.4167 18.0834V15.7501C13.4167 15.4279 13.1555 15.1667 12.8333 15.1667ZM12.25 17.5001H11.0833V16.3334H12.25V17.5001Z" fill="#202020"/>
<path d="M18.6667 15.1667H16.3333C16.0112 15.1667 15.75 15.4279 15.75 15.7501V18.0834C15.75 18.4056 16.0112 18.6667 16.3333 18.6667H18.6667C18.9888 18.6667 19.25 18.4056 19.25 18.0834V15.7501C19.25 15.4279 18.9888 15.1667 18.6667 15.1667ZM18.0833 17.5001H16.9167V16.3334H18.0833V17.5001Z" fill="#202020"/>
<path d="M24.5 21H22.1667C21.8445 21 21.5833 21.2612 21.5833 21.5833V23.9167C21.5833 24.2388 21.8445 24.5 22.1667 24.5H24.5C24.8222 24.5 25.0833 24.2388 25.0833 23.9167V21.5833C25.0833 21.2612 24.8222 21 24.5 21ZM23.9167 23.3333H22.75V22.1667H23.9167V23.3333Z" fill="#202020"/>
<path d="M24.5 26.8335H22.1667C21.8445 26.8335 21.5833 27.0947 21.5833 27.4168V29.7502C21.5833 30.0723 21.8445 30.3335 22.1667 30.3335H24.5C24.8222 30.3335 25.0833 30.0723 25.0833 29.7502V27.4168C25.0833 27.0947 24.8222 26.8335 24.5 26.8335ZM23.9167 29.1668H22.75V28.0002H23.9167V29.1668Z" fill="#202020"/>
<path d="M24.5 15.1667H22.1667C21.8445 15.1667 21.5833 15.4279 21.5833 15.7501V18.0834C21.5833 18.4056 21.8445 18.6667 22.1667 18.6667H24.5C24.8222 18.6667 25.0833 18.4056 25.0833 18.0834V15.7501C25.0833 15.4279 24.8222 15.1667 24.5 15.1667ZM23.9167 17.5001H22.75V16.3334H23.9167V17.5001Z" fill="#202020"/>
<path d="M6.99998 15.1667H4.66665C4.3445 15.1667 4.08331 15.4279 4.08331 15.7501V18.0834C4.08331 18.4056 4.3445 18.6667 4.66665 18.6667H6.99998C7.32212 18.6667 7.58331 18.4056 7.58331 18.0834V15.7501C7.58331 15.4279 7.32212 15.1667 6.99998 15.1667ZM6.41665 17.5001H5.24998V16.3334H6.41665V17.5001Z" fill="#202020"/>
</svg>
